<svg width="12" height="13" viewBox="0 0 12 13" fill="none" xmlns="http://www.w3.org/2000/svg">
<path d="M11.0916 12.4071V11.0717C11.0916 10.3633 10.8102 9.68393 10.3093 9.18303C9.80843 8.68214 9.12907 8.40074 8.42069 8.40074H7.75296C7.57587 8.40074 7.40603 8.33039 7.2808 8.20516C7.15558 8.07994 7.08523 7.9101 7.08523 7.733V4.39434C7.08523 4.04015 6.94453 3.70047 6.69408 3.45002C6.44363 3.19957 6.10395 3.05887 5.74976 3.05887C5.39558 3.05887 5.05589 3.19957 4.80545 3.45002C4.555 3.70047 4.4143 4.04015 4.4143 4.39434V10.4039L2.81174 8.26719C2.68734 8.10133 2.52604 7.96671 2.3406 7.87399C2.15517 7.78127 1.95069 7.733 1.74336 7.733H1.45357C0.875979 7.733 0.407898 8.20108 0.407898 8.77867C0.407898 8.96831 0.459313 9.15461 0.556802 9.31687L2.4111 12.4071M5.74976 1.05567V0.387939V1.05567ZM9.75616 5.06207H10.4239H9.75616ZM1.07563 5.06207H1.74336H1.07563ZM2.64013 1.95244L2.16804 1.48035L2.64013 1.95244ZM8.8594 1.95244L9.33148 1.48035L8.8594 1.95244Z" fill="#4CAF4F"/>
<path d="M11.0916 12.4071V11.0717C11.0916 10.3633 10.8102 9.68393 10.3093 9.18303C9.80843 8.68214 9.12907 8.40074 8.42069 8.40074H7.75296C7.57587 8.40074 7.40603 8.33039 7.2808 8.20516C7.15558 8.07994 7.08523 7.9101 7.08523 7.733V4.39434C7.08523 4.04015 6.94453 3.70047 6.69408 3.45002C6.44363 3.19957 6.10395 3.05887 5.74976 3.05887V3.05887C5.39557 3.05887 5.05589 3.19957 4.80545 3.45002C4.555 3.70047 4.4143 4.04015 4.4143 4.39434V10.4039L2.81174 8.26719C2.68734 8.10133 2.52604 7.96671 2.3406 7.87399C2.15517 7.78127 1.95069 7.733 1.74336 7.733H1.45357C0.875979 7.733 0.407898 8.20108 0.407898 8.77867C0.407898 8.96831 0.459313 9.15461 0.556802 9.31687L2.4111 12.4071M5.74976 1.05567V0.387939M9.75616 5.06207H10.4239M1.07563 5.06207H1.74336M2.64013 1.95244L2.16804 1.48035M8.8594 1.95244L9.33148 1.48035" stroke="#4CAF4F" stroke-width="0.667733" stroke-linecap="round" stroke-linejoin="round"/>
</svg>
