<svg width="15" height="12" viewBox="0 0 15 12" fill="none" xmlns="http://www.w3.org/2000/svg">
<path d="M1.72511 3.89359V4.06053H1.89204H13.9112H14.0782V3.89359V3.14239C14.0782 2.76607 13.9287 2.40516 13.6626 2.13906C13.3965 1.87295 13.0356 1.72346 12.6592 1.72346H3.14404C2.76772 1.72346 2.40681 1.87295 2.1407 2.13906C1.8746 2.40516 1.72511 2.76607 1.72511 3.14239V3.89359ZM14.0782 4.89519V4.72826H13.9112H1.89204H1.72511V4.89519V9.65279C1.72511 10.0291 1.8746 10.39 2.1407 10.6561C2.40681 10.9222 2.76772 11.0717 3.14404 11.0717H12.6592C13.0356 11.0717 13.3965 10.9222 13.6626 10.6561C13.9287 10.39 14.0782 10.0291 14.0782 9.65279V4.89519ZM1.05738 3.14239C1.05738 2.58898 1.27722 2.05822 1.66855 1.6669C2.05987 1.27557 2.59062 1.05573 3.14404 1.05573H12.6592C13.2127 1.05573 13.7434 1.27557 14.1347 1.6669C14.5261 2.05822 14.7459 2.58898 14.7459 3.14239V9.65279C14.7459 10.2062 14.5261 10.737 14.1347 11.1283C13.7434 11.5196 13.2127 11.7395 12.6592 11.7395H3.14404C2.59062 11.7395 2.05987 11.5196 1.66855 11.1283C1.27722 10.737 1.05738 10.2062 1.05738 9.65279V3.14239ZM10.4056 8.06692H11.908C11.9966 8.06692 12.0815 8.1021 12.1441 8.16471C12.2067 8.22732 12.2419 8.31224 12.2419 8.40079C12.2419 8.48934 12.2067 8.57426 12.1441 8.63687C12.0815 8.69948 11.9966 8.73466 11.908 8.73466H10.4056C10.3171 8.73466 10.2322 8.69948 10.1696 8.63687C10.1069 8.57426 10.0718 8.48934 10.0718 8.40079C10.0718 8.31224 10.1069 8.22732 10.1696 8.16471C10.2322 8.1021 10.3171 8.06692 10.4056 8.06692Z" fill="#4CAF4F" stroke="#4CAF4F" stroke-width="0.333867"/>
</svg>
