<svg width="17" height="12" viewBox="0 0 17 12" fill="none" xmlns="http://www.w3.org/2000/svg">
<path d="M11.3477 2.12007C11.1036 2.11963 10.8605 2.1534 10.6257 2.22038L10.6257 2.22037L10.6238 2.22094C10.5496 2.24309 10.4716 2.25025 10.3946 2.24199C10.3175 2.23374 10.2429 2.21024 10.175 2.17286L10.0945 2.31909L10.175 2.17286C10.1071 2.13548 10.0473 2.08498 9.99917 2.02428C9.951 1.96358 9.91538 1.8939 9.89439 1.81931C9.8734 1.74471 9.86745 1.66668 9.87691 1.58977C9.88636 1.51286 9.91102 1.43859 9.94945 1.3713C9.98789 1.304 10.0393 1.24503 10.1008 1.19781C10.1622 1.15058 10.2324 1.11605 10.3073 1.09623L10.3073 1.09625L10.3103 1.0954C10.6476 0.99938 10.9967 0.950959 11.3473 0.951543L11.3481 0.951541C12.1361 0.949252 12.9056 1.18987 13.552 1.64064C14.1983 2.09141 14.69 2.73041 14.9602 3.47066C15.2303 4.21091 15.2657 5.01643 15.0616 5.77753C14.8575 6.53864 14.4238 7.21836 13.8196 7.72414L13.6158 7.89468L13.8579 8.00423C14.8506 8.45345 15.7048 9.1604 16.3318 10.0516L16.3325 10.0526C16.377 10.1149 16.4088 10.1855 16.4258 10.2601C16.4429 10.3348 16.4449 10.4122 16.4318 10.4876C16.4187 10.5631 16.3907 10.6352 16.3495 10.6998C16.3082 10.7644 16.2546 10.8201 16.1916 10.8637L16.1916 10.8637L16.1897 10.8651C16.0922 10.9348 15.9753 10.9721 15.8556 10.9717C15.7619 10.9711 15.6697 10.9483 15.5866 10.905C15.5035 10.8618 15.4319 10.7994 15.3777 10.723C14.9224 10.0772 14.3189 9.55015 13.6177 9.18602C12.9164 8.82186 12.138 8.63134 11.3478 8.63047H11.3476C11.1927 8.63047 11.044 8.56892 10.9345 8.45934C10.8249 8.34977 10.7633 8.20116 10.7633 8.04621C10.7633 7.89125 10.8249 7.74264 10.9345 7.63307C11.044 7.5235 11.1927 7.46194 11.3476 7.46194C12.056 7.46194 12.7354 7.18054 13.2362 6.67964C13.7371 6.17874 14.0185 5.49938 14.0185 4.79101C14.0185 4.08263 13.7371 3.40327 13.2362 2.90237C12.7354 2.4015 12.0561 2.12011 11.3477 2.12007ZM11.3477 2.12007C11.3478 2.12007 11.3479 2.12007 11.3479 2.12007L11.3476 2.28701V2.12007C11.3477 2.12007 11.3477 2.12007 11.3477 2.12007ZM8.71737 7.7244L8.5146 7.89498L8.75601 8.00423C9.74869 8.45345 10.6029 9.1604 11.2299 10.0516L11.2297 10.0517L11.2348 10.0582C11.2835 10.1206 11.319 10.1923 11.3392 10.2688L11.5006 10.2262L11.3392 10.2688C11.3594 10.3453 11.3638 10.4252 11.3522 10.5035C11.3406 10.5818 11.3132 10.6569 11.2716 10.7243C11.2301 10.7916 11.1753 10.8499 11.1106 10.8955C11.0459 10.941 10.9726 10.973 10.8951 10.9893C10.8177 11.0057 10.7377 11.0062 10.6601 10.9907C10.5825 10.9753 10.5088 10.9442 10.4436 10.8994C10.3783 10.8546 10.3228 10.797 10.2805 10.7301L10.2807 10.73L10.2761 10.7235C9.82176 10.0764 9.21834 9.54825 8.51683 9.18363C7.81532 8.81901 7.03633 8.62866 6.24572 8.62866C5.4551 8.62866 4.67611 8.81901 3.9746 9.18363C3.27309 9.54825 2.66968 10.0764 2.21537 10.7235L2.215 10.724C2.1616 10.8007 2.09039 10.8633 2.00749 10.9064C1.92458 10.9496 1.83245 10.972 1.739 10.9717L1.73797 10.9717C1.61811 10.9721 1.50116 10.9348 1.40365 10.8651L1.40285 10.8645C1.27645 10.7753 1.19061 10.6396 1.16414 10.4872C1.13767 10.3348 1.17274 10.1781 1.26165 10.0514C1.88859 9.16034 2.74278 8.45344 3.73542 8.00423L3.97683 7.89498L3.77406 7.7244C3.17142 7.21743 2.73925 6.53742 2.53614 5.77654C2.33303 5.01566 2.36881 4.21072 2.63862 3.47086C2.90844 2.73101 3.39924 2.09201 4.04448 1.64051C4.68972 1.18901 5.45819 0.94684 6.24572 0.94684C7.03324 0.94684 7.80171 1.18901 8.44695 1.64051C9.0922 2.09201 9.58299 2.73101 9.85281 3.47086C10.1226 4.21072 10.1584 5.01566 9.95529 5.77654C9.75218 6.53742 9.32001 7.21743 8.71737 7.7244ZM1.30658 11.0009C1.43256 11.091 1.58366 11.1391 1.73852 11.1386C1.85897 11.139 1.9777 11.1101 2.08455 11.0545C2.1914 10.9989 2.28317 10.9182 2.352 10.8194C2.7909 10.1943 3.37386 9.68401 4.05159 9.33175C4.72932 8.9795 5.4819 8.79559 6.24572 8.79559C7.00953 8.79559 7.76211 8.9795 8.43984 9.33175C9.11758 9.68401 9.70053 10.1943 10.1394 10.8194L1.30658 11.0009ZM4.02492 3.30712C3.73143 3.74635 3.57478 4.26275 3.57478 4.79101C3.57478 5.49938 3.85618 6.17874 4.35708 6.67964C4.85798 7.18054 5.53734 7.46194 6.24572 7.46194C6.77398 7.46194 7.29037 7.30529 7.72961 7.01181C8.16884 6.71832 8.51118 6.30118 8.71334 5.81313C8.91549 5.32508 8.96839 4.78804 8.86533 4.26993C8.76227 3.75182 8.50789 3.27591 8.13435 2.90237C7.76081 2.52884 7.2849 2.27445 6.76679 2.1714C6.24868 2.06834 5.71164 2.12123 5.22359 2.32339C4.73555 2.52554 4.3184 2.86788 4.02492 3.30712Z" fill="#4CAF4F" stroke="#4CAF4F" stroke-width="0.333867"/>
</svg>
