<svg width="38" height="35" viewBox="0 0 38 35" fill="none" xmlns="http://www.w3.org/2000/svg">
<rect x="0.893066" y="0.894043" width="33.4113" height="33.4113" rx="5.56856" fill="#F5F7FA"/>
<g clip-path="url(#clip0_211_2541)">
<path d="M9.48474 10.5323C8.07121 10.5323 6.71559 11.0939 5.71609 12.0934L2.4541 15.3554C1.45459 16.3549 0.893066 17.7105 0.893066 19.124C0.893066 22.0676 3.27926 24.4537 6.22278 24.4537C7.63631 24.4537 8.99193 23.8922 9.99144 22.8927L12.2478 20.6364C12.2478 20.6363 12.2478 20.6364 12.2478 20.6364L18.822 14.0622C19.2993 13.5848 19.9468 13.3166 20.6219 13.3166C21.7521 13.3166 22.7103 14.0533 23.0425 15.0726L25.1173 12.9978C24.1708 11.5154 22.5111 10.5323 20.6219 10.5323C19.2083 10.5323 17.8527 11.0939 16.8532 12.0934L8.02267 20.9239C7.54531 21.4013 6.89787 21.6695 6.22278 21.6695C4.81697 21.6695 3.67734 20.5299 3.67734 19.124C3.67734 18.4489 3.94552 17.8015 4.42288 17.3241L7.68485 14.0622C8.16221 13.5848 8.80965 13.3166 9.48474 13.3166C10.615 13.3166 11.5732 14.0533 11.9054 15.0727L13.9802 12.9979C13.0337 11.5154 11.3741 10.5323 9.48474 10.5323Z" fill="#394149"/>
<path d="M19.1598 20.9239C18.6824 21.4013 18.035 21.6695 17.3599 21.6695C16.2298 21.6695 15.2717 20.933 14.9394 19.9138L12.8646 21.9886C13.8112 23.4708 15.4708 24.4537 17.3599 24.4537C18.7734 24.4537 20.129 23.8922 21.1285 22.8927L29.9591 14.0622C30.4364 13.5848 31.0839 13.3166 31.759 13.3166C33.1648 13.3166 34.3044 14.4563 34.3044 15.8621C34.3044 16.5372 34.0362 17.1846 33.5589 17.662L30.2969 20.9239C29.8195 21.4013 29.1721 21.6695 28.497 21.6695C27.3668 21.6695 26.4087 20.9329 26.0764 19.9136L24.0016 21.9884C24.9482 23.4708 26.6078 24.4537 28.497 24.4537C29.9105 24.4537 31.2661 23.8922 32.2657 22.8927L35.5276 19.6307C36.5271 18.6312 37.0887 17.2756 37.0887 15.8621C37.0887 12.9185 34.7025 10.5323 31.759 10.5323C30.3454 10.5323 28.9898 11.0939 27.9903 12.0934L19.1598 20.9239Z" fill="#394149"/>
</g>
<defs>
<clipPath id="clip0_211_2541">
<rect width="36.1956" height="13.9214" fill="white" transform="translate(0.893066 10.5323)"/>
</clipPath>
</defs>
</svg>
