<svg width="39" height="35" viewBox="0 0 39 35" fill="none" xmlns="http://www.w3.org/2000/svg">
<rect x="0.0424805" y="0.894043" width="33.4113" height="33.4113" rx="5.56856" fill="#F5F7FA"/>
<g clip-path="url(#clip0_211_2517)">
<path d="M38.3233 14.4788C38.3273 14.4498 38.3273 14.4205 38.3233 14.3914C38.3271 14.3678 38.3271 14.3437 38.3233 14.32L38.0397 12.2786C37.9988 12.0344 37.8894 11.8061 37.7238 11.6194L37.6751 11.5638L37.586 11.4764L32.6762 7.3302L32.814 7.46524C32.7013 7.33307 32.5599 7.22735 32.4 7.15587C32.2402 7.08439 32.066 7.04897 31.8904 7.05221H30.3996C30.1572 7.0475 29.9203 7.12306 29.7271 7.26667C29.5243 7.12393 29.28 7.04875 29.0304 7.05221H27.5396C27.3441 7.0491 27.1512 7.09667 26.9805 7.19012C26.8097 7.28357 26.6672 7.41958 26.5674 7.58438C26.4134 7.81976 26.3555 8.10335 26.4053 8.37867L26.5917 9.66542C26.4682 9.59681 26.3285 9.56121 26.1866 9.56217H18.9677C18.7087 9.56376 18.4557 9.63819 18.2385 9.77662C18.0285 9.90547 17.86 10.09 17.7524 10.3088L17.1934 9.84016C16.9733 9.64058 16.6829 9.5324 16.3832 9.53834H5.05664C4.79672 9.54298 4.54257 9.61417 4.31938 9.74485C4.01404 9.92006 3.79026 10.205 3.69552 10.5391L0.0982472 22.3343C0.0310335 22.5287 0.0244215 22.7383 0.0792581 22.9364C0.134095 23.1344 0.247897 23.312 0.406125 23.4464C0.447355 23.4806 0.490646 23.5125 0.53576 23.5416C0.53576 23.5416 0.46283 23.494 0.42232 23.4543L5.33213 27.6084C5.53982 27.7959 5.81137 27.9007 6.09366 27.9023H17.5094C17.7701 27.8957 18.0244 27.8217 18.2467 27.6878C18.3723 27.6205 18.4848 27.5317 18.5788 27.4257L18.6193 27.3701L18.6841 27.2907L18.7327 27.2033L19.2675 27.6561C19.4722 27.8361 19.7379 27.9351 20.0129 27.9341H31.4528C31.7133 27.9256 31.9671 27.8518 32.1901 27.7196C32.313 27.6482 32.4248 27.5599 32.5223 27.4575L32.5628 27.4019L32.6276 27.3225C32.6621 27.2722 32.6919 27.2191 32.7167 27.1636C32.7432 27.1155 32.7649 27.0649 32.7815 27.0127L36.0628 16.2422V16.1468C36.0669 16.1099 36.0669 16.0726 36.0628 16.0356V15.9642C36.0668 15.9405 36.0668 15.9163 36.0628 15.8926C36.0665 15.8424 36.0665 15.792 36.0628 15.7417H37.1161C37.2077 15.75 37.2999 15.75 37.3915 15.7417H37.4645C37.5238 15.7244 37.5809 15.7004 37.6346 15.6702H37.7157L37.8615 15.5591L37.9263 15.5114L38.0397 15.3684V15.3208L38.1207 15.1857C38.1162 15.1595 38.1162 15.1326 38.1207 15.1063C38.1164 15.0934 38.1164 15.0795 38.1207 15.0666C38.138 15.02 38.1515 14.9722 38.1613 14.9236C38.1575 14.9079 38.1575 14.8916 38.1613 14.8759C38.1573 14.8523 38.1573 14.8281 38.1613 14.8045C38.1613 14.8045 38.3233 14.4947 38.3233 14.4788Z" fill="black"/>
<path d="M16.7154 10.4439C16.7584 10.482 16.7884 10.5322 16.8015 10.5875C16.8145 10.6429 16.8099 10.7009 16.7883 10.7537L13.1992 22.5409C13.154 22.6696 13.0615 22.7772 12.9399 22.8428C12.8409 22.9077 12.7264 22.946 12.6077 22.954H1.20015C1.10273 22.9494 1.01043 22.9098 0.940885 22.8428C0.899512 22.8052 0.870474 22.7565 0.857484 22.7028C0.844495 22.649 0.848153 22.5927 0.86797 22.5409L4.46524 10.7537C4.50669 10.6233 4.59625 10.5129 4.7164 10.4439C4.81698 10.3837 4.93097 10.3482 5.04858 10.3406H16.4561C16.5528 10.3415 16.6455 10.3785 16.7154 10.4439ZM10.7604 20.166L12.9075 13.1286H6.89584L4.7569 20.166H10.7604ZM27.6044 10.563C27.6433 10.6074 27.692 10.6425 27.7467 10.6659C27.8014 10.6893 27.8608 10.7003 27.9204 10.6981H29.4031C29.4595 10.6986 29.5151 10.685 29.5648 10.6586C29.6144 10.6322 29.6563 10.5938 29.6866 10.5471C29.7129 10.5107 29.7316 10.4694 29.7413 10.4257C29.751 10.382 29.7517 10.3369 29.7433 10.293L29.4517 8.19605C29.4239 8.099 29.374 8.00938 29.3059 7.93393C29.2669 7.88959 29.2183 7.85442 29.1636 7.83105C29.1089 7.80767 29.0495 7.79668 28.9899 7.7989H27.5072C27.4507 7.79837 27.3951 7.81194 27.3455 7.83834C27.2959 7.86475 27.2539 7.90312 27.2236 7.94982C27.1669 8.06102 27.1426 8.1325 27.1669 8.19605L27.4667 10.293C27.4821 10.3951 27.5303 10.4897 27.6044 10.563ZM32.3117 8.18016C32.2839 8.08311 32.234 7.99349 32.1658 7.91805C32.1286 7.87386 32.0813 7.83871 32.028 7.81529C31.9746 7.79188 31.9164 7.78083 31.858 7.78302H30.3672C30.3117 7.78147 30.2567 7.79467 30.2082 7.82124C30.1598 7.84781 30.1195 7.88675 30.0917 7.93393C30.0378 8.0044 30.0145 8.09291 30.0269 8.18016L30.3267 10.2771C30.3455 10.3781 30.3932 10.4718 30.4644 10.5471C30.504 10.5906 30.5528 10.6252 30.6074 10.6485C30.6619 10.6718 30.7209 10.6833 30.7804 10.6822H32.2712C32.3266 10.6829 32.3811 10.6693 32.4295 10.6428C32.4778 10.6164 32.5182 10.5779 32.5466 10.5313C32.5748 10.4957 32.5945 10.4544 32.6043 10.4105C32.6142 10.3665 32.6138 10.3209 32.6033 10.2771L32.3117 8.18016ZM26.3 11.3573L26.1541 10.3247H18.9677C18.8549 10.3308 18.7457 10.3665 18.6517 10.428C18.5921 10.4599 18.5401 10.5041 18.4996 10.5576C18.459 10.6111 18.4308 10.6725 18.4168 10.7378L17.8173 12.7076C17.7933 12.7568 17.7851 12.8121 17.7938 12.8659C17.8025 12.9198 17.8276 12.9698 17.8659 13.0094C17.9342 13.0724 18.0234 13.1091 18.117 13.1127H26.851L24.7039 20.1501H15.9943C15.882 20.1526 15.7726 20.1856 15.6784 20.2454C15.5638 20.3168 15.4801 20.4271 15.4434 20.5552L14.8357 22.525C14.8159 22.5756 14.8107 22.6305 14.8207 22.6838C14.8307 22.7371 14.8555 22.7865 14.8924 22.8268C14.9586 22.894 15.0485 22.9338 15.1436 22.938H26.5836C26.7019 22.9281 26.8159 22.8899 26.9157 22.8268C27.0354 22.761 27.1251 22.6532 27.1669 22.525L30.4563 11.7545H26.7537C26.695 11.7556 26.6366 11.7449 26.5823 11.723C26.5279 11.7012 26.4788 11.6686 26.4378 11.6274C26.3708 11.5553 26.3234 11.4679 26.3 11.3732V11.3573Z" fill="white"/>
</g>
<defs>
<clipPath id="clip0_211_2517">
<rect width="38.2838" height="20.8821" fill="white" transform="translate(0.0424805 7.052)"/>
</clipPath>
</defs>
</svg>
