<svg width="34" height="35" viewBox="0 0 34 35" fill="none" xmlns="http://www.w3.org/2000/svg">
<rect x="-0.00732422" y="0.894043" width="33.4113" height="33.4113" rx="5.56856" fill="#F5F7FA"/>
<g clip-path="url(#clip0_211_2521)">
<path d="M30.6173 10.2293C30.6173 10.2529 30.6173 10.2823 30.6112 10.2999C30.5805 10.5294 30.5805 10.7589 30.5989 10.9943C30.6112 11.0531 30.6234 11.112 30.6725 11.159C30.7522 11.2473 30.8748 11.2297 30.9238 11.1237C30.9484 11.0708 30.9484 11.0178 30.9361 10.9649C30.8748 10.7413 30.8625 10.5059 30.8564 10.2764C30.8564 10.2646 30.8564 10.247 30.8564 10.2293C30.9238 10.2235 30.9852 10.2176 31.0403 10.2176C31.0833 10.2117 31.12 10.2058 31.1507 10.1881C31.2426 10.1411 31.2426 10.041 31.1445 9.99397C31.1078 9.97631 31.0587 9.97043 31.0158 9.97043C30.8625 9.97631 30.7093 9.97631 30.556 9.97631C30.5008 9.97631 30.4456 9.9822 30.3904 9.98808C30.3598 9.99397 30.323 9.99397 30.2985 10.0116C30.2556 10.0293 30.2311 10.0587 30.2311 10.0999C30.2372 10.1411 30.2556 10.1646 30.2985 10.1823C30.323 10.1999 30.3537 10.2058 30.3843 10.2058C30.4579 10.2117 30.5376 10.2235 30.6173 10.2293ZM32.3033 10.5C32.3033 10.5059 32.3094 10.5118 32.3094 10.5118C32.3339 10.6706 32.3585 10.8236 32.3768 10.9766C32.383 11.0296 32.3891 11.0767 32.4259 11.1178C32.5056 11.2179 32.6282 11.2061 32.6834 11.1002C32.7079 11.0472 32.714 10.9943 32.7018 10.9354C32.665 10.7589 32.6466 10.5824 32.6098 10.4117C32.5853 10.3058 32.5547 10.2058 32.524 10.1117C32.5056 10.0528 32.4627 10.0116 32.3891 10.0057C32.3156 9.99397 32.2604 10.0293 32.2297 10.0822C32.1929 10.1293 32.1623 10.1764 32.1377 10.2293C32.0948 10.3235 32.058 10.4176 32.009 10.5059C32.0028 10.5294 31.9967 10.5471 31.9845 10.5647C31.9784 10.553 31.9722 10.5471 31.9722 10.5471C31.8925 10.4 31.8189 10.2529 31.7393 10.1117C31.727 10.0999 31.7208 10.0881 31.7147 10.0763C31.6779 10.0234 31.635 9.99397 31.5676 9.99397C31.5063 9.99985 31.4572 10.0352 31.4266 10.0881C31.4143 10.1117 31.4143 10.1293 31.4082 10.1528C31.3836 10.3411 31.353 10.5294 31.3285 10.7177C31.3162 10.8236 31.3101 10.9296 31.3101 11.0355C31.304 11.059 31.3101 11.0884 31.3223 11.112C31.3346 11.159 31.3714 11.1885 31.4204 11.1943C31.4817 11.2002 31.5246 11.1826 31.5431 11.1355C31.5614 11.1002 31.5676 11.0708 31.5737 11.0414C31.5982 10.9354 31.6166 10.8354 31.635 10.7354C31.6473 10.6765 31.6534 10.6295 31.6718 10.5647C31.6841 10.5883 31.6963 10.6059 31.7086 10.6236C31.7637 10.6942 31.8189 10.7648 31.8864 10.8236C31.9538 10.8707 32.009 10.8648 32.0642 10.8119C32.0765 10.8001 32.0826 10.7942 32.0948 10.7824C32.15 10.7001 32.2175 10.6177 32.2726 10.5353C32.2849 10.5235 32.291 10.5118 32.3033 10.5Z" fill="#3A3B7B"/>
<path d="M18.1771 10.3449C18.1345 10.4568 18.1264 10.5373 18.146 10.6043C18.1678 10.6954 18.2242 10.7252 18.3007 10.702C19.0208 10.5311 20.5999 11.0162 21.1845 11.1514C21.3224 11.1798 21.4346 11.009 21.3405 10.8558C21.2032 10.7075 19.6248 10.0725 19.0226 10.0379C18.7865 10.025 18.3645 9.96695 18.1771 10.3449Z" fill="#3A3B7B"/>
<path d="M24.3484 8.28928C24.4252 8.33179 24.4681 8.37235 24.4892 8.41766C24.5208 8.4771 24.5041 8.51822 24.4511 8.53921C23.9751 8.76218 23.3417 9.72212 23.086 10.0532C23.0241 10.1294 22.8811 10.0851 22.8595 9.95985C22.8639 9.81824 23.4254 8.77649 23.7388 8.49275C23.8619 8.38197 24.0654 8.16461 24.3484 8.28928Z" fill="#3A3B7B"/>
<path d="M20.5576 7.81677C20.6498 7.75007 20.7456 7.7267 20.7946 7.77005C21.5128 8.35955 21.8936 9.29307 22.1294 10.1477C22.1383 10.1676 22.1389 10.1962 22.1318 10.226C22.1288 10.2515 22.1094 10.2784 22.0786 10.2992C22.0457 10.3222 22.0174 10.3292 22.0041 10.3094C21.6893 9.89846 19.8915 8.29968 20.5576 7.81677Z" fill="#3A3B7B"/>
<path d="M5.3491 18.0372C5.52123 17.9142 5.70836 17.8118 5.90638 17.7324C6.11356 17.6755 6.33439 17.6849 6.5355 17.7592C6.73655 17.8336 6.907 17.9687 7.02094 18.1442C7.12287 18.3193 7.16274 18.5214 7.13461 18.7201C7.10647 18.9188 7.01183 19.1034 6.86489 19.246C6.751 19.3616 6.62168 19.4623 6.48039 19.5456C5.85067 19.936 5.21534 20.3051 4.58004 20.6955C4.45005 20.7932 4.31214 20.8809 4.16765 20.9576C3.94786 21.0628 3.69668 21.091 3.45754 21.0373C3.2184 20.9836 3.00634 20.8513 2.85803 20.6635C2.74716 20.5304 2.65359 20.3849 2.57938 20.2302C1.97752 19.016 1.35336 17.8072 0.773781 16.5717C0.506282 16.0368 0.288942 15.4217 0.0771737 14.828C-0.0144471 14.6555 -0.0323386 14.4555 0.0273089 14.2705C0.0869565 14.0856 0.219437 13.9302 0.39657 13.8376C0.573704 13.7449 0.781511 13.7222 0.975802 13.7743C1.17009 13.8265 1.33554 13.9493 1.43695 14.1166C1.74865 14.5142 2.02458 14.9365 2.26173 15.3789C2.8636 16.4487 3.43761 17.5184 4.01718 18.556C4.05093 18.6134 4.08814 18.6687 4.12864 18.7218C4.56487 18.5458 4.97516 18.3156 5.3491 18.0372Z" fill="#3A3B7B"/>
<path d="M11.572 17.664C10.1955 19.2098 7.88834 18.8193 6.72919 16.8296C5.9044 15.4176 5.75951 13.0855 7.55399 11.6146C7.93718 11.3067 8.39538 11.0969 8.88588 11.0049C9.48728 10.9221 10.1005 11.024 10.638 11.2958C11.1755 11.5677 11.6097 11.9957 11.8785 12.5186C12.8593 14.2302 12.72 16.4124 11.572 17.664ZM11.0147 14.059C10.8685 13.6384 10.5751 13.2793 10.1843 13.0427C9.96324 12.8915 9.69455 12.8179 9.42358 12.8345C9.15255 12.851 8.89579 12.9567 8.69641 13.1337C7.89951 13.813 7.73229 15.4229 8.31187 16.3803C8.38575 16.5365 8.49423 16.6752 8.62981 16.7869C8.76539 16.8985 8.92476 16.9804 9.09675 17.0268C9.26874 17.0731 9.44919 17.0829 9.62552 17.0553C9.80186 17.0277 9.96973 16.9634 10.1175 16.8671C10.5495 16.5456 10.8664 16.103 11.0242 15.6007C11.182 15.0984 11.1729 14.5614 10.998 14.0644L11.0147 14.059Z" fill="#3A3B7B"/>
<path d="M17.1895 14.733C17.0485 14.762 16.903 14.7638 16.7613 14.738C16.6197 14.7123 16.4848 14.6597 16.3647 14.5832C16.2596 14.5255 16.1691 14.4462 16.0998 14.3509C16.0304 14.2556 15.984 14.1468 15.9638 14.0322C15.9435 13.9176 15.95 13.8002 15.9826 13.6883C16.0153 13.5764 16.0735 13.4728 16.1529 13.3851C16.2913 13.2087 16.4877 13.0825 16.7102 13.0267C17.2913 12.8649 17.8895 12.7662 18.4935 12.7326C18.6263 12.7177 18.7607 12.7285 18.889 12.7643C19.0173 12.8001 19.1369 12.86 19.2407 12.9408C19.3445 13.0215 19.4305 13.1213 19.4936 13.2343C19.5567 13.3474 19.5956 13.4714 19.6081 13.5991C19.7822 14.2262 19.8013 14.8838 19.6638 15.5192C19.1623 17.5731 17.4347 18.2791 15.4953 17.6213C14.9509 17.4454 14.4736 17.1176 14.1244 16.6799C13.6586 16.1528 13.3284 15.5281 13.1603 14.856C13.0241 14.2575 13.039 13.6365 13.2038 13.0448C13.3686 12.453 13.6785 11.9076 14.1077 11.4542C14.5149 10.9614 15.0435 10.5736 15.6458 10.3256C16.0264 10.1243 16.4717 10.0671 16.8941 10.1652C16.9899 10.1906 17.0769 10.2402 17.146 10.3088C17.2152 10.3774 17.2639 10.4625 17.2872 10.5553C17.3105 10.648 17.3076 10.7451 17.2786 10.8364C17.2496 10.9277 17.1958 11.0099 17.1226 11.0745C16.9834 11.1954 16.8322 11.3029 16.6712 11.3954C16.1757 11.6982 15.7446 12.0884 15.4006 12.5453C15.1751 12.841 15.0198 13.1806 14.9457 13.54C14.8715 13.8995 14.8803 14.2701 14.9715 14.626C15.0979 15.1112 15.3783 15.5467 15.774 15.8722C17 16.942 18.5938 15.9097 18.3152 14.4495C17.9084 14.5458 17.5517 14.6474 17.1895 14.733Z" fill="#3A3B7B"/>
<path d="M24.6794 17.7496C22.8683 18.8194 20.8063 17.7496 20.3549 15.5032C20.0261 13.8986 20.6503 11.6521 22.8349 10.7963C23.2996 10.6182 23.8038 10.5556 24.3005 10.6145C24.8973 10.7193 25.4447 11.0013 25.8656 11.4207C26.2865 11.84 26.5598 12.3756 26.6467 12.9519C27.0145 14.8613 26.1785 16.8992 24.6794 17.7496ZM25.3092 14.1499C25.3086 13.7056 25.1449 13.2757 24.8467 12.9358C24.6872 12.7256 24.4568 12.575 24.1946 12.5096C23.9324 12.4443 23.6547 12.4682 23.4088 12.5775C22.428 12.9839 21.737 14.4602 21.9878 15.546C22.0069 15.7164 22.0646 15.8807 22.1568 16.0275C22.249 16.1742 22.3735 16.2999 22.5216 16.3957C22.6697 16.4914 22.8378 16.555 23.0141 16.5819C23.1905 16.6088 23.3709 16.5985 23.5426 16.5515C24.061 16.3777 24.5099 16.0528 24.8266 15.6223C25.1433 15.1917 25.3121 14.677 25.3092 14.1499Z" fill="#3A3B7B"/>
<path d="M28.4783 18.1989C28.451 18.3947 28.3438 18.572 28.1802 18.6919C28.0166 18.8117 27.8101 18.8643 27.6062 18.8381C27.4022 18.8119 27.2175 18.7089 27.0926 18.5519C26.9677 18.395 26.9129 18.1968 26.9402 18.001C26.9676 17.8053 27.0748 17.6279 27.2384 17.5081C27.4019 17.3882 27.6084 17.3356 27.8124 17.3619C28.0163 17.3881 28.2011 17.491 28.326 17.648C28.4509 17.805 28.5057 18.0032 28.4783 18.1989ZM27.9935 10.9835C28.0995 10.8282 28.255 10.7098 28.4368 10.6462C28.6185 10.5826 28.8169 10.5771 29.0022 10.6305C29.1906 10.6757 29.357 10.7817 29.4737 10.9307C29.5904 11.0797 29.6501 11.2626 29.6431 11.4489C29.6185 11.7476 29.5719 12.0443 29.5038 12.3367C29.3198 13.3263 29.1415 14.3157 28.9465 15.2946C28.8573 15.685 28.7403 16.0594 28.6121 16.4552C28.5675 16.579 28.493 16.6908 28.3948 16.7815C28.3337 16.8498 28.2557 16.9021 28.1679 16.9337C28.0801 16.9654 27.9855 16.9752 27.8927 16.9624C27.7999 16.9496 27.712 16.9146 27.6371 16.8606C27.5621 16.8065 27.5027 16.7351 27.4641 16.6531C27.3978 16.5061 27.3618 16.348 27.3582 16.1878C27.3582 15.5246 27.3582 14.856 27.4028 14.1874C27.4785 13.2332 27.6275 12.2857 27.8486 11.3526C27.8746 11.2276 27.9237 11.108 27.9935 10.9996V10.9835Z" fill="#3A3B7B"/>
<path fill-rule="evenodd" clip-rule="evenodd" d="M2.99459 22.497C2.92879 22.638 2.91074 22.7952 2.9429 22.9464C2.96429 23.1458 3.01127 23.342 3.08278 23.5303C3.17205 23.761 3.27195 23.9891 3.39513 24.2702C3.42346 24.3349 3.45306 24.4025 3.48403 24.4735C3.65014 24.8544 3.85857 25.3411 4.13658 26.0456C4.21527 26.2457 4.28514 26.4475 4.35551 26.6506C4.38393 26.7327 4.41246 26.815 4.44166 26.8976C4.54633 27.191 4.72643 27.4546 4.96516 27.6635C5.06653 27.7784 5.20099 27.8621 5.35176 27.9039C5.50548 27.9466 5.66896 27.9439 5.82104 27.8961C5.97312 27.8484 6.10669 27.7578 6.20442 27.6362C6.30023 27.517 6.3572 27.3733 6.36827 27.2232C6.43043 26.9307 6.40921 26.6275 6.30677 26.3456C6.14417 25.8775 5.95896 25.4088 5.74537 24.9503L5.74439 24.9483C5.39303 24.2309 5.03587 23.5185 4.66182 22.8059L4.65902 22.8009C4.54952 22.6152 4.40721 22.4492 4.23849 22.3104C4.12896 22.1865 3.97788 22.1029 3.81103 22.0741C3.64062 22.0447 3.46488 22.0743 3.31516 22.1578C3.17353 22.2354 3.06126 22.3542 2.99459 22.497Z" fill="#3A3B7B"/>
<path fill-rule="evenodd" clip-rule="evenodd" d="M8.36111 20.7307C7.81018 20.5937 7.23481 20.5738 6.6751 20.6722C6.24158 20.7132 5.8152 20.8092 5.51913 20.9993C5.36855 21.096 5.2468 21.2203 5.17908 21.3782C5.11098 21.537 5.10229 21.7185 5.15809 21.9209C5.25998 22.2915 5.39229 22.6518 5.52413 23.0109L5.54549 23.0691L5.546 23.0704C5.94298 24.1138 6.34374 25.1537 6.74815 26.1901C6.79531 26.3534 6.862 26.5109 6.94687 26.6595L6.94846 26.6623C7.06058 26.8469 7.20439 27.012 7.37381 27.1507C7.45854 27.2269 7.56332 27.2797 7.67694 27.3033C7.79167 27.327 7.91099 27.3202 8.0219 27.2833C8.13285 27.2464 8.23109 27.1811 8.30596 27.0943C8.37961 27.0089 8.42784 26.906 8.44556 26.7966C8.51865 26.4992 8.49524 26.1874 8.3784 25.9032C8.34194 25.8075 8.31334 25.7098 8.2832 25.6069C8.27315 25.5726 8.26296 25.5376 8.25221 25.5021C9.17791 25.1548 10.1629 24.6878 10.5092 23.6014C10.6449 23.226 10.6562 22.8195 10.5416 22.4376C10.4269 22.0553 10.1916 21.7165 9.86806 21.4677C9.42776 21.1195 8.91343 20.8679 8.36111 20.7307ZM6.834 22.0632C6.85223 22.0581 6.8706 22.0534 6.88901 22.0491C7.49167 21.9582 8.10826 22.0793 8.62526 22.3902C8.8531 22.5423 8.94643 22.7112 8.96246 22.8738C8.979 23.0412 8.91558 23.2226 8.78818 23.397C8.54744 23.7264 8.10812 23.9901 7.71129 24.0392C7.42199 23.3998 7.12821 22.7344 6.834 22.0632Z" fill="#3A3B7B"/>
<path d="M12.034 19.5603C12.6901 19.2695 13.5028 19.2192 14.1388 19.4237C14.2989 19.4685 14.4379 19.5653 14.5319 19.6977C14.6252 19.8292 14.6683 19.9877 14.6539 20.1462C14.653 20.249 14.6267 20.3502 14.5772 20.4415C14.5268 20.5345 14.4539 20.6144 14.3645 20.6746C14.2751 20.7347 14.172 20.7734 14.0638 20.7872C13.9556 20.8011 13.8455 20.7897 13.7428 20.754L13.735 20.7513L13.7277 20.7476C13.6751 20.7212 13.6193 20.7014 13.5616 20.6884L13.558 20.6877C13.1106 20.5736 12.6886 20.7626 12.5345 20.9948C12.461 21.1055 12.4519 21.2172 12.5131 21.3189C12.5787 21.4278 12.7395 21.5499 13.0649 21.637C13.1544 21.6606 13.2461 21.6833 13.3392 21.7065C13.5965 21.7704 13.8639 21.8368 14.1225 21.9289L14.1235 21.9293C15.3165 22.3649 15.7607 23.2672 15.6087 24.1158C15.4582 24.9551 14.728 25.7188 13.6298 25.899C13.2302 25.984 12.8143 25.9674 12.4234 25.851C12.0315 25.7341 11.6782 25.5209 11.3987 25.2324L11.3914 25.2249C11.3031 25.1162 11.2438 24.9886 11.2175 24.8531C11.1933 24.7308 11.206 24.6045 11.2542 24.4889C11.302 24.374 11.383 24.2746 11.4874 24.2022C11.5978 24.1201 11.7308 24.0708 11.87 24.0605C12.0088 24.0503 12.1476 24.0792 12.2695 24.1437C12.3912 24.2002 12.5043 24.2721 12.606 24.3577L12.6079 24.3593C12.7876 24.5171 13.0051 24.5582 13.2136 24.5201C13.4252 24.4815 13.6241 24.3613 13.7521 24.2019C13.8792 24.0435 13.9303 23.8553 13.8697 23.6726C13.8088 23.4886 13.6255 23.2824 13.2229 23.1101C13.1176 23.0672 13.0085 23.0326 12.895 22.9989C12.8644 22.9898 12.8332 22.9808 12.8017 22.9716C12.7178 22.9472 12.6314 22.922 12.5467 22.8942C12.4884 22.8751 12.4306 22.8571 12.3733 22.8391C12.2166 22.7902 12.064 22.7425 11.917 22.6785C11.5972 22.5739 11.3209 22.3733 11.1292 22.1061C10.9368 21.8379 10.8399 21.5172 10.8531 21.1918C10.8541 20.399 11.3745 19.8527 12.034 19.5603Z" fill="#3A3B7B"/>
<path d="M20.3518 19.4758C20.2246 19.4161 20.0839 19.3878 19.9425 19.3934C19.801 19.399 19.6633 19.4383 19.5416 19.5078C19.4207 19.5768 19.3195 19.6734 19.2469 19.789C19.1804 19.8864 19.1344 19.9953 19.1115 20.1097C19.0885 20.224 19.0891 20.3414 19.113 20.4554C19.1367 20.602 19.163 20.7445 19.1889 20.885C19.2319 21.1175 19.2737 21.3449 19.3013 21.5766L19.3023 21.5825C19.365 21.946 19.3979 22.3136 19.4008 22.682L19.4011 22.6872C19.4226 23.0851 19.2813 23.4752 19.0077 23.7748L19.0034 23.7801C18.9143 23.8896 18.7953 23.9732 18.6595 24.0215C18.5238 24.0698 18.3768 24.0809 18.2348 24.0536C18.0929 24.0262 17.9617 23.9615 17.8559 23.8667C17.7501 23.7719 17.6738 23.6503 17.6357 23.5163C17.5543 23.2338 17.5073 22.9433 17.4953 22.6505L17.6342 20.5281C17.6363 20.5004 17.6386 20.4719 17.641 20.4432C17.6463 20.3787 17.6517 20.3131 17.6539 20.2518C17.6572 20.1617 17.6544 20.0691 17.6325 19.9813C17.6102 19.8917 17.5676 19.8064 17.4921 19.7338C17.4173 19.6619 17.3163 19.6089 17.1893 19.5728C16.9596 19.5089 16.7654 19.511 16.6035 19.5769C16.4416 19.6428 16.3306 19.7652 16.2521 19.9066C16.1742 20.0468 16.1241 20.2128 16.0863 20.3791C16.0582 20.5024 16.0356 20.6319 16.0142 20.7552C16.0067 20.7977 15.9995 20.8394 15.9922 20.8799L15.992 20.8811C15.8772 21.5571 15.843 22.2436 15.8901 22.927C15.8989 23.2964 15.9792 23.661 16.1268 24.0022C16.2935 24.4424 16.5952 24.8238 16.9923 25.0961C17.3903 25.3689 17.8652 25.5193 18.3541 25.5272C18.8431 25.5352 19.323 25.4003 19.7304 25.1406C20.1371 24.8813 20.4523 24.5096 20.6343 24.0747C20.8888 23.5207 21.0084 22.9183 20.9837 22.3132C20.9687 21.8715 20.9437 21.4264 20.9188 20.9836C20.9065 20.7664 20.8943 20.5496 20.8834 20.3341C20.8779 20.1181 20.8037 19.9089 20.6707 19.7345C20.5884 19.6242 20.4788 19.5353 20.3518 19.4758Z" fill="#3A3B7B"/>
<path d="M24.8545 22.8037C24.8416 22.8195 24.828 22.8358 24.8138 22.8527C24.7103 22.2798 24.6144 21.707 24.5183 21.1334C24.4839 20.9276 24.4493 20.721 24.4144 20.5149L24.4105 20.4919L24.3978 20.472C24.3738 20.4346 24.3714 20.398 24.3714 20.3198V20.3108L24.37 20.3018C24.344 20.1404 24.2679 19.9901 24.1517 19.8708C24.0358 19.7517 23.8852 19.6689 23.7197 19.6329C23.5544 19.5938 23.3806 19.6024 23.2204 19.6577C23.0605 19.7129 22.9212 19.8121 22.8198 19.9428C22.7355 20.0432 22.6664 20.1545 22.6146 20.2734C22.497 20.5296 22.3785 20.7864 22.2596 21.0439L22.2575 21.0483C21.9607 21.6912 21.6619 22.3384 21.3717 22.9907L21.3708 22.9928C21.1927 23.4157 21.0457 23.8614 20.8992 24.3057C20.8699 24.3944 20.8407 24.483 20.8112 24.5714C20.7583 24.7116 20.7351 24.8605 20.7431 25.0094C20.7335 25.1427 20.7667 25.2756 20.8384 25.3903C20.9115 25.5072 21.021 25.5993 21.1514 25.6535C21.2897 25.7116 21.4442 25.724 21.5906 25.6886C21.7367 25.6532 21.8665 25.5723 21.9594 25.4585C22.0781 25.3183 22.1803 25.1655 22.2635 25.0035C22.5093 24.521 22.7442 24.0326 22.978 23.5463C23.0685 23.3582 23.1564 23.1897 23.2565 23.0062C23.2633 23.0289 23.2703 23.0509 23.2776 23.073C23.3824 23.516 23.5594 23.9403 23.8019 24.3303C23.8478 24.4129 23.9117 24.4851 23.9893 24.542C24.0678 24.5995 24.1584 24.6399 24.2548 24.6604C24.3513 24.6809 24.4512 24.681 24.5476 24.6607C24.644 24.6404 24.7349 24.6 24.8134 24.5427L24.9689 24.431L26.1758 23.4553L26.1044 23.8919C26.0065 24.4919 25.9092 25.0869 25.806 25.6821C25.7384 25.9459 25.7385 26.2214 25.8062 26.4851C25.8356 26.6335 25.9104 26.7702 26.021 26.8776C26.1326 26.9859 26.2756 27.0595 26.4313 27.0889C26.587 27.1182 26.7483 27.1019 26.8943 27.0422C27.0382 26.9833 27.1605 26.8849 27.246 26.7594C27.445 26.5224 27.5689 26.2355 27.6029 25.9329C27.6541 25.5055 27.712 25.0723 27.7699 24.6392C27.8366 24.14 27.9033 23.641 27.9596 23.1515L27.9598 23.15C28.014 22.6142 28.0402 22.0762 28.0384 21.5379C28.0503 21.3677 28.0062 21.1983 27.9121 21.0534C27.8178 20.9081 27.678 20.7951 27.5129 20.7305C27.3411 20.6555 27.1487 20.6354 26.9642 20.6733C26.7808 20.711 26.6149 20.8037 26.4904 20.9381C26.2678 21.1357 26.0589 21.3471 25.8652 21.5711L25.8639 21.5726C25.6524 21.8255 25.4424 22.0834 25.2337 22.3396C25.1068 22.4954 24.9803 22.6507 24.8545 22.8037Z" fill="#3A3B7B"/>
</g>
<defs>
<clipPath id="clip0_211_2521">
<rect width="32.7153" height="20.186" fill="white" transform="translate(-0.00732422 7.74808)"/>
</clipPath>
</defs>
</svg>
