<svg width="42" height="43" viewBox="0 0 42 43" fill="none" xmlns="http://www.w3.org/2000/svg">
<g filter="url(#filter0_d_211_2514)">
<rect x="4.09229" y="0.894043" width="33.4113" height="33.4113" rx="5.56856" fill="#F5F7FA" shape-rendering="crispEdges"/>
<g clip-path="url(#clip0_211_2514)">
<path fill-rule="evenodd" clip-rule="evenodd" d="M11.1212 10.6121L4.17041 17.493C5.5607 18.8694 7.14888 20.0293 8.88046 20.9368C9.35908 22.1936 10.1093 23.3723 11.1311 24.3838C14.9754 28.1894 21.2082 28.1894 25.0525 24.3838C26.0743 23.3723 26.8245 22.1936 27.3032 20.9367C29.0347 20.0293 30.6229 18.8694 32.0132 17.493L25.068 10.6177C25.0629 10.6126 25.0577 10.6074 25.0525 10.6023C21.2082 6.79667 14.9754 6.79667 11.1311 10.6023C11.1278 10.6056 11.1245 10.6089 11.1212 10.6121ZM24.3874 22.1782C22.3618 22.8549 20.2355 23.2015 18.0918 23.2015C15.9481 23.2015 13.8218 22.8549 11.7963 22.1782C12.0157 22.4665 12.258 22.7431 12.5232 23.0056C15.5987 26.0502 20.5849 26.0502 23.6604 23.0056C23.9256 22.7431 24.1679 22.4665 24.3874 22.1782ZM12.666 11.8426C13.1883 12.1842 13.7436 12.4765 14.3247 12.7148C15.519 13.2045 16.7991 13.4566 18.0918 13.4566C19.3845 13.4566 20.6646 13.2045 21.8589 12.7148C22.44 12.4765 22.9953 12.1842 23.5177 11.8426C20.4806 8.98188 15.703 8.98189 12.666 11.8426Z" fill="#3B4158"/>
</g>
</g>
<defs>
<filter id="filter0_d_211_2514" x="0.0922852" y="0.894043" width="41.4114" height="41.4113" filterUnits="userSpaceOnUse" color-interpolation-filters="sRGB">
<feFlood flood-opacity="0" result="BackgroundImageFix"/>
<feColorMatrix in="SourceAlpha" type="matrix" values="0 0 0 0 0 0 0 0 0 0 0 0 0 0 0 0 0 0 127 0" result="hardAlpha"/>
<feOffset dy="4"/>
<feGaussianBlur stdDeviation="2"/>
<feComposite in2="hardAlpha" operator="out"/>
<feColorMatrix type="matrix" values="0 0 0 0 0 0 0 0 0 0 0 0 0 0 0 0 0 0 0.25 0"/>
<feBlend mode="normal" in2="BackgroundImageFix" result="effect1_dropShadow_211_2514"/>
<feBlend mode="normal" in="SourceGraphic" in2="effect1_dropShadow_211_2514" result="shape"/>
</filter>
<clipPath id="clip0_211_2514">
<rect width="27.8428" height="19.4899" fill="white" transform="translate(4.17041 7.74808)"/>
</clipPath>
</defs>
</svg>
