<svg width="42" height="43" viewBox="0 0 42 43" fill="none" xmlns="http://www.w3.org/2000/svg">
<g filter="url(#filter0_d_211_2511)">
<rect x="4.14209" y="0.894073" width="33.4113" height="33.4113" rx="5.56856" fill="#E8F5E9" shape-rendering="crispEdges"/>
<g clip-path="url(#clip0_211_2511)">
<path fill-rule="evenodd" clip-rule="evenodd" d="M11.3488 1.02942C15.193 1.02942 18.3095 4.14583 18.3095 7.99011V1.02942H25.2701C29.1144 1.02942 32.2308 4.14583 32.2308 7.99011C32.2308 11.8344 29.1144 14.9508 25.2701 14.9508C29.1144 14.9508 32.2308 18.0673 32.2308 21.9115C32.2308 23.8203 31.4625 25.5497 30.2182 26.8072L30.1921 26.8335L30.169 26.8564C28.9112 28.1026 27.1806 28.8722 25.2701 28.8722C23.3727 28.8722 21.6526 28.113 20.397 26.8818C20.3807 26.8658 20.3644 26.8496 20.3482 26.8335C20.3329 26.8182 20.3178 26.8029 20.3026 26.7875C19.0698 25.5317 18.3095 23.8104 18.3095 21.9115C18.3095 25.7558 15.193 28.8722 11.3488 28.8722C7.50447 28.8722 4.38806 25.7558 4.38806 21.9115V14.9508H11.3488C7.50447 14.9508 4.38806 11.8344 4.38806 7.99011C4.38806 4.14583 7.50447 1.02942 11.3488 1.02942ZM16.9173 7.99011C16.9173 11.0656 14.4242 13.5587 11.3488 13.5587V2.42156C14.4242 2.42156 16.9173 4.91468 16.9173 7.99011ZM30.8387 21.9115C30.8387 18.8361 28.3456 16.3429 25.2701 16.3429C22.1947 16.3429 19.7016 18.8361 19.7016 21.9115H30.8387ZM5.7802 16.3429V21.9115C5.7802 24.9869 8.27333 27.4801 11.3488 27.4801C14.4242 27.4801 16.9173 24.9869 16.9173 21.9115V16.3429H5.7802ZM19.7016 13.5587V2.42156H25.2701C28.3456 2.42156 30.8387 4.91468 30.8387 7.99011C30.8387 11.0656 28.3456 13.5587 25.2701 13.5587H19.7016Z" fill="#5417D7"/>
</g>
</g>
<defs>
<filter id="filter0_d_211_2511" x="0.14209" y="0.894073" width="41.4114" height="41.4113" filterUnits="userSpaceOnUse" color-interpolation-filters="sRGB">
<feFlood flood-opacity="0" result="BackgroundImageFix"/>
<feColorMatrix in="SourceAlpha" type="matrix" values="0 0 0 0 0 0 0 0 0 0 0 0 0 0 0 0 0 0 127 0" result="hardAlpha"/>
<feOffset dy="4"/>
<feGaussianBlur stdDeviation="2"/>
<feComposite in2="hardAlpha" operator="out"/>
<feColorMatrix type="matrix" values="0 0 0 0 0 0 0 0 0 0 0 0 0 0 0 0 0 0 0.25 0"/>
<feBlend mode="normal" in2="BackgroundImageFix" result="effect1_dropShadow_211_2511"/>
<feBlend mode="normal" in="SourceGraphic" in2="effect1_dropShadow_211_2511" result="shape"/>
</filter>
<clipPath id="clip0_211_2511">
<rect width="27.8428" height="27.8428" fill="white" transform="translate(4.38806 1.02942)"/>
</clipPath>
</defs>
</svg>
