<svg width="35" height="35" viewBox="0 0 35 35" fill="none" xmlns="http://www.w3.org/2000/svg">
<rect x="0.942871" y="0.894043" width="33.4113" height="33.4113" rx="5.56856" fill="#F5F7FA"/>
<g clip-path="url(#clip0_211_2537)">
<path d="M27.6981 9.03146C27.6981 9.35582 27.9643 9.61877 28.2927 9.61877H28.8872C29.2156 9.61877 29.4818 9.35582 29.4818 9.03146C29.4818 8.7071 29.2156 8.44415 28.8872 8.44415H28.2927C27.9643 8.44415 27.6981 8.7071 27.6981 9.03146Z" fill="#212326"/>
<path d="M10.4558 27.238H13.3441L12.5032 26.4074C12.2803 26.1872 11.9778 26.0634 11.6624 26.0634H10.4558C5.85869 26.0634 2.13199 22.3822 2.13199 17.8411C2.13199 13.3 5.85869 9.61877 10.4558 9.61877H19.9688C24.5659 9.61877 28.2926 13.3 28.2926 17.8411C28.2926 22.3822 24.5659 26.0634 19.9688 26.0634H16.4102C15.9371 26.0634 15.4834 25.8778 15.1489 25.5474L14.1638 24.5743C13.6063 24.0236 12.8501 23.7142 12.0617 23.7142H10.4558C7.17214 23.7142 4.51023 21.0847 4.51023 17.8411C4.51023 14.5975 7.17214 11.968 10.4558 11.968H19.9688C23.2525 11.968 25.9144 14.5975 25.9144 17.8411C25.9144 21.0847 23.2525 23.7142 19.9688 23.7142H17.6838C17.2107 23.7142 16.7571 23.5285 16.4225 23.1981L15.4374 22.225C14.8799 21.6743 14.1238 21.3649 13.3353 21.3649H10.4558C8.48564 21.3649 6.88846 19.7872 6.88846 17.8411C6.88846 15.8949 8.48564 14.3172 10.4558 14.3172H19.9688C21.9389 14.3172 23.5361 15.8949 23.5361 17.8411C23.5361 19.7635 21.9777 21.3264 20.0407 21.3642L20.0403 21.3649H19.1702C18.6971 21.3649 18.2435 21.1793 17.9089 20.8489L16.9238 19.8758C16.4664 19.4239 15.8752 19.1345 15.2422 19.0452L15.2123 19.0157H10.4558C9.79909 19.0157 9.2667 18.4898 9.2667 17.8411C9.2667 17.1924 9.79909 16.6665 10.4558 16.6665H19.9688C20.6255 16.6665 21.1579 17.1924 21.1579 17.8411C21.1579 18.4898 20.6255 19.0157 19.9688 19.0157H17.5905L18.4314 19.8463C18.6544 20.0666 18.9568 20.1903 19.2722 20.1903H19.9688C21.2822 20.1903 22.347 19.1385 22.347 17.8411C22.347 16.5437 21.2822 15.4919 19.9688 15.4919H10.4558C9.14237 15.4919 8.07758 16.5437 8.07758 17.8411C8.07758 19.1385 9.14237 20.1903 10.4558 20.1903H14.8217C15.2948 20.1903 15.7485 20.376 16.083 20.7064L17.0681 21.6795C17.6256 22.2302 18.3818 22.5396 19.1702 22.5396H20.2661V22.5305C22.7545 22.379 24.7252 20.3373 24.7252 17.8411C24.7252 15.2462 22.5957 13.1426 19.9688 13.1426H10.4558C7.82891 13.1426 5.69935 15.2462 5.69935 17.8411C5.69935 20.436 7.82891 22.5396 10.4558 22.5396H13.3353C13.8084 22.5396 14.2621 22.7252 14.5966 23.0556L15.5817 24.0287C16.1392 24.5794 16.8954 24.8888 17.6838 24.8888H19.9688C23.9092 24.8888 27.1035 21.7334 27.1035 17.8411C27.1035 13.9487 23.9092 10.7934 19.9688 10.7934H10.4558C6.51541 10.7934 3.32111 13.9487 3.32111 17.8411C3.32111 21.7334 6.51541 24.8888 10.4558 24.8888H12.0617C12.5348 24.8888 12.9885 25.0744 13.323 25.4048L14.3081 26.3779C14.8656 26.9286 15.6217 27.238 16.4102 27.238H19.9688C25.2226 27.238 29.4817 23.0309 29.4817 17.8411C29.4817 12.6513 25.2226 8.44415 19.9688 8.44415L10.4558 8.44415C5.20196 8.44416 0.942871 12.6513 0.942871 17.8411C0.942872 23.0309 5.20197 27.238 10.4558 27.238Z" fill="#212326"/>
</g>
<defs>
<clipPath id="clip0_211_2537">
<rect width="28.5388" height="18.7939" fill="white" transform="translate(0.942871 8.44415)"/>
</clipPath>
</defs>
</svg>
