<svg width="309" height="302" viewBox="0 0 309 302" fill="none" xmlns="http://www.w3.org/2000/svg">
<path d="M262.909 301.778C262.909 301.879 212.953 301.965 151.351 301.965C89.7479 301.965 39.7708 301.879 39.7708 301.778C39.7708 301.677 89.7191 301.591 151.351 301.591C212.982 301.591 262.909 301.684 262.909 301.778Z" fill="#263238"/>
<path d="M214.234 213.708C203.119 205.946 200.601 191.536 201.04 178.58C201.112 176.421 200.875 174.134 201.903 172.242C202.932 170.35 205.335 169.047 207.27 169.954C208.874 170.709 209.572 172.58 210.471 174.126C211.671 176.187 213.43 177.865 215.543 178.968C216.917 179.687 218.622 180.119 219.982 179.371C221.852 178.342 222.068 175.774 222.054 173.616C222.054 169.601 222.03 165.592 221.982 161.587C221.853 159.437 222.071 157.28 222.629 155.199C223.298 153.156 224.788 151.264 226.824 150.688C228.859 150.113 231.399 151.3 231.859 153.4C231.939 154.29 231.96 155.184 231.924 156.076C231.982 156.976 232.399 157.961 233.241 158.235C234.082 158.508 234.96 157.882 235.608 157.249C237.823 155.091 239.334 152.278 240.737 149.501C242.14 146.724 243.514 143.868 245.528 141.501C247.542 139.134 250.327 137.257 253.442 137.077C256.557 136.897 259.801 138.811 260.578 141.832C261.355 144.854 259.593 147.94 257.7 150.393C254.845 154.035 251.48 157.245 247.708 159.925C246.972 160.327 246.384 160.955 246.032 161.717C245.564 163.155 246.924 164.594 248.341 165.047C249.945 165.58 251.686 165.414 253.377 165.616C255.067 165.817 256.866 166.551 257.506 168.134C258.384 170.335 256.542 172.637 254.737 174.148C251.111 177.169 246.994 179.547 242.564 181.177C240.981 181.752 239.32 182.263 238.039 183.371C236.759 184.479 235.996 186.414 236.766 187.932C237.536 189.45 239.514 189.932 241.176 189.622C242.838 189.313 244.312 188.421 245.895 187.824C248.852 186.709 252.665 186.91 254.528 189.464C255.105 190.344 255.471 191.345 255.595 192.39C255.72 193.435 255.601 194.495 255.247 195.486C254.527 197.458 253.419 199.265 251.988 200.802C247.277 206.432 241.154 210.709 234.248 213.197C227.392 215.571 221.04 216.219 214.227 213.723" fill="#4CAF4F"/>
<path d="M257.413 138.854C257.413 138.854 257.348 138.926 257.204 139.055L256.564 139.624C256.003 140.127 255.175 140.861 254.132 141.832C251.175 144.578 248.428 147.543 245.917 150.703C244.312 152.695 242.651 154.954 240.881 157.407C239.111 159.861 237.284 162.508 235.471 165.321C233.538 168.287 231.768 171.356 230.169 174.515C229.334 176.162 228.601 177.882 227.845 179.637L225.615 184.997C222.675 191.748 220.115 198.657 217.946 205.694C216.199 211.451 214.995 217.359 214.349 223.341C213.931 227.378 213.863 231.443 214.148 235.492C214.263 236.931 214.371 238.031 214.471 238.779C214.515 239.139 214.543 239.427 214.572 239.635V239.93C214.541 239.837 214.519 239.741 214.507 239.643C214.471 239.434 214.428 239.153 214.371 238.794C214.241 238.074 214.105 236.938 213.975 235.499C213.628 231.443 213.652 227.364 214.047 223.312C214.653 217.305 215.831 211.369 217.565 205.586C219.716 198.53 222.269 191.602 225.212 184.838L227.5 179.5C228.255 177.752 228.996 176.018 229.838 174.364C231.448 171.196 233.233 168.119 235.183 165.148C237.025 162.271 238.881 159.666 240.629 157.235C242.377 154.803 244.068 152.53 245.665 150.544C248.202 147.394 250.985 144.449 253.988 141.739C255.053 140.782 255.902 140.062 256.478 139.58L257.147 139.041C257.229 138.97 257.318 138.907 257.413 138.854Z" fill="#263238"/>
<path d="M229.931 174.349C229.83 174.053 229.76 173.747 229.723 173.436C229.608 172.839 229.478 171.997 229.327 170.903C229.018 168.745 228.701 165.788 228.363 162.515C228.025 159.242 227.644 156.278 227.327 154.141C227.162 153.077 227.018 152.221 226.917 151.623C226.838 151.318 226.797 151.004 226.795 150.688C226.919 150.976 227.008 151.278 227.061 151.587C227.219 152.177 227.399 153.026 227.601 154.098C228.011 156.256 228.413 159.192 228.752 162.472C229.09 165.753 229.377 168.63 229.6 170.868C229.708 171.875 229.802 172.731 229.874 173.414C229.93 173.723 229.949 174.037 229.931 174.349Z" fill="#263238"/>
<path d="M257.614 169.184C257.264 169.26 256.908 169.304 256.549 169.314C255.83 169.378 254.808 169.465 253.542 169.609C251.01 169.882 247.528 170.385 243.708 171.105C239.888 171.824 236.456 172.637 233.989 173.263C232.759 173.58 231.766 173.867 231.111 174.062C230.762 174.186 230.4 174.273 230.032 174.321C230.365 174.153 230.711 174.016 231.068 173.911C231.744 173.673 232.723 173.342 233.946 172.99C236.399 172.27 239.83 171.414 243.665 170.68C246.913 170.059 250.19 169.603 253.485 169.314C254.758 169.206 255.787 169.163 256.506 169.148C256.876 169.123 257.247 169.135 257.614 169.184Z" fill="#263238"/>
<path d="M217.917 205.082C217.841 204.978 217.778 204.865 217.73 204.744L217.255 203.744C216.845 202.874 216.291 201.586 215.63 200.011C214.292 196.845 212.587 192.414 210.774 187.493C208.961 182.572 207.292 178.141 206.026 174.939C205.407 173.385 204.896 172.112 204.515 171.162L204.112 170.134C204.056 170.015 204.017 169.889 203.997 169.76C204.074 169.864 204.136 169.977 204.184 170.098L204.659 171.098C205.062 171.968 205.623 173.256 206.285 174.831C207.623 177.997 209.328 182.428 211.141 187.349C212.953 192.27 214.622 196.701 215.889 199.903C216.507 201.457 217.018 202.73 217.392 203.68C217.558 204.09 217.694 204.399 217.802 204.708C217.858 204.827 217.897 204.953 217.917 205.082Z" fill="#263238"/>
<path d="M254.665 193.234C254.549 193.3 254.426 193.351 254.298 193.385L253.233 193.745L249.298 195.018C245.974 196.097 241.384 197.637 236.349 199.334C231.313 201.032 226.701 202.543 223.356 203.55C221.687 204.061 220.327 204.449 219.385 204.708L218.299 204.989C218.172 205.029 218.042 205.056 217.91 205.068C218.025 205.002 218.149 204.951 218.277 204.917L219.342 204.557L223.277 203.284C226.601 202.205 231.19 200.665 236.226 198.967C241.262 197.27 245.866 195.759 249.212 194.752C250.888 194.241 252.24 193.853 253.19 193.594L254.276 193.313C254.402 193.273 254.533 193.246 254.665 193.234Z" fill="#263238"/>
<path d="M239.672 18.7274L235.967 20.0512L234.377 15.2096C231.457 6.28172 222.147 1.54083 213.594 4.55515C205.04 7.56946 200.486 17.3606 203.407 26.2884L204.997 31.13L201.278 32.4609C199.859 33.011 198.708 34.0865 198.062 35.4638C197.416 36.8411 197.326 38.4143 197.81 39.8564L208.119 71.3592C208.333 72.0731 208.688 72.7367 209.164 73.3105C209.639 73.8844 210.225 74.3568 210.887 74.6997C211.549 75.0427 212.273 75.2491 213.016 75.3067C213.759 75.3644 214.506 75.2721 215.212 75.0354L253.607 61.3019C255.044 60.7528 256.212 59.6678 256.866 58.2751C257.519 56.8824 257.607 55.2906 257.111 53.8345L246.794 22.3317C246.575 21.6198 246.214 20.9594 245.734 20.39C245.253 19.8206 244.663 19.3537 243.999 19.0173C243.334 18.681 242.608 18.4819 241.865 18.4321C241.122 18.3823 240.376 18.4828 239.672 18.7274ZM210.407 23.7633C209.619 21.4419 209.761 18.9058 210.801 16.6864C211.842 14.4669 213.701 12.7363 215.989 11.8571C217.119 11.4705 218.315 11.3155 219.507 11.4013C220.698 11.4871 221.859 11.8119 222.922 12.3564C223.985 12.901 224.927 13.654 225.693 14.5706C226.458 15.4872 227.031 16.5486 227.378 17.6915L228.96 22.5331L211.989 28.6049L210.407 23.7633ZM231.989 51.7194L234.622 59.7624C234.67 59.9236 234.655 60.0974 234.578 60.2474C234.502 60.3974 234.371 60.5123 234.212 60.5681L230.521 61.8846C230.375 61.9254 230.218 61.9076 230.083 61.8352C229.949 61.7628 229.848 61.6413 229.802 61.4961L227.147 53.4892C225.684 53.4094 224.279 52.8844 223.122 51.9844C221.965 51.0844 221.11 49.8524 220.673 48.4533C220.047 46.6037 220.161 44.5837 220.991 42.8163C221.821 41.0489 223.303 39.6712 225.126 38.9715C226.026 38.664 226.979 38.5408 227.927 38.6094C228.876 38.6779 229.801 38.9367 230.648 39.3704C231.494 39.8041 232.245 40.4037 232.855 41.1336C233.465 41.8635 233.921 42.7088 234.198 43.6189C234.66 45.0401 234.699 46.5655 234.308 48.0081C233.917 49.4508 233.113 50.748 231.996 51.741L231.989 51.7194Z" fill="#4CAF4F"/>
<path d="M235.802 19.9648C235.802 20.0656 228.932 22.6482 220.385 25.7201C211.838 28.792 204.867 31.2595 204.831 31.1876C204.795 31.1156 211.702 28.5114 220.256 25.4323C228.809 22.3533 235.766 19.8713 235.802 19.9648Z" fill="#263238"/>
<path d="M243.96 21.2885C243.992 21.3509 244.018 21.4159 244.039 21.4828C244.097 21.6266 244.161 21.8137 244.248 22.0439C244.435 22.5691 244.694 23.2957 245.017 24.2021L247.78 32.2451C248.931 35.6551 250.305 39.6981 251.83 44.1872C252.55 46.439 253.399 48.7842 254.19 51.2518C254.613 52.5234 254.796 53.8627 254.729 55.2013C254.668 55.8975 254.47 56.5747 254.147 57.1941C253.801 57.8114 253.339 58.3561 252.787 58.7984C251.676 59.6097 250.442 60.2387 249.132 60.6616L245.428 61.9925L238.413 64.5032L226.536 68.7334L218.515 71.5534L216.356 72.2728L215.781 72.4599C215.719 72.4872 215.654 72.5043 215.587 72.5102C215.587 72.5102 215.644 72.5102 215.766 72.4239L216.328 72.2009L218.486 71.388L226.464 68.4528L238.32 64.1363L245.32 61.604L249.025 60.2659C250.297 59.8602 251.495 59.2503 252.571 58.4602C253.085 58.0499 253.515 57.5442 253.837 56.9711C254.142 56.3983 254.326 55.7689 254.377 55.1222C254.443 53.8324 254.267 52.5417 253.859 51.3165C253.082 48.8706 252.262 46.5037 251.521 44.252C250.025 39.7557 248.643 35.6982 247.55 32.2882C246.456 28.8782 245.535 26.1373 244.902 24.2093C244.6 23.2669 244.37 22.5331 244.183 22.0007L244.01 21.4252C243.989 21.3816 243.972 21.3358 243.96 21.2885Z" fill="#263238"/>
<path d="M223.701 11.368C223.701 11.368 223.32 11.181 222.615 10.8932C221.61 10.5071 220.547 10.293 219.471 10.2601C217.876 10.2054 216.289 10.5052 214.824 11.1378C213.042 11.9255 211.519 13.1997 210.428 14.814C209.331 16.4236 208.742 18.3259 208.738 20.2742C208.753 21.8711 208.995 23.4577 209.457 24.9864C209.831 26.2957 210.22 27.3388 210.479 28.0654C210.632 28.4345 210.757 28.8144 210.853 29.2021C210.649 28.857 210.477 28.4933 210.342 28.1158C210.047 27.3964 209.623 26.3748 209.205 25.0583C208.693 23.5136 208.414 21.9012 208.378 20.2742C208.359 18.2523 208.962 16.2733 210.105 14.6053C211.233 12.9321 212.819 11.6185 214.673 10.8212C216.184 10.1852 217.821 9.90459 219.457 10.0011C220.556 10.0572 221.636 10.3131 222.644 10.7565C222.913 10.8808 223.173 11.0251 223.421 11.1881C223.523 11.2331 223.618 11.2938 223.701 11.368Z" fill="#263238"/>
<path d="M224.032 39.5183C224.147 39.4487 224.268 39.3886 224.392 39.3384C224.752 39.1759 225.125 39.0436 225.507 38.9428C226.114 38.7638 226.739 38.6575 227.37 38.6262C228.229 38.5801 229.089 38.7098 229.896 39.0075C231.737 39.655 233.428 41.5326 234.262 44.0434C234.663 45.3907 234.663 46.8254 234.262 48.1728C233.819 49.6351 233.023 50.9665 231.946 52.0504L231.989 51.8561C232.946 54.4819 233.989 57.3308 235.068 60.3019L235.133 60.4818L234.953 60.5465L233.306 61.0933L229.709 62.2947L229.529 62.3522L229.471 62.1724C228.485 59.1941 227.406 56.4171 226.593 53.6906L226.752 53.8129C225.345 53.6961 224.004 53.1682 222.896 52.2949C221.893 51.5224 221.07 50.5404 220.486 49.4173C219.958 48.4214 219.696 47.3066 219.723 46.18C219.756 45.0285 220.044 43.8987 220.565 42.8714C221.086 41.8441 221.828 40.9447 222.737 40.2377C223.112 39.9338 223.532 39.691 223.982 39.5183C223.576 39.7594 223.182 40.0211 222.802 40.3024C221.803 41.1476 221.038 42.2351 220.579 43.4606C220.186 44.3848 220.002 45.3847 220.04 46.3884C220.079 47.3922 220.339 48.375 220.802 49.2662C221.377 50.3466 222.18 51.2892 223.155 52.0288C224.212 52.8588 225.491 53.3592 226.831 53.4676H226.953L226.989 53.5755C227.78 56.2517 228.867 59.0502 229.867 62.0429L229.629 61.9278L233.226 60.7264L234.867 60.1724L234.752 60.417C233.68 57.4459 232.644 54.5899 231.694 51.964V51.8561L231.78 51.7698C232.826 50.7309 233.606 49.455 234.054 48.0505C234.435 46.7616 234.435 45.3898 234.054 44.1009C233.27 41.6837 231.651 39.8492 229.896 39.2018C229.119 38.9021 228.289 38.7627 227.457 38.7917C226.835 38.8059 226.218 38.8904 225.615 39.0435C224.543 39.3097 224.04 39.5543 224.032 39.5183Z" fill="#263238"/>
<path d="M201.795 247.24L129.934 246.909C125.784 246.886 121.813 245.217 118.892 242.268C115.972 239.32 114.342 235.332 114.359 231.182L115.121 51.036C115.13 48.9799 115.543 46.9457 116.339 45.0497C117.134 43.1536 118.295 41.4328 119.755 39.9856C121.216 38.5385 122.947 37.3934 124.85 36.6157C126.754 35.8381 128.792 35.4432 130.848 35.4536L202.702 35.7846C206.852 35.8055 210.824 37.4727 213.745 40.42C216.667 43.3672 218.299 47.3536 218.284 51.5036L217.522 231.643C217.513 233.7 217.1 235.734 216.305 237.631C215.51 239.528 214.349 241.25 212.889 242.698C211.428 244.147 209.697 245.293 207.794 246.072C205.89 246.851 203.852 247.248 201.795 247.24Z" fill="#455A64"/>
<path d="M202.594 41.9787H188.666C188.212 41.9871 187.763 42.085 187.347 42.2667C186.93 42.4484 186.554 42.7104 186.238 43.0378C185.923 43.3651 185.675 43.7514 185.509 44.1745C185.343 44.5976 185.262 45.0493 185.271 45.5038V48.0289C185.279 48.483 185.198 48.9343 185.032 49.357C184.866 49.7797 184.618 50.1655 184.303 50.4923C183.987 50.8191 183.61 51.0804 183.194 51.2613C182.777 51.4423 182.329 51.5393 181.875 51.5468L154.725 51.4245C153.806 51.4 152.935 51.012 152.302 50.3456C151.67 49.6793 151.327 48.7891 151.351 47.8706V45.3455C151.374 44.4282 151.033 43.5391 150.401 42.873C149.77 42.2068 148.901 41.818 147.984 41.7916H143.085L130.891 41.7341C127.99 41.7168 125.201 42.8495 123.134 44.8842C121.067 46.9188 119.891 49.6896 119.862 52.5899L119.143 228.427C119.136 229.866 119.413 231.292 119.958 232.624C120.502 233.956 121.304 235.167 122.316 236.189C123.329 237.212 124.533 238.024 125.86 238.581C127.187 239.138 128.61 239.428 130.049 239.434L201.759 239.765C203.199 239.772 204.626 239.495 205.959 238.95C207.292 238.405 208.504 237.603 209.527 236.589C210.55 235.576 211.363 234.371 211.92 233.043C212.477 231.716 212.767 230.291 212.774 228.852L213.493 53.0144C213.51 50.1059 212.372 47.3096 210.328 45.2402C208.284 43.1709 205.502 41.9977 202.594 41.9787Z" fill="white"/>
<path d="M192.947 216.305L139.624 216.075C139.07 216.075 138.624 215.471 138.632 214.737L138.689 200.788C138.689 200.068 139.142 199.449 139.696 199.449L193.019 199.694C193.326 199.747 193.6 199.917 193.785 200.167C193.97 200.418 194.051 200.73 194.011 201.039L193.961 214.974C193.961 215.715 193.501 216.312 192.947 216.305Z" fill="#4CAF4F"/>
<path d="M155.836 209.628C155.542 209.628 155.259 209.581 154.987 209.486C154.719 209.388 154.512 209.264 154.365 209.113L154.529 208.79C154.669 208.926 154.855 209.041 155.089 209.136C155.327 209.226 155.576 209.271 155.836 209.271C156.085 209.271 156.287 209.241 156.442 209.181C156.6 209.117 156.716 209.032 156.787 208.926C156.863 208.82 156.9 208.703 156.9 208.575C156.9 208.42 156.855 208.296 156.765 208.202C156.678 208.107 156.563 208.034 156.419 207.981C156.276 207.924 156.117 207.875 155.944 207.834C155.77 207.792 155.597 207.749 155.423 207.704C155.25 207.655 155.089 207.59 154.942 207.511C154.799 207.432 154.682 207.328 154.591 207.2C154.504 207.068 154.461 206.896 154.461 206.685C154.461 206.489 154.512 206.309 154.614 206.147C154.719 205.981 154.88 205.849 155.095 205.751C155.31 205.649 155.585 205.598 155.921 205.598C156.144 205.598 156.365 205.63 156.583 205.694C156.802 205.755 156.991 205.84 157.149 205.949L157.008 206.283C156.838 206.17 156.657 206.087 156.465 206.034C156.276 205.981 156.093 205.955 155.916 205.955C155.678 205.955 155.482 205.987 155.327 206.051C155.172 206.115 155.057 206.202 154.982 206.311C154.91 206.417 154.874 206.538 154.874 206.673C154.874 206.828 154.918 206.953 155.004 207.047C155.095 207.141 155.212 207.215 155.355 207.268C155.502 207.321 155.663 207.368 155.836 207.409C156.01 207.451 156.182 207.496 156.351 207.545C156.525 207.594 156.683 207.658 156.827 207.738C156.974 207.813 157.091 207.915 157.178 208.043C157.268 208.171 157.314 208.339 157.314 208.547C157.314 208.739 157.261 208.919 157.155 209.085C157.049 209.247 156.887 209.379 156.668 209.481C156.453 209.579 156.176 209.628 155.836 209.628ZM158.226 209.594V205.632H158.645V209.594H158.226ZM159.934 209.594V205.632H160.279L163.013 209.073H162.832V205.632H163.245V209.594H162.9L160.172 206.153H160.353V209.594H159.934ZM166.276 209.628C165.974 209.628 165.695 209.579 165.438 209.481C165.185 209.379 164.965 209.237 164.776 209.056C164.591 208.875 164.446 208.662 164.34 208.417C164.238 208.171 164.187 207.904 164.187 207.613C164.187 207.322 164.238 207.055 164.34 206.809C164.446 206.564 164.593 206.351 164.782 206.17C164.97 205.989 165.191 205.849 165.444 205.751C165.701 205.649 165.98 205.598 166.282 205.598C166.583 205.598 166.859 205.645 167.108 205.74C167.361 205.834 167.576 205.977 167.753 206.17L167.493 206.436C167.327 206.27 167.144 206.151 166.944 206.079C166.744 206.007 166.529 205.972 166.299 205.972C166.053 205.972 165.827 206.013 165.619 206.096C165.416 206.175 165.236 206.29 165.082 206.441C164.931 206.589 164.812 206.762 164.725 206.962C164.642 207.158 164.601 207.375 164.601 207.613C164.601 207.847 164.642 208.064 164.725 208.264C164.812 208.464 164.931 208.639 165.082 208.79C165.236 208.937 165.416 209.053 165.619 209.136C165.827 209.215 166.051 209.254 166.293 209.254C166.519 209.254 166.733 209.22 166.932 209.153C167.136 209.085 167.323 208.97 167.493 208.807L167.731 209.124C167.542 209.29 167.321 209.417 167.068 209.503C166.816 209.586 166.551 209.628 166.276 209.628ZM167.329 209.073V207.613H167.731V209.124L167.329 209.073ZM171.993 209.628C171.488 209.628 171.09 209.483 170.799 209.192C170.509 208.902 170.363 208.471 170.363 207.902V205.632H170.782V207.885C170.782 208.353 170.888 208.698 171.099 208.92C171.31 209.143 171.608 209.254 171.993 209.254C172.382 209.254 172.682 209.143 172.893 208.92C173.105 208.698 173.21 208.353 173.21 207.885V205.632H173.618V207.902C173.618 208.471 173.472 208.902 173.182 209.192C172.895 209.483 172.499 209.628 171.993 209.628ZM174.88 209.594V205.632H176.363C176.699 205.632 176.987 205.687 177.229 205.796C177.47 205.902 177.655 206.057 177.783 206.26C177.916 206.46 177.982 206.704 177.982 206.99C177.982 207.27 177.916 207.511 177.783 207.715C177.655 207.915 177.47 208.07 177.229 208.179C176.987 208.288 176.699 208.343 176.363 208.343H175.112L175.299 208.145V209.594H174.88ZM175.299 208.179L175.112 207.975H176.351C176.748 207.975 177.048 207.89 177.251 207.721C177.459 207.547 177.563 207.304 177.563 206.99C177.563 206.673 177.459 206.428 177.251 206.255C177.048 206.081 176.748 205.994 176.351 205.994H175.112L175.299 205.796V208.179Z" fill="#E8E8E3"/>
<path d="M150.26 93.6681L131.757 93.5842L131.742 96.9797L150.245 97.0637L150.26 93.6681Z" fill="#4CAF4F"/>
<path opacity="0.1" d="M150.26 93.6681L131.757 93.5842L131.742 96.9797L150.245 97.0637L150.26 93.6681Z" fill="black"/>
<path d="M204.5 114.516C204.646 114.502 204.788 114.468 204.925 114.416C205.124 114.338 205.297 114.205 205.424 114.034C205.552 113.862 205.628 113.658 205.644 113.444C205.644 112.301 205.644 110.632 205.644 108.488C205.644 107.416 205.644 106.214 205.644 104.891C205.644 104.567 205.644 104.229 205.644 103.891C205.691 103.563 205.62 103.229 205.443 102.948C205.344 102.814 205.215 102.704 205.066 102.628C204.918 102.552 204.754 102.511 204.587 102.509H203.464H193.069L132.898 102.286C132.744 102.284 132.592 102.318 132.454 102.387C132.316 102.456 132.197 102.557 132.107 102.682C131.933 102.964 131.866 103.298 131.92 103.625C131.92 104.344 131.92 105.063 131.92 105.783C131.92 107.222 131.92 108.66 131.92 110.099C131.92 110.819 131.92 111.538 131.92 112.257C131.89 112.592 131.89 112.93 131.92 113.265C131.957 113.408 132.028 113.541 132.125 113.654C132.222 113.766 132.344 113.854 132.481 113.912C132.622 113.968 132.774 113.995 132.927 113.991H136.588L152.566 114.078L179.616 114.243L197.853 114.387L202.81 114.444H204.098C204.392 114.444 204.536 114.444 204.536 114.444H204.098H202.81H197.853H179.616L152.566 114.358L136.588 114.293H132.927C132.725 114.301 132.524 114.267 132.337 114.193C132.147 114.112 131.979 113.989 131.844 113.833C131.71 113.677 131.612 113.493 131.56 113.293C131.518 113.105 131.504 112.911 131.517 112.718V112.185C131.517 111.466 131.517 110.747 131.517 110.027C131.517 108.588 131.517 107.15 131.517 105.711C131.517 104.991 131.517 104.272 131.517 103.553C131.503 103.361 131.503 103.169 131.517 102.977C131.544 102.765 131.625 102.565 131.754 102.394C131.878 102.221 132.042 102.08 132.233 101.983C132.423 101.887 132.634 101.838 132.848 101.84L193.019 102.171L203.414 102.243H204.536C204.734 102.243 204.929 102.291 205.104 102.383C205.28 102.474 205.43 102.606 205.544 102.768C205.746 103.081 205.828 103.457 205.774 103.826C205.774 104.164 205.774 104.502 205.774 104.826C205.774 106.135 205.774 107.337 205.774 108.423C205.774 110.581 205.723 112.236 205.709 113.387C205.691 113.608 205.611 113.82 205.477 113.997C205.343 114.174 205.162 114.309 204.954 114.387C204.817 114.471 204.661 114.516 204.5 114.516Z" fill="#E0E0E0"/>
<path d="M171.156 105.898H137.315V109.07H171.156V105.898Z" fill="#4CAF4F"/>
<path opacity="0.2" d="M171.156 105.898H137.315V109.07H171.156V105.898Z" fill="white"/>
<path d="M150.134 124.645L131.631 124.561L131.616 127.956L150.119 128.04L150.134 124.645Z" fill="#4CAF4F"/>
<path opacity="0.1" d="M150.134 124.645L131.631 124.561L131.616 127.956L150.119 128.04L150.134 124.645Z" fill="black"/>
<path d="M204.033 145.494C204.178 145.476 204.322 145.45 204.464 145.415C204.665 145.351 204.85 145.245 205.007 145.103C205.163 144.962 205.287 144.788 205.371 144.595C205.484 144.304 205.529 143.992 205.5 143.681C205.5 143.336 205.5 142.962 205.5 142.544C205.5 141.71 205.5 140.76 205.5 139.667V135.099C205.535 134.768 205.462 134.435 205.292 134.149C205.114 133.856 204.835 133.638 204.508 133.537C204.149 133.474 203.784 133.454 203.421 133.48H193.069L133.107 133.257C132.784 133.258 132.473 133.376 132.231 133.589C131.988 133.802 131.832 134.095 131.79 134.415C131.79 135.099 131.79 135.854 131.79 136.573C131.79 138.012 131.79 139.451 131.79 140.89C131.79 141.609 131.79 142.329 131.79 143.048C131.763 143.384 131.778 143.723 131.833 144.055C131.923 144.347 132.108 144.6 132.358 144.775C132.624 144.943 132.936 145.024 133.25 145.005H134.25H136.329L152.25 145.084L179.206 145.249L197.378 145.393L202.321 145.451H197.378H179.206L152.236 145.422L136.315 145.365H133.186C132.797 145.388 132.41 145.284 132.085 145.07C131.758 144.843 131.519 144.51 131.409 144.127C131.344 143.762 131.325 143.39 131.351 143.019C131.351 142.3 131.351 141.58 131.351 140.861C131.351 139.422 131.351 137.983 131.351 136.545C131.351 135.825 131.351 135.106 131.351 134.386C131.404 133.975 131.604 133.597 131.915 133.323C132.227 133.049 132.627 132.897 133.042 132.897L193.004 133.228L203.357 133.307C203.742 133.284 204.129 133.31 204.508 133.386C204.881 133.509 205.197 133.765 205.392 134.106C205.579 134.423 205.659 134.79 205.623 135.156C205.623 135.494 205.623 135.825 205.623 136.156C205.623 137.458 205.623 138.652 205.623 139.753C205.623 140.854 205.623 141.782 205.623 142.631C205.623 143.041 205.623 143.422 205.623 143.775C205.649 144.096 205.597 144.42 205.472 144.717C205.378 144.916 205.243 145.092 205.076 145.233C204.908 145.375 204.712 145.478 204.5 145.537C204.343 145.55 204.185 145.536 204.033 145.494Z" fill="#E0E0E0"/>
<path d="M149.995 156.967L131.492 156.883L131.476 160.278L149.979 160.362L149.995 156.967Z" fill="#4CAF4F"/>
<path opacity="0.1" d="M149.995 156.967L131.492 156.883L131.476 160.278L149.979 160.362L149.995 156.967Z" fill="black"/>
<path d="M203.889 177.802C204.034 177.785 204.178 177.759 204.32 177.723C204.521 177.66 204.705 177.554 204.861 177.414C205.017 177.274 205.142 177.102 205.227 176.91C205.34 176.62 205.384 176.307 205.356 175.997C205.356 175.644 205.356 175.277 205.356 174.853C205.356 174.026 205.356 173.069 205.356 171.975V167.407C205.391 167.076 205.318 166.743 205.148 166.457C204.966 166.17 204.688 165.956 204.364 165.853C204.006 165.787 203.641 165.765 203.277 165.788H192.925L132.963 165.565C132.64 165.566 132.329 165.684 132.087 165.897C131.844 166.11 131.688 166.404 131.646 166.724C131.646 167.443 131.646 168.162 131.646 168.882C131.646 170.321 131.646 171.759 131.646 173.198C131.646 173.918 131.646 174.637 131.646 175.357C131.619 175.69 131.634 176.026 131.689 176.357C131.775 176.65 131.961 176.904 132.214 177.076C132.478 177.248 132.792 177.329 133.106 177.306H136.236L152.156 177.392L179.112 177.558L197.285 177.702L202.227 177.759H197.285H179.112L152.156 177.68L136.236 177.615H133.106C132.717 177.642 132.33 177.538 132.006 177.321C131.678 177.094 131.44 176.761 131.33 176.378C131.265 176.013 131.246 175.64 131.272 175.27C131.272 174.551 131.272 173.831 131.272 173.112C131.272 171.673 131.272 170.234 131.272 168.796C131.272 168.076 131.272 167.357 131.272 166.601C131.323 166.191 131.522 165.813 131.832 165.538C132.142 165.264 132.541 165.113 132.955 165.112L192.918 165.443L203.27 165.522C203.656 165.499 204.043 165.525 204.421 165.601C204.795 165.724 205.11 165.98 205.306 166.321C205.492 166.638 205.573 167.005 205.536 167.371C205.536 167.709 205.536 168.047 205.536 168.371C205.536 169.673 205.536 170.867 205.536 171.968C205.536 173.069 205.536 173.997 205.536 174.846C205.536 175.256 205.536 175.637 205.536 175.99C205.564 176.311 205.512 176.635 205.385 176.932C205.292 177.131 205.157 177.307 204.989 177.448C204.822 177.59 204.625 177.693 204.414 177.752C204.245 177.81 204.065 177.827 203.889 177.802Z" fill="#E0E0E0"/>
<path d="M170.434 137.772L136.593 137.619L136.579 140.791L170.419 140.945L170.434 137.772Z" fill="#4CAF4F"/>
<path opacity="0.2" d="M170.434 137.772L136.593 137.619L136.579 140.791L170.419 140.945L170.434 137.772Z" fill="white"/>
<path d="M139.653 171.932C139.632 172.222 139.526 172.498 139.349 172.728C139.172 172.958 138.931 173.131 138.657 173.225C138.383 173.32 138.087 173.331 137.806 173.259C137.525 173.187 137.271 173.033 137.076 172.818C136.882 172.603 136.754 172.335 136.71 172.049C136.666 171.762 136.707 171.468 136.829 171.205C136.95 170.941 137.146 170.719 137.392 170.566C137.638 170.412 137.924 170.335 138.214 170.342C138.615 170.365 138.991 170.544 139.26 170.842C139.53 171.139 139.671 171.531 139.653 171.932Z" fill="#4CAF4F"/>
<path d="M144.236 171.954C144.25 172.157 144.222 172.36 144.154 172.552C144.086 172.743 143.98 172.919 143.841 173.068C143.702 173.216 143.535 173.335 143.348 173.416C143.162 173.497 142.961 173.539 142.757 173.539C142.554 173.539 142.353 173.497 142.166 173.416C141.98 173.335 141.812 173.216 141.673 173.068C141.535 172.919 141.428 172.743 141.36 172.552C141.292 172.36 141.265 172.157 141.279 171.954C141.265 171.751 141.292 171.547 141.36 171.356C141.428 171.164 141.535 170.988 141.673 170.84C141.812 170.691 141.98 170.573 142.166 170.491C142.353 170.41 142.554 170.369 142.757 170.369C142.961 170.369 143.162 170.41 143.348 170.491C143.535 170.573 143.702 170.691 143.841 170.84C143.98 170.988 144.086 171.164 144.154 171.356C144.222 171.547 144.25 171.751 144.236 171.954Z" fill="#4CAF4F"/>
<path d="M148.826 171.975C148.804 172.265 148.699 172.541 148.522 172.771C148.344 173.001 148.104 173.174 147.829 173.268C147.555 173.363 147.259 173.374 146.978 173.302C146.697 173.23 146.443 173.076 146.249 172.861C146.054 172.646 145.927 172.379 145.883 172.092C145.839 171.805 145.88 171.512 146.001 171.248C146.122 170.984 146.318 170.762 146.564 170.609C146.811 170.455 147.097 170.378 147.387 170.385C147.787 170.41 148.162 170.59 148.431 170.887C148.7 171.184 148.841 171.575 148.826 171.975Z" fill="#4CAF4F"/>
<path d="M153.408 171.997C153.387 172.286 153.281 172.563 153.104 172.793C152.927 173.023 152.686 173.196 152.412 173.29C152.138 173.384 151.842 173.396 151.561 173.324C151.28 173.251 151.026 173.098 150.831 172.883C150.637 172.668 150.509 172.4 150.465 172.113C150.421 171.827 150.462 171.533 150.584 171.27C150.705 171.006 150.901 170.784 151.147 170.63C151.393 170.477 151.679 170.399 151.969 170.407C152.369 170.431 152.744 170.611 153.013 170.908C153.282 171.206 153.424 171.596 153.408 171.997Z" fill="#4CAF4F"/>
<path d="M157.991 172.011C157.971 172.301 157.866 172.579 157.69 172.81C157.514 173.04 157.273 173.214 156.999 173.31C156.725 173.405 156.428 173.418 156.147 173.346C155.865 173.275 155.611 173.122 155.416 172.907C155.22 172.692 155.092 172.424 155.048 172.137C155.003 171.85 155.044 171.557 155.165 171.292C155.286 171.028 155.482 170.806 155.729 170.652C155.975 170.499 156.262 170.421 156.552 170.429C156.951 170.453 157.324 170.632 157.593 170.927C157.862 171.223 158.005 171.612 157.991 172.011Z" fill="#4CAF4F"/>
<path d="M162.581 172.033C162.561 172.321 162.457 172.597 162.283 172.828C162.108 173.058 161.87 173.232 161.598 173.329C161.325 173.425 161.031 173.44 160.75 173.372C160.469 173.303 160.215 173.154 160.018 172.942C159.821 172.731 159.69 172.467 159.641 172.182C159.592 171.897 159.628 171.604 159.744 171.339C159.859 171.074 160.05 170.849 160.292 170.691C160.534 170.533 160.817 170.449 161.106 170.45C161.511 170.465 161.894 170.64 162.17 170.937C162.447 171.234 162.594 171.628 162.581 172.033Z" fill="#4CAF4F"/>
<path d="M167.163 172.055C167.177 172.257 167.15 172.461 167.082 172.653C167.014 172.844 166.907 173.02 166.769 173.168C166.63 173.317 166.462 173.436 166.276 173.517C166.089 173.598 165.888 173.64 165.685 173.64C165.482 173.64 165.28 173.598 165.094 173.517C164.907 173.436 164.74 173.317 164.601 173.168C164.462 173.02 164.356 172.844 164.288 172.653C164.22 172.461 164.192 172.257 164.206 172.055C164.192 171.852 164.22 171.648 164.288 171.457C164.356 171.265 164.462 171.089 164.601 170.941C164.74 170.792 164.907 170.673 165.094 170.592C165.28 170.511 165.482 170.469 165.685 170.469C165.888 170.469 166.089 170.511 166.276 170.592C166.462 170.673 166.63 170.792 166.769 170.941C166.907 171.089 167.014 171.265 167.082 171.457C167.15 171.648 167.177 171.852 167.163 172.055Z" fill="#4CAF4F"/>
<path d="M171.746 172.076C171.726 172.364 171.623 172.641 171.448 172.871C171.273 173.101 171.035 173.275 170.763 173.372C170.491 173.469 170.196 173.484 169.915 173.415C169.635 173.346 169.38 173.197 169.183 172.986C168.986 172.774 168.855 172.51 168.806 172.225C168.758 171.94 168.793 171.647 168.909 171.382C169.025 171.118 169.215 170.892 169.457 170.734C169.699 170.576 169.982 170.493 170.271 170.493C170.676 170.508 171.059 170.683 171.335 170.98C171.612 171.277 171.759 171.671 171.746 172.076Z" fill="#4CAF4F"/>
<path d="M176.328 172.098C176.309 172.387 176.204 172.665 176.028 172.896C175.851 173.127 175.611 173.301 175.337 173.396C175.062 173.492 174.766 173.504 174.485 173.433C174.203 173.361 173.949 173.208 173.753 172.993C173.558 172.778 173.43 172.511 173.385 172.224C173.341 171.937 173.382 171.643 173.503 171.379C173.624 171.115 173.82 170.892 174.066 170.739C174.313 170.585 174.599 170.507 174.89 170.515C175.288 170.539 175.662 170.718 175.931 171.014C176.2 171.309 176.342 171.698 176.328 172.098Z" fill="#4CAF4F"/>
<g opacity="0.2">
<path d="M139.653 171.932C139.632 172.222 139.526 172.498 139.349 172.728C139.172 172.958 138.931 173.131 138.657 173.225C138.383 173.32 138.087 173.331 137.806 173.259C137.525 173.187 137.271 173.033 137.076 172.818C136.882 172.603 136.754 172.335 136.71 172.049C136.666 171.762 136.707 171.468 136.829 171.205C136.95 170.941 137.146 170.719 137.392 170.566C137.638 170.412 137.924 170.335 138.214 170.342C138.615 170.365 138.991 170.544 139.26 170.842C139.53 171.139 139.671 171.531 139.653 171.932Z" fill="white"/>
<path d="M144.236 171.954C144.25 172.157 144.222 172.36 144.154 172.552C144.086 172.743 143.98 172.919 143.841 173.068C143.702 173.216 143.535 173.335 143.348 173.416C143.162 173.497 142.961 173.539 142.757 173.539C142.554 173.539 142.353 173.497 142.166 173.416C141.98 173.335 141.812 173.216 141.673 173.068C141.535 172.919 141.428 172.743 141.36 172.552C141.292 172.36 141.265 172.157 141.279 171.954C141.265 171.751 141.292 171.547 141.36 171.356C141.428 171.164 141.535 170.988 141.673 170.84C141.812 170.691 141.98 170.573 142.166 170.491C142.353 170.41 142.554 170.369 142.757 170.369C142.961 170.369 143.162 170.41 143.348 170.491C143.535 170.573 143.702 170.691 143.841 170.84C143.98 170.988 144.086 171.164 144.154 171.356C144.222 171.547 144.25 171.751 144.236 171.954Z" fill="white"/>
<path d="M148.826 171.975C148.804 172.265 148.699 172.541 148.522 172.771C148.344 173.001 148.104 173.174 147.829 173.268C147.555 173.363 147.259 173.374 146.978 173.302C146.697 173.23 146.443 173.076 146.249 172.861C146.054 172.646 145.927 172.379 145.883 172.092C145.839 171.805 145.88 171.512 146.001 171.248C146.122 170.984 146.318 170.762 146.564 170.609C146.811 170.455 147.097 170.378 147.387 170.385C147.787 170.41 148.162 170.59 148.431 170.887C148.7 171.184 148.841 171.575 148.826 171.975Z" fill="white"/>
<path d="M153.408 171.997C153.387 172.286 153.281 172.563 153.104 172.793C152.927 173.023 152.686 173.196 152.412 173.29C152.138 173.384 151.842 173.396 151.561 173.324C151.28 173.251 151.026 173.098 150.831 172.883C150.637 172.668 150.509 172.4 150.465 172.113C150.421 171.827 150.462 171.533 150.584 171.27C150.705 171.006 150.901 170.784 151.147 170.63C151.393 170.477 151.679 170.399 151.969 170.407C152.369 170.431 152.744 170.611 153.013 170.908C153.282 171.206 153.424 171.596 153.408 171.997Z" fill="white"/>
<path d="M157.991 172.011C157.971 172.301 157.866 172.579 157.69 172.81C157.514 173.04 157.273 173.214 156.999 173.31C156.725 173.405 156.428 173.418 156.147 173.346C155.865 173.275 155.611 173.122 155.416 172.907C155.22 172.692 155.092 172.424 155.048 172.137C155.003 171.85 155.044 171.556 155.165 171.292C155.286 171.028 155.482 170.806 155.729 170.652C155.975 170.499 156.262 170.421 156.552 170.429C156.951 170.453 157.324 170.632 157.593 170.927C157.862 171.223 158.005 171.612 157.991 172.011Z" fill="white"/>
<path d="M162.581 172.033C162.561 172.321 162.457 172.597 162.283 172.828C162.108 173.058 161.87 173.232 161.598 173.329C161.325 173.425 161.031 173.44 160.75 173.372C160.469 173.303 160.215 173.154 160.018 172.942C159.821 172.731 159.69 172.467 159.641 172.182C159.592 171.897 159.628 171.604 159.744 171.339C159.859 171.074 160.05 170.849 160.292 170.691C160.534 170.533 160.817 170.449 161.106 170.45C161.511 170.465 161.894 170.64 162.17 170.937C162.447 171.233 162.594 171.628 162.581 172.033Z" fill="white"/>
<path d="M167.163 172.054C167.177 172.257 167.15 172.461 167.082 172.652C167.014 172.844 166.907 173.02 166.769 173.168C166.63 173.317 166.462 173.436 166.276 173.517C166.089 173.598 165.888 173.64 165.685 173.64C165.482 173.64 165.28 173.598 165.094 173.517C164.907 173.436 164.74 173.317 164.601 173.168C164.462 173.02 164.356 172.844 164.288 172.652C164.22 172.461 164.192 172.257 164.206 172.054C164.192 171.852 164.22 171.648 164.288 171.456C164.356 171.265 164.462 171.089 164.601 170.94C164.74 170.792 164.907 170.673 165.094 170.592C165.28 170.511 165.482 170.469 165.685 170.469C165.888 170.469 166.089 170.511 166.276 170.592C166.462 170.673 166.63 170.792 166.769 170.94C166.907 171.089 167.014 171.265 167.082 171.456C167.15 171.648 167.177 171.852 167.163 172.054Z" fill="white"/>
<path d="M171.746 172.076C171.726 172.364 171.623 172.641 171.448 172.871C171.273 173.101 171.035 173.275 170.763 173.372C170.491 173.469 170.196 173.484 169.915 173.415C169.635 173.346 169.38 173.197 169.183 172.986C168.986 172.774 168.855 172.51 168.806 172.225C168.758 171.94 168.793 171.647 168.909 171.382C169.025 171.118 169.215 170.892 169.457 170.734C169.699 170.576 169.982 170.493 170.271 170.493C170.676 170.508 171.059 170.683 171.335 170.98C171.612 171.277 171.759 171.671 171.746 172.076Z" fill="white"/>
<path d="M176.328 172.098C176.309 172.387 176.204 172.665 176.028 172.896C175.851 173.127 175.611 173.301 175.337 173.396C175.062 173.492 174.766 173.504 174.485 173.433C174.203 173.361 173.949 173.208 173.753 172.993C173.558 172.778 173.43 172.511 173.385 172.224C173.341 171.937 173.382 171.643 173.503 171.379C173.624 171.115 173.82 170.892 174.066 170.738C174.313 170.585 174.599 170.507 174.89 170.515C175.288 170.539 175.662 170.718 175.931 171.014C176.2 171.309 176.342 171.698 176.328 172.098Z" fill="white"/>
</g>
<path d="M169.818 68.2441C170.317 68.0241 170.741 67.6619 171.037 67.2027C171.332 66.7435 171.486 66.2075 171.48 65.6615C171.498 65.3065 171.444 64.9515 171.321 64.618C171.198 64.2846 171.009 63.9796 170.764 63.7218C170.519 63.4639 170.225 63.2586 169.898 63.1183C169.572 62.978 169.22 62.9056 168.865 62.9056C168.509 62.9056 168.157 62.978 167.831 63.1183C167.504 63.2586 167.21 63.4639 166.965 63.7218C166.72 63.9796 166.531 64.2846 166.408 64.618C166.285 64.9515 166.231 65.3065 166.249 65.6615C166.239 66.213 166.391 66.7553 166.688 67.2201C166.985 67.6849 167.413 68.0513 167.918 68.2729C163.89 68.8772 164.07 73.2512 164.07 73.2512L173.595 73.2944C173.595 73.2944 173.818 68.8413 169.818 68.2441Z" fill="#4CAF4F"/>
<path opacity="0.1" d="M169.818 68.2441C170.317 68.0241 170.741 67.6619 171.037 67.2027C171.332 66.7435 171.486 66.2075 171.48 65.6615C171.498 65.3065 171.444 64.9515 171.321 64.618C171.198 64.2846 171.009 63.9796 170.764 63.7218C170.519 63.4639 170.225 63.2586 169.898 63.1183C169.572 62.978 169.22 62.9056 168.865 62.9056C168.509 62.9056 168.157 62.978 167.831 63.1183C167.504 63.2586 167.21 63.4639 166.965 63.7218C166.72 63.9796 166.531 64.2846 166.408 64.618C166.285 64.9515 166.231 65.3065 166.249 65.6615C166.239 66.213 166.391 66.7553 166.688 67.2201C166.985 67.6849 167.413 68.0513 167.918 68.2729C163.89 68.8772 164.07 73.2512 164.07 73.2512L173.595 73.2944C173.595 73.2944 173.818 68.8413 169.818 68.2441Z" fill="black"/>
<path d="M185.295 76.1155L151.347 75.9614L151.329 80.0188L185.277 80.1729L185.295 76.1155Z" fill="#4CAF4F"/>
<path opacity="0.2" d="M185.295 76.1155L151.347 75.9614L151.329 80.0188L185.277 80.1729L185.295 76.1155Z" fill="white"/>
<path d="M60.4897 97.1427H60.1516L59.1732 97.2147C58.6437 97.2465 58.1172 97.3162 57.5977 97.4233C57.2612 97.4706 56.9274 97.5354 56.5977 97.6176L55.4826 97.9269C53.5847 98.5092 51.794 99.396 50.1806 100.553C48.0489 102.1 46.2689 104.081 44.9577 106.366C44.1871 107.682 43.5738 109.085 43.1304 110.545C42.6646 112.132 42.3964 113.77 42.3319 115.423C42.289 116.291 42.3034 117.161 42.3751 118.027C42.3751 118.466 42.4974 118.905 42.5549 119.351C42.6033 119.8 42.6875 120.245 42.8067 120.682C43.4536 123.569 44.7662 126.264 46.6398 128.554C48.5134 130.843 50.8961 132.663 53.5978 133.868C55.5532 134.712 57.6491 135.183 59.7775 135.257C61.9758 135.378 64.1763 135.062 66.2522 134.329L66.8852 134.091H66.9716L67.0435 134.135L76.1152 138.739L75.849 138.969C74.8778 135.962 73.9426 133.048 73.0362 130.25V130.142L73.1153 130.063C75.316 127.846 76.9496 125.132 77.8778 122.149C78.7184 119.423 78.9637 116.547 78.5972 113.718C78.2711 111.203 77.4626 108.775 76.2159 106.567C75.1413 104.67 73.7551 102.968 72.1153 101.531C70.7625 100.394 69.2651 99.441 67.6622 98.6967C66.4494 98.1736 65.1862 97.7758 63.8925 97.5097L62.4537 97.2722L61.4106 97.1931L60.7775 97.15H60.5617C60.6334 97.142 60.7058 97.142 60.7775 97.15H61.4177L62.4609 97.1931L63.8997 97.4017C65.2095 97.6484 66.4899 98.0318 67.7197 98.5456C69.3502 99.281 70.8745 100.232 72.252 101.373C73.9219 102.803 75.3376 104.506 76.4389 106.409C77.721 108.641 78.5543 111.102 78.8921 113.653C79.2891 116.526 79.0609 119.452 78.2231 122.228C77.2889 125.273 75.63 128.045 73.3887 130.307L73.4318 130.12C74.3383 132.919 75.2807 135.832 76.2591 138.832L76.3958 139.271L75.9857 139.063L66.914 134.466H67.0723L66.4248 134.703C64.309 135.447 62.0678 135.77 59.8279 135.653C57.6536 135.57 55.5139 135.082 53.5187 134.214C49.7128 132.584 46.5463 129.751 44.5045 126.149C43.5649 124.486 42.8787 122.692 42.4686 120.826C42.3563 120.378 42.2722 119.924 42.2168 119.466C42.1592 119.013 42.0657 118.567 42.0441 118.121C41.8494 115.561 42.12 112.987 42.8427 110.524C43.297 109.044 43.9274 107.623 44.7203 106.294C46.0628 103.988 47.8799 101.995 50.0511 100.445C51.6911 99.2852 53.5119 98.4051 55.4395 97.8406L56.5689 97.5528C56.9014 97.4757 57.2375 97.4157 57.5761 97.373C58.101 97.2758 58.6325 97.2181 59.166 97.2003L60.1516 97.1643C60.2637 97.1492 60.3766 97.142 60.4897 97.1427Z" fill="#4CAF4F"/>
<path d="M64.5903 113.919H63.2594L60.3818 109.876V107.222C60.3818 107.222 58.3243 107.092 58.5689 110.567C58.8135 114.042 58.5689 113.157 58.5689 113.157C58.5689 113.157 54.2021 113.157 53.8424 113.552C53.4827 113.948 53.4611 118.164 53.4107 120.516C53.3832 121.083 53.5459 121.643 53.873 122.107C54.2002 122.571 54.673 122.913 55.2164 123.077C55.3687 123.12 55.526 123.141 55.684 123.142C56.7775 123.142 62.3386 122.257 62.3386 122.257H64.6335L64.5903 113.919Z" fill="#4CAF4F"/>
<path d="M68.3959 113.207L67.5758 122.3H65.3025V113.394L68.3959 113.207Z" fill="#4CAF4F"/>
<path d="M95.5104 298.332V292.181L84.482 292.102L84.3884 301.404L85.0719 301.454C88.1149 301.648 100.553 301.936 102.597 301.303C104.87 300.598 95.5104 298.332 95.5104 298.332Z" fill="#4CAF4F"/>
<path d="M102.856 300.727C102.856 300.828 98.7262 300.914 93.64 300.914C88.5538 300.914 84.4244 300.828 84.4244 300.727C84.4244 300.627 88.5538 300.54 93.64 300.54C98.7262 300.54 102.856 300.627 102.856 300.727Z" fill="#263238"/>
<path d="M95.7047 299.591C95.6112 299.541 95.7047 299.217 95.9277 298.871C96.1508 298.526 96.4529 298.382 96.5249 298.454C96.5968 298.526 96.4457 298.8 96.2299 299.094C96.0141 299.389 95.7983 299.641 95.7047 299.591Z" fill="#263238"/>
<path d="M96.4097 299.994C96.309 299.994 96.3593 299.591 96.5752 299.209C96.791 298.828 97.0788 298.598 97.1579 298.656C97.237 298.713 97.1075 299.037 96.9061 299.375C96.7047 299.713 96.5032 300.03 96.4097 299.994Z" fill="#263238"/>
<path d="M87.7481 300.699C87.7049 300.699 87.5394 300.569 87.302 300.296C87.0122 299.944 86.6894 299.622 86.338 299.332C85.9925 299.056 85.5808 298.875 85.1438 298.807C84.8057 298.763 84.5899 298.807 84.5683 298.763C84.5467 298.72 84.7553 298.569 85.151 298.54C85.6732 298.529 86.1826 298.703 86.5898 299.03C86.9714 299.341 87.2932 299.719 87.5394 300.145C87.7049 300.461 87.7912 300.67 87.7481 300.699Z" fill="#263238"/>
<path d="M95.7407 298.433C95.791 298.519 95.604 298.735 95.2874 298.85C94.9709 298.965 94.6903 298.922 94.676 298.85C94.6616 298.778 94.8846 298.627 95.158 298.526C95.4313 298.425 95.6831 298.346 95.7407 298.433Z" fill="#263238"/>
<path d="M95.568 297.835C95.568 297.943 95.2802 298.03 94.9061 298.037C94.532 298.044 94.2371 297.958 94.2443 297.857C94.2515 297.756 94.5464 297.663 94.9061 297.656C95.2658 297.648 95.5536 297.735 95.568 297.835Z" fill="#263238"/>
<path d="M122.668 298.332V292.181L111.64 292.102L111.546 301.31L112.229 301.361C115.273 301.555 127.718 301.936 129.754 301.303C132.028 300.598 122.668 298.332 122.668 298.332Z" fill="#4CAF4F"/>
<path d="M130.013 300.742C130.013 300.843 125.891 300.929 120.798 300.929C115.704 300.929 111.589 300.843 111.589 300.742C111.589 300.641 115.711 300.555 120.798 300.555C125.884 300.555 130.013 300.641 130.013 300.742Z" fill="#263238"/>
<path d="M122.862 299.591C122.776 299.541 122.862 299.217 123.085 298.871C123.308 298.526 123.61 298.382 123.682 298.454C123.754 298.526 123.603 298.8 123.387 299.094C123.172 299.389 122.956 299.641 122.862 299.591Z" fill="#263238"/>
<path d="M123.567 299.994C123.474 299.994 123.517 299.591 123.74 299.209C123.963 298.828 124.244 298.598 124.323 298.656C124.402 298.713 124.265 299.037 124.064 299.375C123.862 299.713 123.668 300.03 123.567 299.994Z" fill="#263238"/>
<path d="M114.906 300.699C114.862 300.699 114.704 300.569 114.46 300.296C114.17 299.944 113.847 299.622 113.496 299.332C113.15 299.056 112.738 298.875 112.301 298.807C111.97 298.763 111.747 298.807 111.726 298.763C111.704 298.72 111.913 298.569 112.309 298.54C112.831 298.529 113.34 298.703 113.747 299.03C114.131 299.339 114.453 299.717 114.697 300.145C114.863 300.461 114.949 300.67 114.906 300.699Z" fill="#263238"/>
<path d="M122.898 298.433C122.949 298.519 122.762 298.735 122.445 298.85C122.128 298.965 121.848 298.922 121.834 298.85C121.819 298.778 122.042 298.627 122.316 298.526C122.589 298.425 122.841 298.346 122.898 298.433Z" fill="#263238"/>
<path d="M122.74 297.835C122.74 297.943 122.452 298.03 122.078 298.037C121.704 298.044 121.416 297.958 121.423 297.857C121.431 297.756 121.718 297.663 122.078 297.656C122.438 297.648 122.74 297.735 122.74 297.835Z" fill="#263238"/>
<path d="M163.3 115.675C163.012 115.38 162.3 115.524 162.3 115.524C162.372 115.109 162.372 114.686 162.3 114.272C162.171 113.869 161.264 113.948 161.264 113.948C161.222 113.609 161.222 113.266 161.264 112.927C161.271 112.851 161.255 112.776 161.218 112.71C161.181 112.644 161.124 112.592 161.056 112.56C160.627 112.385 160.166 112.301 159.703 112.315C159.149 111.919 161.394 108.776 162.228 107.768C163.063 106.761 162.912 105.977 162.171 105.977C161.66 105.977 159.041 108.999 158.235 110.013C157.43 111.027 155.293 113.847 155.221 111.596C155.149 109.344 154.243 107.646 153.674 107.358C153.106 107.071 152.502 107.747 152.811 108.373C153.083 109.084 153.252 109.83 153.315 110.588C153.393 111.193 153.366 111.806 153.236 112.401C152.997 113.509 152.672 114.596 152.264 115.653H152.207C152.207 115.653 136.509 130.71 135.373 131.782C134.358 132.746 113.956 130.638 109.863 130.207C108.472 130.003 107.067 129.907 105.661 129.919C103.884 129.998 103.568 130.25 101.798 130.271C97.3287 130.321 92.8697 130.713 88.4602 131.444C86.4636 131.783 84.5986 132.665 83.0686 133.992C81.5387 135.319 80.4025 137.04 79.7842 138.969C75.662 151.846 66.3241 182.328 64.6767 199.45C63.4318 201.707 62.3079 204.029 61.3099 206.406C60.1516 209.557 60.4322 209.665 60.8207 209.737C61.871 209.931 63.0652 204.277 63.5112 205.644C63.9573 207.01 61.2451 212.384 62.3458 212.543C63.7846 212.744 64.9285 206.787 65.0652 206.313C65.2018 205.838 65.9141 205.989 65.7846 206.435C65.5759 207.068 63.5544 213.78 64.9644 213.996C65.7414 214.111 65.8277 212.694 65.8277 212.694C65.8277 212.694 67.2665 206.269 67.9212 206.399C68.5759 206.528 67.878 210.32 67.5471 211.586C67.2162 212.852 67.6766 213.492 68.3528 213.183C68.8133 212.967 69.914 209.118 70.2161 207.867C70.5183 206.615 71.2736 203.147 72.288 205.154C73.3024 207.162 74.8419 208.327 75.475 208.356C75.6176 208.339 75.7521 208.281 75.8611 208.187C75.97 208.093 76.0485 207.97 76.0864 207.831C76.1244 207.693 76.12 207.546 76.0738 207.41C76.0277 207.274 75.9419 207.155 75.8275 207.068C75.283 206.536 74.8156 205.931 74.439 205.269C74.1034 204.754 73.86 204.185 73.7196 203.586C73.4297 202.393 73.261 201.173 73.216 199.946L73.1009 199.226C74.7124 191.248 79.3526 167.832 86.0502 152.875L88.7984 158.53L89.9926 162.717L82.669 180.795L113.906 180.385L109.244 162.443L114.906 143.739C121.028 143.875 136.747 144.106 139.365 142.919C142.66 141.48 159.703 119.955 159.703 119.955C160.814 119.092 161.878 118.17 162.89 117.193C162.89 117.193 163.926 116.322 163.3 115.675Z" fill="#FFBE9D"/>
<path d="M81.295 167.436C82.2014 164.343 86.856 149.048 86.856 149.048C86.856 149.048 89.1437 161.515 88.5394 163.019C87.9835 164.306 87.3268 165.547 86.5754 166.731C81.295 174.767 81.9856 178.788 81.9856 178.788L113.891 177.817C113.963 173.357 111.323 162.983 110.776 161.328C110.229 159.674 112.05 154.256 112.05 154.256C112.05 154.256 115.647 150.595 115.517 148.71C115.449 147.017 115.239 145.332 114.891 143.674L134.315 144.393L133.704 131.228L105.805 128.437C104.834 131.178 96.05 129.833 96.05 129.833C86.5682 130.149 85.9783 131.89 82.036 134.955C78.0936 138.019 71.5686 164.321 71.5686 164.321L81.295 167.436Z" fill="#4CAF4F"/>
<path d="M100.158 164.321C99.6048 164.42 99.0417 164.449 98.4815 164.407C97.4384 164.407 96.0068 164.335 94.4313 164.177C92.8558 164.019 91.4314 163.796 90.417 163.594C89.8577 163.522 89.3093 163.382 88.7839 163.177C89.3464 163.177 89.9076 163.23 90.4602 163.335C91.4817 163.465 92.8989 163.645 94.4672 163.803C96.0355 163.961 97.46 164.069 98.4887 164.141C99.0495 164.148 99.6083 164.208 100.158 164.321Z" fill="#263238"/>
<path d="M102.345 161.609C101.792 161.88 101.207 162.08 100.604 162.206C97.7336 162.96 94.7724 163.311 91.8054 163.249C91.1915 163.269 90.5775 163.211 89.9781 163.076C90.5841 163 91.1949 162.969 91.8054 162.983C92.9349 162.947 94.4888 162.868 96.201 162.666C97.9132 162.465 99.4383 162.177 100.517 161.947C101.117 161.787 101.728 161.674 102.345 161.609Z" fill="#263238"/>
<path d="M113.078 149.508C113.064 150.057 112.989 150.602 112.855 151.134C112.668 152.134 112.38 153.501 112.014 154.997C111.647 156.494 111.294 157.875 110.978 158.81C110.85 159.346 110.662 159.865 110.417 160.357C110.457 159.81 110.558 159.27 110.719 158.746C110.992 157.623 111.301 156.328 111.647 154.911C111.992 153.494 112.323 152.199 112.596 151.077C112.694 150.537 112.856 150.01 113.078 149.508Z" fill="#263238"/>
<path d="M81.6331 165.601C79.9688 165.344 78.3263 164.962 76.7196 164.458C75.0778 164.074 73.4667 163.569 71.8995 162.947C73.563 163.208 75.2053 163.59 76.8131 164.091C78.4552 164.473 80.0664 164.978 81.6331 165.601Z" fill="#263238"/>
<path d="M115.237 143.516C114.965 143.562 114.688 143.562 114.416 143.516C113.665 143.439 112.927 143.262 112.222 142.991C111.045 142.548 109.974 141.865 109.077 140.984C108.18 140.103 107.477 139.044 107.014 137.876C106.502 136.59 106.283 135.206 106.374 133.825C106.406 132.686 106.746 131.577 107.359 130.617C107.79 129.97 108.434 129.494 109.179 129.271C109.378 129.216 109.584 129.19 109.791 129.192C109.935 129.192 110.007 129.192 110.007 129.192C110.007 129.192 109.704 129.192 109.222 129.387C108.539 129.639 107.959 130.113 107.575 130.732C106.597 132.271 106.323 135.084 107.366 137.71C107.852 138.948 108.612 140.06 109.589 140.962C110.39 141.7 111.313 142.294 112.316 142.717C113.257 143.089 114.237 143.357 115.237 143.516Z" fill="#263238"/>
<path d="M132.006 144.134C131.826 141.928 131.768 139.714 131.833 137.501C131.777 135.291 131.844 133.079 132.035 130.876C132.215 133.079 132.272 135.291 132.207 137.501C132.268 139.714 132.201 141.929 132.006 144.134Z" fill="#263238"/>
<path d="M105.618 129.243C105.697 127.638 105.863 125.825 105.863 125.825C105.863 125.825 109.834 125.387 110.071 121.286C110.309 117.185 110.071 107.725 110.071 107.725L102.877 104.042L94.8917 110.322L96.1219 130.825L103.445 131.293C104.005 131.308 104.548 131.101 104.956 130.717C105.363 130.333 105.601 129.802 105.618 129.243Z" fill="#FFBE9D"/>
<path d="M106.33 118.041C106.33 118.041 106.33 118.121 106.266 118.214C106.212 118.282 106.143 118.336 106.064 118.371C105.985 118.406 105.899 118.421 105.812 118.416C105.352 118.416 104.906 117.883 104.748 117.265C104.672 116.965 104.672 116.651 104.748 116.351C104.762 116.22 104.81 116.095 104.885 115.987C104.96 115.879 105.061 115.791 105.179 115.732C105.276 115.692 105.385 115.692 105.481 115.732C105.553 115.768 105.611 115.826 105.647 115.898C105.697 116.02 105.647 116.099 105.647 116.092C105.647 116.085 105.647 116.02 105.575 115.948C105.537 115.896 105.482 115.861 105.42 115.847C105.357 115.834 105.292 115.844 105.237 115.876C105.149 115.929 105.075 116.004 105.024 116.094C104.972 116.183 104.944 116.284 104.942 116.387C104.881 116.654 104.881 116.932 104.942 117.2C105.086 117.761 105.474 118.214 105.819 118.257C105.887 118.266 105.956 118.262 106.021 118.243C106.087 118.224 106.148 118.193 106.201 118.149C106.287 118.092 106.316 118.034 106.33 118.041Z" fill="#EB996E"/>
<path d="M112.539 105.509C111.985 103.625 109.978 102.689 108.15 102.171C105.366 101.38 102.359 101.035 99.6399 102.035C96.9205 103.035 93.6544 104.79 93.6544 107.79C92.0502 107.66 91.1293 109.063 90.4962 110.804C90.0915 111.865 89.849 112.981 89.7768 114.114C89.5754 118.042 88.4747 123.466 85.928 126.343C84.4892 127.948 82.4964 129.056 81.6763 131.056C80.9569 132.789 81.331 134.847 80.662 136.602C80.0648 138.149 78.7483 139.25 77.7843 140.595C76.8022 142.121 76.2242 143.872 76.1047 145.683C75.9851 147.494 76.3279 149.305 77.1009 150.947C77.8794 152.547 78.9755 153.972 80.3224 155.134C81.6693 156.297 83.2388 157.173 84.9352 157.71C88.2956 158.732 91.879 158.767 95.2587 157.81C97.7952 157.204 100.161 156.031 102.179 154.379C104.244 152.692 105.663 150.344 106.194 147.731C106.704 144.796 105.884 141.811 105.273 138.89C103.359 129.66 103.906 129.178 106.323 120.61C106.381 120.459 106.41 120.3 106.453 120.149C106.496 119.998 106.517 119.926 106.546 119.811C106.615 119.473 106.651 119.128 106.654 118.783C106.301 118.914 105.918 118.942 105.55 118.863C105.181 118.784 104.843 118.601 104.575 118.336C104.306 118.054 104.119 117.705 104.033 117.325C103.947 116.945 103.965 116.549 104.086 116.178C104.256 115.773 104.508 115.408 104.828 115.107C105.148 114.806 105.527 114.575 105.942 114.43C106.74 114.099 107.597 113.927 108.381 113.56C110.043 112.768 111.194 111.128 111.978 109.409C112.622 108.217 112.821 106.835 112.539 105.509Z" fill="#263238"/>
<path d="M106.618 118.236C106.77 118.46 106.896 118.702 106.992 118.955C107.208 119.408 107.496 120.049 107.812 120.79L107.87 120.926H107.719L106.999 120.991C106.503 120.991 106.086 121.085 105.597 121.077C105.554 121.068 105.514 121.048 105.482 121.019C105.449 120.99 105.424 120.953 105.409 120.912C105.388 120.847 105.388 120.776 105.409 120.711C105.426 120.614 105.448 120.518 105.474 120.423L105.604 119.912C105.669 119.571 105.77 119.238 105.906 118.919C105.892 119.267 105.842 119.611 105.755 119.948L105.654 120.459C105.618 120.631 105.553 120.898 105.654 120.876C106.014 120.876 106.525 120.797 106.999 120.768L107.719 120.703L107.625 120.862C107.316 120.142 107.057 119.466 106.906 118.998C106.773 118.76 106.676 118.503 106.618 118.236Z" fill="#4CAF4F"/>
<path d="M81.9856 178.788L113.891 177.817L127.776 232.017L125.222 294.188H108.352L110.417 233.341L98.0787 195.608L99.9779 296.598L82.928 296.85L81.1367 201.924C81.0576 199.284 80.1943 193.335 80.518 190.716L81.9856 178.788Z" fill="#263238"/>
<path d="M102.323 196.378C101.801 196.411 101.277 196.379 100.762 196.284C99.7981 196.169 98.4816 195.968 97.0356 195.68C95.5896 195.392 94.2947 195.061 93.3595 194.795C92.8595 194.685 92.3759 194.511 91.9207 194.277C91.9207 194.169 94.2659 194.73 97.1435 195.313C100.021 195.896 102.338 196.27 102.323 196.378Z" fill="#455A64"/>
<path d="M125.049 290.778C125.049 290.879 121.229 290.965 116.517 290.965C111.805 290.965 107.978 290.879 107.978 290.778C107.978 290.677 111.798 290.591 116.517 290.591C121.236 290.591 125.049 290.67 125.049 290.778Z" fill="#455A64"/>
<path d="M99.8268 293.972C99.8268 294.08 96.1147 294.159 91.5393 294.159C86.9639 294.159 83.2589 294.08 83.2589 293.972C83.2589 293.864 86.9711 293.785 91.5393 293.785C96.1075 293.785 99.8268 293.871 99.8268 293.972Z" fill="#455A64"/>
<path d="M97.6254 293.713C97.5247 293.713 97.0787 271.649 96.6255 244.434C96.1722 217.219 95.9061 195.14 95.9996 195.14C96.0931 195.14 96.5535 217.197 96.9996 244.427C97.4456 271.656 97.7334 293.713 97.6254 293.713Z" fill="#455A64"/>
<path d="M122.783 290.778C122.775 290.68 122.775 290.581 122.783 290.483V289.62C122.783 288.843 122.841 287.728 122.884 286.311C122.985 283.433 123.128 279.253 123.308 274.131C123.697 263.829 124.243 249.628 124.841 233.952C124.841 233.801 124.841 233.657 124.841 233.528V233.578C121.064 218.471 117.647 204.759 115.165 194.838L112.287 183.105C111.956 181.731 111.704 180.659 111.524 179.91C111.438 179.558 111.38 179.285 111.33 179.076C111.302 178.982 111.285 178.886 111.28 178.788C111.317 178.879 111.346 178.973 111.366 179.069C111.424 179.27 111.496 179.544 111.596 179.889C111.791 180.608 112.071 181.702 112.431 183.069C113.15 185.846 114.165 189.845 115.431 194.773C117.934 204.687 121.387 218.363 125.215 233.492V233.542C125.215 233.672 125.215 233.823 125.215 233.967C124.574 249.642 123.992 263.836 123.567 274.138C123.344 279.268 123.157 283.419 123.028 286.311C122.956 287.749 122.898 288.843 122.862 289.62C122.862 289.987 122.819 290.275 122.812 290.483C122.813 290.582 122.803 290.681 122.783 290.778Z" fill="#455A64"/>
<path d="M117.28 232.262C116.068 232.66 114.82 232.937 113.553 233.089C111.999 233.355 110.676 233.542 110.078 233.571V233.427C110.273 233.485 110.373 233.521 110.373 233.549C110.373 233.578 110.251 233.549 110.05 233.549H109.618L110.05 233.42C110.611 233.254 111.935 232.981 113.488 232.7C114.735 232.43 116.005 232.283 117.28 232.262Z" fill="#455A64"/>
<path d="M116.985 234.326C115.863 234.378 114.738 234.327 113.625 234.175C112.501 234.152 111.382 234.029 110.28 233.808C112.528 233.625 114.791 233.8 116.985 234.326Z" fill="#455A64"/>
<path opacity="0.2" d="M81.8489 179.932C82.2267 180.417 82.7027 180.817 83.2456 181.106C83.7886 181.395 84.3863 181.566 84.9999 181.608C86.2849 181.76 87.5846 181.736 88.8631 181.536C97.1003 180.623 105.827 179.781 113.891 177.817C103.453 178.4 92.4241 178.205 81.9856 178.788L81.8776 179.68" fill="black"/>
<g opacity="0.2">
<path d="M92.604 194.644L98.4887 217.478L98.0787 195.608L92.604 194.644Z" fill="black"/>
</g>
</svg>
