<svg width="273" height="321" viewBox="0 0 273 321" fill="none" xmlns="http://www.w3.org/2000/svg">
<path d="M138.314 280.76C195.645 280.033 242.08 276.167 242.028 272.126C241.977 268.084 195.46 265.397 138.129 266.124C80.7978 266.851 34.3634 270.717 34.4147 274.758C34.4659 278.8 80.9834 281.487 138.314 280.76Z" fill="#F5F5F5"/>
<path d="M189.287 109.341L183.943 106.823C183.943 106.823 177.13 122.342 175.132 123.15C172.415 124.244 166.799 127.264 163.454 127.824C163.007 128.476 162.289 130.496 162.367 131.225C166.893 132.985 176.756 130.448 178.853 128.521C183.622 124.148 189.287 109.341 189.287 109.341Z" fill="#E58A7B"/>
<path d="M190.875 105.81C191.922 110.213 186.67 119.163 186.67 119.163L179.58 114.494C179.58 114.494 180.85 110.825 182.409 107.088C184.908 101.05 189.682 100.789 190.875 105.81Z" fill="#4CAF4F"/>
<path opacity="0.2" d="M190.875 105.81C191.922 110.213 186.67 119.163 186.67 119.163L179.58 114.494C179.58 114.494 180.85 110.825 182.409 107.088C184.908 101.05 189.682 100.789 190.875 105.81Z" fill="black"/>
<path opacity="0.2" d="M182.393 116.359L185.185 118.199L185.542 107.934C183.949 109.448 182.871 113.961 182.393 116.359Z" fill="black"/>
<path d="M186.207 102.546C186.207 102.546 180.922 117.316 184.46 144.645L206.02 144.372C206.312 140.373 204.93 120.89 208.798 102.014C206.425 101.486 204.028 101.147 201.62 100.999C198.566 100.825 195.508 100.863 192.46 101.116C190.348 101.402 188.258 101.88 186.207 102.546Z" fill="#4CAF4F"/>
<path opacity="0.2" d="M186.207 102.546C186.207 102.546 180.922 117.316 184.46 144.645L206.02 144.372C206.312 140.373 204.93 120.89 208.798 102.014C206.425 101.486 204.028 101.147 201.62 100.999C198.566 100.825 195.508 100.863 192.46 101.116C190.348 101.402 188.258 101.88 186.207 102.546Z" fill="black"/>
<g style="mix-blend-mode:multiply">
<path d="M183.373 273.451C183.35 274.15 191.532 274.608 201.646 274.48C211.759 274.352 219.987 273.685 220.01 272.987C220.033 272.288 211.856 271.836 201.737 271.964C191.618 272.092 183.402 272.759 183.373 273.451Z" fill="#E8ECF1"/>
</g>
<path d="M197.532 254.924L193.731 256.76L197.155 266.993L200.956 265.157L197.532 254.924Z" fill="#E58A7B"/>
<path d="M214.753 268.081L210.722 268.132L209.101 256.884L213.133 256.833L214.753 268.081Z" fill="#E58A7B"/>
<path d="M210.436 267.574L214.966 267.516C215.044 267.515 215.121 267.548 215.181 267.609C215.242 267.67 215.283 267.755 215.297 267.848L215.935 272.165C215.949 272.274 215.943 272.384 215.918 272.489C215.893 272.595 215.85 272.692 215.791 272.775C215.732 272.858 215.659 272.924 215.577 272.97C215.495 273.016 215.405 273.04 215.314 273.04C213.735 273.027 212.973 272.921 210.981 272.946C209.755 272.961 207.235 273.149 205.533 273.17C203.83 273.192 203.692 271.176 204.391 270.98C207.529 270.119 208.736 268.985 209.771 267.886C209.954 267.687 210.19 267.576 210.436 267.574Z" fill="#263238"/>
<path d="M197.031 266.075L201.294 264.508C201.371 264.482 201.452 264.487 201.526 264.524C201.599 264.56 201.66 264.626 201.699 264.71L203.354 268.569C203.393 268.666 203.413 268.773 203.414 268.882C203.415 268.99 203.396 269.097 203.359 269.195C203.322 269.294 203.268 269.381 203.2 269.451C203.132 269.521 203.052 269.573 202.966 269.601C201.414 270.138 200.374 270.468 198.434 271.178C197.096 271.667 195.735 272.454 194.414 272.981C193.498 273.349 191.335 273.389 190.216 273.403C188.561 273.424 188.165 271.321 188.876 271.215C190.667 270.954 190.909 271.06 191.892 270.447C193.502 269.571 194.955 268.327 196.172 266.785C196.401 266.461 196.697 266.216 197.031 266.075Z" fill="#263238"/>
<path d="M164.128 127.789L159.667 125.602L157.916 131.56C159.738 131.871 161.586 131.847 163.399 131.49L164.128 127.789Z" fill="#E58A7B"/>
<path d="M156.367 125.489L156.299 129.434L157.916 131.547L159.667 125.589L156.367 125.489Z" fill="#E58A7B"/>
<path d="M198.068 255.79L194.255 257.627L196.021 262.918L199.834 261.082L198.068 255.79Z" fill="#CF6F64"/>
<path d="M213.133 256.833L209.101 256.884L209.941 262.685L213.972 262.634L213.133 256.833Z" fill="#CF6F64"/>
<path opacity="0.2" d="M183.681 137.252C183.776 138.421 183.882 139.616 184.015 140.843L199.965 134.356C202.457 133.429 204.609 131.502 206.065 128.893C206.107 127.166 206.164 125.349 206.264 123.453C206.305 122.535 206.358 121.59 206.415 120.632C206.473 119.675 206.556 118.613 206.644 117.591L183.681 137.252Z" fill="black"/>
<path d="M188.648 115.983L188.112 115.912C188.387 112.676 190.351 110.103 192.456 110.141L192.464 110.788C190.622 110.766 188.895 113.083 188.648 115.983Z" fill="white"/>
<path d="M191.577 121.913L191.486 121.914L191.478 121.268C193.321 121.329 195.021 118.986 195.268 116.093L195.804 116.163C195.561 119.328 193.66 121.887 191.577 121.913Z" fill="white"/>
<path d="M201.162 88.5463C200.452 92.1177 199.646 98.6516 201.62 100.999C201.62 100.999 200.306 104.63 194.829 104.7C189.823 104.763 192.459 101.116 192.459 101.116C195.778 100.13 195.799 97.1939 195.325 94.4198L201.162 88.5463Z" fill="#E58A7B"/>
<path d="M198.783 90.9427L195.33 94.4197C195.447 95.0571 195.518 95.7051 195.542 96.3566C196.581 97.5719 198.592 94.4365 198.78 92.8436C198.878 92.2162 198.879 91.5717 198.783 90.9427Z" fill="#CF6F64"/>
<path d="M189.244 88.6521C189.494 89.1581 189.827 89.597 190.223 89.9413C190.619 90.2856 191.069 90.5279 191.545 90.6531C192.834 90.9794 193.459 89.5426 193.087 88.112C192.755 86.8231 191.678 85.0976 190.375 85.4115C190.097 85.4846 189.836 85.6375 189.617 85.8573C189.398 86.0771 189.225 86.3574 189.115 86.6747C189.004 86.992 188.958 87.3372 188.98 87.6812C189.003 88.0253 189.093 88.3582 189.244 88.6521Z" fill="#CF6F64"/>
<path d="M191.225 77.2284C189.236 78.3592 188.652 87.9743 191.186 89.3646C193.72 90.7549 194.989 75.0794 191.225 77.2284Z" fill="#263238"/>
<path d="M201.705 83.1795C201.284 88.008 201.266 90.8466 199.156 93.3432C198.503 94.171 197.672 94.7638 196.755 95.0559C195.838 95.348 194.871 95.3282 193.961 94.9986C193.05 94.669 192.232 94.0425 191.595 93.1881C190.959 92.3338 190.53 91.285 190.355 90.1574C189.653 85.8344 190.456 78.667 194.436 76.6963C195.272 76.2375 196.195 76.0575 197.11 76.175C198.025 76.2926 198.899 76.7033 199.64 77.3647C200.382 78.026 200.964 78.914 201.327 79.9364C201.69 80.9588 201.82 82.0785 201.705 83.1795Z" fill="#E58A7B"/>
<path d="M195.079 79.6752C198.034 78.7261 200.205 78.0778 199.461 81.0679C198.478 85.063 197.285 88.9316 198.952 89.085C199.971 89.182 204.439 86.8236 203.837 84.4972C203.313 82.4737 205.41 81.8911 205.772 80.8585C207.111 77.1174 203.15 77.659 203.828 75.3875C204.506 73.116 200.541 69.5198 198.422 71.3634C194.974 74.3425 188.993 74.3731 192.075 69.5043C194.285 66.0302 190.273 66.7858 190.273 66.7858C190.273 66.7858 192.726 68.4939 188.67 71.235C184.38 74.16 188.445 81.8218 195.079 79.6752Z" fill="#263238"/>
<path d="M203.346 88.4733C202.773 89.5037 201.903 90.2384 200.904 90.5344C199.586 90.8938 199.059 89.4716 199.539 88.0302C199.967 86.7317 201.165 84.9773 202.432 85.2586C203.7 85.54 204.01 87.1976 203.346 88.4733Z" fill="#E58A7B"/>
<path d="M184.46 144.645C184.46 144.645 181.337 183.801 181.241 198.647C181.148 214.088 194.313 262.095 194.313 262.095L200.697 258.781C200.697 258.781 192.644 214.866 193.522 199.694C194.448 183.15 198.648 144.491 198.648 144.491L184.46 144.645Z" fill="#4CAF4F"/>
<path opacity="0.2" d="M193.591 155.269C190.797 162.533 192.921 176.801 194.592 185.249C195.11 179.262 195.735 172.763 196.328 166.749C196.147 157.519 195.462 150.396 193.591 155.269Z" fill="black"/>
<path d="M200.381 256.225C200.413 256.224 201.172 258.685 201.172 258.685L193.81 262.541L192.61 259.931L200.381 256.225Z" fill="#4CAF4F"/>
<path d="M192.111 144.548C192.111 144.548 195.35 181.71 197.358 195.617C199.565 210.854 208.101 261.584 208.101 261.584L215.484 261.49C215.484 261.49 210.433 211.951 209.406 196.848C208.288 180.466 206.02 144.372 206.02 144.372L192.111 144.548Z" fill="#4CAF4F"/>
<path d="M215.567 259.168C215.599 259.168 215.845 261.654 215.845 261.654L207.728 261.757L207.114 258.907L215.567 259.168Z" fill="#4CAF4F"/>
<path opacity="0.2" d="M212.703 256.256C212.686 256.257 212.67 256.25 212.657 256.237C212.644 256.224 212.635 256.206 212.632 256.186C212.584 255.734 208.027 210.986 207.105 197.42C206.105 182.705 204.052 150.061 204.032 149.731C204.031 149.721 204.032 149.71 204.035 149.7C204.037 149.689 204.042 149.68 204.048 149.672C204.054 149.664 204.061 149.658 204.069 149.653C204.077 149.649 204.086 149.646 204.095 149.646C204.113 149.646 204.13 149.654 204.143 149.668C204.156 149.682 204.164 149.702 204.166 149.723C204.17 150.053 206.238 182.671 207.239 197.412C208.161 210.978 212.717 255.693 212.761 256.178C212.762 256.188 212.762 256.199 212.76 256.21C212.758 256.22 212.754 256.23 212.749 256.239C212.743 256.248 212.736 256.255 212.728 256.26C212.72 256.265 212.712 256.268 212.703 256.269L212.703 256.256Z" fill="black"/>
<path d="M195.597 84.6017C195.602 84.9961 195.402 85.3154 195.188 85.3181C194.974 85.3208 194.815 85.0061 194.831 84.6115C194.848 84.2168 195.026 83.8978 195.24 83.8951C195.454 83.8924 195.613 84.2136 195.597 84.6017Z" fill="#263238"/>
<path d="M191.924 84.6483C191.929 85.0426 191.724 85.362 191.515 85.3647C191.307 85.3673 191.142 85.0526 191.153 84.6581C191.164 84.2636 191.353 83.9444 191.567 83.9416C191.781 83.9389 191.941 84.2602 191.924 84.6483Z" fill="#263238"/>
<path d="M193.083 84.8341C192.651 86.0439 192.09 87.1792 191.412 88.2109C191.956 88.8505 192.953 88.5405 192.953 88.5405L193.083 84.8341Z" fill="#DF5753"/>
<path d="M193.247 90.1853C193.235 90.1855 193.223 90.1826 193.211 90.1768C193.2 90.1711 193.189 90.1625 193.18 90.1517C193.172 90.1409 193.165 90.1281 193.161 90.1141C193.156 90.1001 193.154 90.0851 193.155 90.0701C193.156 90.0387 193.167 90.0089 193.185 89.987C193.204 89.9651 193.229 89.9528 193.255 89.9525C193.665 89.9507 194.068 89.8382 194.436 89.6232C194.804 89.4082 195.127 89.0961 195.381 88.71C195.399 88.6902 195.423 88.6791 195.448 88.6788C195.472 88.6785 195.496 88.689 195.515 88.7083C195.533 88.7298 195.543 88.7586 195.543 88.7888C195.543 88.8189 195.534 88.848 195.517 88.8699C195.245 89.2803 194.9 89.6115 194.507 89.8391C194.114 90.0667 193.684 90.185 193.247 90.1853Z" fill="#263238"/>
<path d="M196.235 83.404C196.209 83.4202 196.181 83.4289 196.152 83.4292C196.123 83.4296 196.095 83.4217 196.069 83.4061C195.867 83.2523 195.637 83.158 195.4 83.1306C195.162 83.1033 194.923 83.1438 194.701 83.2489C194.68 83.2623 194.656 83.2703 194.632 83.2725C194.608 83.2747 194.583 83.271 194.56 83.2617C194.537 83.2523 194.516 83.2375 194.498 83.2181C194.479 83.1987 194.464 83.175 194.454 83.1486C194.433 83.0913 194.432 83.0267 194.45 82.9685C194.468 82.9103 194.505 82.8631 194.552 82.837C194.83 82.6954 195.132 82.6371 195.434 82.6671C195.735 82.697 196.027 82.8143 196.283 83.009C196.304 83.0256 196.322 83.047 196.336 83.0719C196.35 83.0968 196.359 83.1248 196.364 83.1542C196.369 83.1836 196.369 83.2139 196.364 83.2432C196.359 83.2726 196.35 83.3004 196.336 83.3251C196.309 83.3626 196.274 83.3899 196.235 83.404Z" fill="#263238"/>
<path d="M190.474 82.184C190.445 82.176 190.419 82.1584 190.398 82.1333C190.38 82.1124 190.366 82.0874 190.356 82.0598C190.346 82.0322 190.34 82.0025 190.34 81.9724C190.339 81.9423 190.344 81.9124 190.353 81.8845C190.363 81.8566 190.376 81.8313 190.394 81.81C190.596 81.5295 190.849 81.3094 191.133 81.1667C191.417 81.024 191.725 80.9627 192.033 80.9875C192.058 80.9918 192.081 81.0022 192.103 81.0179C192.124 81.0337 192.142 81.0546 192.157 81.0792C192.171 81.1039 192.181 81.1319 192.186 81.1613C192.191 81.1908 192.191 81.2212 192.186 81.2507C192.175 81.3107 192.147 81.3638 192.106 81.4C192.065 81.4362 192.014 81.4531 191.964 81.4475C191.72 81.432 191.477 81.4837 191.253 81.5986C191.029 81.7134 190.83 81.8885 190.671 82.1104C190.647 82.1434 190.616 82.1678 190.581 82.1808C190.546 82.1938 190.509 82.1949 190.474 82.184Z" fill="#263238"/>
<path d="M210.95 108.349L205.359 106.629C205.359 106.629 200.104 122.93 198.185 124.008C195.58 125.49 188.999 130.59 186.202 132.998C186.057 133.808 186.208 135.947 186.569 136.53C191.374 135.409 200.544 131.006 202.444 128.803C206.776 123.776 210.95 108.349 210.95 108.349Z" fill="#E58A7B"/>
<path d="M209.093 268.444C208.821 268.473 208.55 268.388 208.324 268.202C208.254 268.127 208.201 268.032 208.171 267.926C208.14 267.82 208.133 267.706 208.15 267.596C208.153 267.527 208.171 267.461 208.202 267.403C208.233 267.346 208.277 267.3 208.328 267.27C208.774 266.987 210.045 267.934 210.191 268.042C210.207 268.054 210.219 268.071 210.226 268.092C210.233 268.113 210.235 268.136 210.23 268.158C210.225 268.181 210.216 268.201 210.204 268.219C210.191 268.236 210.174 268.249 210.156 268.256C209.808 268.364 209.452 268.427 209.093 268.444ZM208.545 267.442C208.504 267.432 208.462 267.432 208.421 267.444C208.401 267.457 208.384 267.476 208.373 267.501C208.362 267.525 208.357 267.553 208.359 267.58C208.346 267.656 208.349 267.734 208.369 267.808C208.388 267.881 208.424 267.947 208.471 267.999C208.683 268.223 209.208 268.242 209.897 268.072C209.481 267.75 209.015 267.536 208.529 267.443L208.545 267.442Z" fill="#4CAF4F"/>
<path d="M210.129 268.256C210.115 268.262 210.1 268.262 210.086 268.257C209.681 267.99 208.913 266.933 209.019 266.389C209.034 266.303 209.074 266.225 209.13 266.17C209.187 266.114 209.257 266.083 209.331 266.081C209.402 266.069 209.475 266.075 209.545 266.1C209.615 266.125 209.679 266.167 209.734 266.225C210.184 266.678 210.229 268.087 210.23 268.158C210.233 268.179 210.23 268.201 210.221 268.22C210.213 268.239 210.199 268.254 210.183 268.262C210.165 268.267 210.146 268.265 210.129 268.256ZM209.387 266.294L209.349 266.294C209.226 266.296 209.211 266.38 209.206 266.412C209.146 266.73 209.633 267.532 210.034 267.908C210.025 267.362 209.878 266.832 209.613 266.388C209.55 266.323 209.469 266.29 209.387 266.294Z" fill="#4CAF4F"/>
<path d="M194.868 267.816C194.542 267.958 194.185 267.963 193.856 267.829C193.781 267.781 193.717 267.712 193.67 267.626C193.623 267.541 193.595 267.443 193.587 267.341C193.58 267.277 193.586 267.212 193.605 267.152C193.624 267.092 193.655 267.039 193.696 266.997C194.118 266.526 195.875 266.969 196.074 267.057C196.093 267.063 196.11 267.076 196.121 267.095C196.133 267.114 196.14 267.136 196.139 267.16C196.141 267.184 196.136 267.208 196.125 267.229C196.115 267.25 196.1 267.267 196.082 267.277C195.69 267.497 195.284 267.677 194.868 267.816ZM193.985 267.058C193.924 267.074 193.868 267.108 193.821 267.157C193.804 267.173 193.791 267.194 193.784 267.218C193.777 267.242 193.775 267.268 193.78 267.293C193.784 267.361 193.802 267.427 193.833 267.484C193.864 267.541 193.906 267.588 193.955 267.621C194.241 267.798 194.898 267.648 195.744 267.204C195.168 267.036 194.574 266.987 193.985 267.058Z" fill="#4CAF4F"/>
<path d="M196.066 267.277L196.023 267.278C195.486 267.168 194.406 266.438 194.367 265.883C194.365 265.754 194.411 265.572 194.667 265.465C194.753 265.427 194.845 265.41 194.937 265.415C195.029 265.421 195.12 265.449 195.203 265.497C195.785 265.833 196.106 267.07 196.123 267.128C196.127 267.147 196.127 267.168 196.122 267.187C196.118 267.206 196.109 267.224 196.098 267.238C196.09 267.254 196.079 267.268 196.066 267.277ZM194.776 265.658L194.723 265.659C194.558 265.732 194.559 265.816 194.559 265.842C194.563 266.178 195.347 266.782 195.891 266.982C195.76 266.465 195.49 266.013 195.125 265.699C195.017 265.634 194.892 265.62 194.776 265.658Z" fill="#4CAF4F"/>
<path d="M186.653 132.611L181.108 135.785L180.485 137.733L182.567 139.381C182.567 139.381 186.416 138.828 187.475 135.821L186.653 132.611Z" fill="#E58A7B"/>
<path d="M186.939 136.636C186.798 135.342 186.428 134.098 185.854 132.99L186.728 132.177C187.408 133.454 187.851 134.894 188.023 136.396L186.939 136.636Z" fill="#263238"/>
<path d="M187.853 133.514C187.974 133.737 188.035 133.999 188.029 134.264C188.022 134.53 187.948 134.786 187.816 134.998C187.684 135.21 187.502 135.368 187.292 135.45C187.083 135.531 186.858 135.533 186.648 135.455C186.437 135.377 186.251 135.222 186.115 135.012C185.98 134.802 185.9 134.548 185.889 134.282C185.877 134.017 185.933 133.754 186.05 133.529C186.166 133.305 186.338 133.129 186.54 133.027C186.767 132.883 187.032 132.853 187.278 132.945C187.524 133.036 187.731 133.241 187.853 133.514Z" fill="#263238"/>
<path d="M177.365 138.341L178.121 139.237L183.099 136.587L181.108 135.785L177.365 138.341Z" fill="#E58A7B"/>
<path opacity="0.2" d="M200.381 256.225C200.413 256.224 201.172 258.685 201.172 258.685L193.81 262.541L192.61 259.931L200.381 256.225Z" fill="black"/>
<path opacity="0.2" d="M215.567 259.168C215.599 259.168 215.845 261.654 215.845 261.654L207.728 261.757L207.114 258.907L215.567 259.168Z" fill="black"/>
<path d="M212.378 106.469C213.923 112.184 208.267 120.098 208.267 120.098L200.266 116.282C201.167 112.955 202.212 109.69 203.398 106.498C205.759 100.113 210.816 100.702 212.378 106.469Z" fill="#4CAF4F"/>
<path opacity="0.2" d="M212.378 106.469C213.923 112.184 208.267 120.098 208.267 120.098L200.266 116.282C201.167 112.955 202.212 109.69 203.398 106.498C205.759 100.113 210.816 100.702 212.378 106.469Z" fill="black"/>
<path d="M132.647 50.0211L129.226 50.0645L129.234 50.7303L132.655 50.6869L132.647 50.0211Z" fill="#4CAF4F"/>
<path d="M177.267 75.8126L176.994 86.9125L177.545 86.9355L177.819 75.8356L177.267 75.8126Z" fill="#4CAF4F"/>
<path d="M175.907 52.4595L112.731 53.2607L108.866 212.179L172.042 211.378L175.907 52.4595Z" fill="#4CAF4F"/>
<path opacity="0.56" d="M174.05 54.6684L110.874 55.4695L107.01 214.388L170.186 213.587L174.05 54.6684Z" fill="#FAFAFA"/>
<path opacity="0.07" d="M172.193 56.8707L109.017 57.6718L105.147 216.59L168.323 215.789L172.193 56.8707Z" fill="#4CAF4F"/>
<path d="M165.881 126.241L111.957 126.925L111.661 139.084L165.585 138.4L165.881 126.241Z" fill="white"/>
<path d="M141.499 117.68L112.171 118.052L112.042 123.491L141.37 123.119L141.499 117.68Z" fill="#4CAF4F"/>
<path d="M165.082 159.057L111.157 159.741L110.862 171.9L164.786 171.216L165.082 159.057Z" fill="white"/>
<path opacity="0.47" d="M155.555 187.749L119.293 188.208L118.937 202.78L155.199 202.32L155.555 187.749Z" fill="#4CAF4F"/>
<path d="M153.343 204.606L117.081 205.066C117.066 205.071 117.049 205.072 117.033 205.067C117.028 205.048 117.027 205.028 117.033 205.009L117.383 190.431C117.383 190.421 117.385 190.411 117.388 190.402C117.391 190.393 117.396 190.385 117.402 190.378C117.408 190.371 117.415 190.366 117.422 190.363C117.43 190.36 117.438 190.358 117.446 190.359L153.708 189.899C153.715 189.895 153.722 189.893 153.73 189.893C153.737 189.893 153.745 189.895 153.751 189.899C153.755 189.907 153.757 189.915 153.757 189.925C153.757 189.934 153.756 189.943 153.752 189.95L153.412 204.56C153.406 204.575 153.396 204.588 153.384 204.596C153.372 204.605 153.357 204.608 153.343 204.606ZM117.144 204.91L153.277 204.452L153.63 190.03L117.496 190.488L117.144 204.91Z" fill="white"/>
<path d="M135.582 150.56L111.371 150.867L111.242 156.313L135.447 156.006L135.582 150.56Z" fill="#4CAF4F"/>
<path d="M153.589 87.1323C153.495 90.671 152.496 94.0827 150.73 96.8991C149.423 99.0261 147.728 100.761 145.775 101.97C143.823 103.18 141.665 103.832 139.466 103.876C137.69 103.915 135.924 103.514 134.277 102.699C132.631 101.883 131.138 100.67 129.891 99.1339C128.645 97.5979 127.671 95.7715 127.029 93.7673C126.388 91.763 126.092 89.6234 126.161 87.4801C126.293 83.0328 127.827 78.8225 130.45 75.7102C133.073 72.5979 136.587 70.8188 140.272 70.7367C142.05 70.6941 143.818 71.0922 145.466 71.9062C147.115 72.7203 148.61 73.9331 149.858 75.4697C151.106 77.0063 152.081 78.834 152.722 80.84C153.364 82.8459 153.659 84.9875 153.589 87.1323Z" fill="white"/>
<path d="M154.713 74.019C154.69 74.9599 154.424 75.8673 153.953 76.6149C153.605 77.1798 153.154 77.6406 152.634 77.962C152.115 78.2835 151.541 78.4571 150.957 78.4696C150.39 78.481 149.83 78.3247 149.323 78.0144C148.817 77.7041 148.381 77.2493 148.053 76.6897C147.619 75.9333 147.397 75.0293 147.421 74.1115C147.458 72.9307 147.866 71.8135 148.563 70.9877C149.26 70.1619 150.193 69.6897 151.172 69.6674C151.644 69.6562 152.113 69.7619 152.551 69.9779C152.989 70.1939 153.386 70.5156 153.718 70.9233C154.05 71.331 154.309 71.816 154.48 72.3484C154.651 72.8808 154.73 73.4494 154.713 74.019Z" fill="#4CAF4F"/>
<path d="M117.843 132.928C117.824 133.449 117.641 133.941 117.333 134.305C117.025 134.669 116.613 134.877 116.181 134.889C115.972 134.894 115.765 134.848 115.571 134.753C115.377 134.658 115.201 134.516 115.055 134.336C114.908 134.156 114.793 133.942 114.717 133.707C114.641 133.472 114.606 133.221 114.614 132.969C114.631 132.446 114.812 131.953 115.121 131.588C115.43 131.224 115.843 131.016 116.276 131.008C116.485 131.003 116.692 131.05 116.885 131.145C117.078 131.241 117.254 131.383 117.4 131.562C117.547 131.742 117.662 131.956 117.738 132.191C117.814 132.425 117.85 132.676 117.843 132.928Z" fill="#263238"/>
<path d="M125.06 132.836C125.042 133.358 124.86 133.851 124.551 134.215C124.243 134.579 123.83 134.787 123.398 134.797C123.19 134.802 122.983 134.755 122.79 134.66C122.596 134.564 122.421 134.422 122.275 134.242C122.129 134.063 122.015 133.849 121.939 133.614C121.864 133.379 121.829 133.128 121.837 132.877C121.853 132.356 122.034 131.863 122.342 131.499C122.649 131.134 123.061 130.926 123.493 130.917C123.702 130.911 123.909 130.957 124.103 131.052C124.297 131.147 124.472 131.289 124.619 131.469C124.766 131.649 124.881 131.863 124.957 132.098C125.032 132.333 125.068 132.585 125.06 132.836Z" fill="#263238"/>
<path d="M132.282 132.745C132.264 133.266 132.083 133.759 131.774 134.124C131.465 134.488 131.053 134.696 130.62 134.705C130.412 134.71 130.205 134.663 130.011 134.568C129.818 134.473 129.643 134.331 129.496 134.151C129.349 133.971 129.234 133.758 129.158 133.523C129.082 133.288 129.047 133.037 129.054 132.786C129.072 132.264 129.253 131.771 129.562 131.407C129.871 131.042 130.283 130.834 130.716 130.825C130.924 130.819 131.132 130.865 131.326 130.96C131.519 131.055 131.695 131.197 131.842 131.377C131.989 131.557 132.103 131.771 132.179 132.006C132.255 132.242 132.29 132.493 132.282 132.745Z" fill="#263238"/>
<path d="M117.043 165.744C117.024 166.265 116.842 166.757 116.534 167.121C116.225 167.485 115.814 167.693 115.381 167.704C115.173 167.709 114.966 167.662 114.772 167.567C114.579 167.472 114.404 167.33 114.257 167.15C114.11 166.97 113.996 166.757 113.919 166.522C113.843 166.287 113.808 166.036 113.815 165.785C113.833 165.263 114.014 164.77 114.323 164.406C114.632 164.041 115.044 163.833 115.477 163.824C115.685 163.819 115.892 163.866 116.086 163.961C116.279 164.056 116.454 164.198 116.601 164.378C116.748 164.558 116.863 164.772 116.939 165.006C117.015 165.241 117.05 165.492 117.043 165.744Z" fill="#263238"/>
<path d="M124.26 165.652C124.242 166.173 124.061 166.665 123.754 167.029C123.446 167.393 123.035 167.602 122.604 167.613C122.395 167.618 122.188 167.572 121.994 167.477C121.8 167.382 121.624 167.241 121.478 167.061C121.331 166.881 121.216 166.667 121.14 166.431C121.064 166.196 121.029 165.945 121.037 165.693C121.055 165.171 121.237 164.678 121.545 164.314C121.854 163.95 122.267 163.742 122.699 163.732C122.907 163.728 123.114 163.774 123.307 163.87C123.5 163.965 123.675 164.107 123.822 164.287C123.968 164.467 124.082 164.681 124.158 164.915C124.233 165.15 124.268 165.401 124.26 165.652Z" fill="#263238"/>
<path d="M131.499 165.56C131.481 166.082 131.299 166.575 130.991 166.939C130.682 167.304 130.269 167.511 129.837 167.521C129.629 167.525 129.422 167.477 129.229 167.382C129.036 167.286 128.861 167.144 128.714 166.965C128.568 166.785 128.453 166.572 128.377 166.337C128.3 166.103 128.264 165.853 128.27 165.601C128.29 165.08 128.472 164.588 128.78 164.224C129.088 163.86 129.5 163.652 129.932 163.641C130.141 163.635 130.349 163.681 130.542 163.776C130.736 163.871 130.912 164.013 131.058 164.193C131.205 164.373 131.32 164.587 131.396 164.822C131.472 165.057 131.507 165.309 131.499 165.56Z" fill="#263238"/>
<path d="M138.705 165.469C138.686 165.99 138.504 166.482 138.196 166.846C137.887 167.21 137.475 167.419 137.043 167.43C136.835 167.433 136.628 167.386 136.435 167.29C136.242 167.195 136.067 167.053 135.921 166.873C135.774 166.694 135.659 166.48 135.583 166.246C135.507 166.012 135.47 165.761 135.477 165.51C135.496 164.989 135.678 164.497 135.986 164.133C136.295 163.769 136.707 163.56 137.139 163.549C137.347 163.545 137.554 163.591 137.748 163.687C137.941 163.782 138.116 163.924 138.263 164.103C138.41 164.283 138.525 164.497 138.601 164.732C138.677 164.967 138.712 165.217 138.705 165.469Z" fill="#263238"/>
<path d="M145.954 165.377C145.935 165.898 145.753 166.39 145.445 166.754C145.136 167.118 144.725 167.327 144.292 167.338C144.084 167.343 143.876 167.297 143.683 167.202C143.489 167.107 143.313 166.966 143.166 166.786C143.02 166.606 142.905 166.391 142.829 166.156C142.753 165.921 142.718 165.67 142.726 165.418C142.744 164.896 142.926 164.403 143.234 164.039C143.543 163.675 143.955 163.467 144.388 163.457C144.596 163.453 144.803 163.499 144.997 163.595C145.19 163.69 145.366 163.832 145.512 164.012C145.659 164.191 145.774 164.405 145.85 164.64C145.926 164.875 145.961 165.126 145.954 165.377Z" fill="#263238"/>
<path d="M143.857 86.3929C146.064 83.7186 146.129 79.476 144.002 76.9168C141.875 74.3576 138.362 74.451 136.154 77.1253C133.947 79.7997 133.882 84.0423 136.009 86.6015C138.136 89.1606 141.649 89.0673 143.857 86.3929Z" fill="#4CAF4F"/>
<path d="M150.73 96.8991C149.423 99.0261 147.728 100.761 145.775 101.97C143.823 103.18 141.665 103.832 139.466 103.876C137.335 103.925 135.223 103.34 133.318 102.172C131.414 101.004 129.774 99.2901 128.543 97.1804C131.106 94.0187 135.197 91.9237 139.758 91.8659C144.32 91.808 148.318 93.8004 150.73 96.8991Z" fill="#4CAF4F"/>
<path opacity="0.1" d="M143.857 86.3929C146.064 83.7186 146.129 79.476 144.002 76.9168C141.875 74.3576 138.362 74.451 136.154 77.1253C133.947 79.7997 133.882 84.0423 136.009 86.6015C138.136 89.1606 141.649 89.0673 143.857 86.3929Z" fill="white"/>
<path opacity="0.1" d="M150.73 96.8991C149.423 99.0261 147.728 100.761 145.775 101.97C143.823 103.18 141.665 103.832 139.466 103.876C137.335 103.925 135.223 103.34 133.318 102.172C131.414 101.004 129.774 99.2901 128.543 97.1804C131.106 94.0187 135.197 91.9237 139.758 91.8659C144.32 91.808 148.318 93.8004 150.73 96.8991Z" fill="white"/>
<path d="M69.2354 148.005C68.5981 149.708 67.9284 151.583 67.3481 153.4C66.7677 155.217 66.1743 157.091 65.6639 158.956C64.6202 162.631 63.8376 166.404 63.3242 170.234L63.1868 171.434C63.1749 171.639 63.1939 171.846 63.2431 172.044C63.4153 172.718 63.6811 173.353 64.0298 173.925C64.9392 175.406 65.9895 176.76 67.1602 177.961C68.3951 179.277 69.6887 180.515 71.0354 181.669C72.382 182.859 73.7976 184.014 75.1915 185.105L73.9311 187.982C70.6148 186.337 67.4607 184.269 64.5252 181.817C62.9591 180.509 61.5412 178.971 60.3061 177.241C59.5739 176.211 58.9983 175.041 58.6047 173.782C58.3752 172.995 58.2524 172.172 58.2409 171.341C58.2384 171.146 58.2348 170.861 58.233 170.722L58.228 170.323L58.287 169.507C58.6307 165.256 59.3372 161.058 60.3959 156.977C60.9113 154.965 61.4615 152.961 62.0955 151.005C62.7296 149.049 63.3849 147.133 64.1988 145.142L69.2354 148.005Z" fill="#E58A7B"/>
<path d="M74.2073 184.612L79.0727 181.633L77.884 187.973C77.884 187.973 74.535 189.124 72.9505 187.22L74.2073 184.612Z" fill="#E58A7B"/>
<path d="M83.5722 182.611L82.335 187.859L77.884 187.973L79.0728 181.633L83.5722 182.611Z" fill="#E58A7B"/>
<path d="M89.6643 117.229C89.9408 118.355 90.3196 119.443 90.7942 120.475C90.6617 120.656 90.4898 120.792 90.2966 120.867C90.1034 120.943 89.8963 120.956 89.697 120.904L89.6643 117.229Z" fill="#DF5753"/>
<path d="M89.5194 117.279C89.8066 117.276 90.0341 116.853 90.0276 116.336C90.021 115.818 89.7829 115.401 89.4956 115.405C89.2084 115.409 88.9809 115.831 88.9875 116.349C88.994 116.866 89.2322 117.283 89.5194 117.279Z" fill="#263238"/>
<path d="M89.3434 115.44L90.393 115.076C90.393 115.076 89.892 116.044 89.3434 115.44Z" fill="#263238"/>
<path d="M76.198 123.382C76.877 127.164 77.5962 134.107 75.3678 136.67C75.3678 136.67 76.3041 140.506 82.3021 140.43C88.8963 140.346 85.4013 136.543 85.4013 136.543C81.7898 135.578 81.8401 132.44 82.4337 129.481L76.198 123.382Z" fill="#E58A7B"/>
<path d="M74.3342 114.766C74.7473 121.094 74.8092 123.783 77.5686 127C81.7286 131.838 88.2507 129.897 89.4537 123.589C90.5394 117.87 89.6853 108.491 84.3766 106.039C83.2112 105.493 81.9477 105.305 80.7057 105.492C79.4637 105.68 78.2843 106.237 77.2789 107.11C76.2735 107.984 75.4754 109.146 74.9601 110.485C74.4448 111.825 74.2294 113.298 74.3342 114.766Z" fill="#E58A7B"/>
<path d="M74.7779 107.636C72.0883 108.828 68.4716 108.01 70.0105 117.796C71.6399 128.159 69.3811 131.603 69.3811 131.603C69.3811 131.603 79.6691 134.04 90.105 131.185C90.105 131.185 86.8251 124.657 87.6582 119.805C88.7248 113.678 87.7947 111.432 87.7947 111.432C87.7947 111.432 78.5571 105.958 74.7779 107.636Z" fill="#263238"/>
<path d="M86.3511 117.915C86.3692 119.119 86.6775 120.293 87.2401 121.302C87.9919 122.613 88.8522 122.097 89.0494 120.692C89.228 119.459 89.0548 117.285 88.1079 116.45C87.1611 115.614 86.3465 116.456 86.3511 117.915Z" fill="#E58A7B"/>
<path d="M72.4408 108.734C71.6316 106.176 75.2843 102.177 83.1404 103.708C90.9965 105.238 91.4335 112.903 91.4335 112.903L89.8244 110.706L89.9233 113.036L81.896 114.955L72.4408 108.734Z" fill="#263238"/>
<path d="M73.4666 137.127C73.4156 136.755 73.49 136.375 73.6739 136.069C73.8579 135.762 74.1368 135.552 74.4513 135.484C76.8861 134.98 82.4211 133.948 85.2144 134.369C87.2989 134.685 87.8578 136.096 87.9627 137.261C87.9794 137.464 87.9588 137.67 87.9022 137.863C87.8457 138.057 87.7545 138.234 87.6348 138.382C87.5152 138.53 87.3698 138.646 87.2085 138.723C87.0471 138.799 86.8736 138.834 86.6995 138.825L74.6401 138.342C74.3558 138.329 74.0837 138.201 73.8698 137.979C73.656 137.758 73.5135 137.457 73.4666 137.127Z" fill="#4CAF4F"/>
<path opacity="0.6" d="M73.4666 137.127C73.4156 136.755 73.49 136.375 73.6739 136.069C73.8579 135.762 74.1368 135.552 74.4513 135.484C76.8861 134.98 82.4211 133.948 85.2144 134.369C87.2989 134.685 87.8578 136.096 87.9627 137.261C87.9794 137.464 87.9588 137.67 87.9022 137.863C87.8457 138.057 87.7545 138.234 87.6348 138.382C87.5152 138.53 87.3698 138.646 87.2085 138.723C87.0471 138.799 86.8736 138.834 86.6995 138.825L74.6401 138.342C74.3558 138.329 74.0837 138.201 73.8698 137.979C73.656 137.758 73.5135 137.457 73.4666 137.127Z" fill="black"/>
<path d="M82.2407 279.411L86.7594 283.005L94.0901 270.988L89.5714 267.402L82.2407 279.411Z" fill="#E58A7B"/>
<path d="M71.8089 279.307L76.5711 282.409L83.0332 269.718L78.271 266.616L71.8089 279.307Z" fill="#E58A7B"/>
<path d="M94.0831 270.988L90.3057 277.181L85.787 273.595L89.5644 267.402L94.0831 270.988Z" fill="#CF6F64"/>
<path d="M78.2641 266.616L83.0333 269.726L79.7041 276.264L74.9349 273.154L78.2641 266.616Z" fill="#CF6F64"/>
<path d="M84.7121 176.793C84.7121 176.793 102.5 202.43 99.5338 227.206C97.1452 247.214 82.164 274.456 82.164 274.456L74.9062 270.343C79.8327 258.319 84.0093 245.888 87.4033 233.146C88.4495 229.191 88.7165 225.004 88.1839 220.902C87.6513 216.8 86.3331 212.889 84.3289 209.466C75.2886 194.396 61.2301 203.614 70.428 176.974L84.7121 176.793Z" fill="#4CAF4F"/>
<path opacity="0.6" d="M84.7121 176.793C84.7121 176.793 102.5 202.43 99.5338 227.206C97.1452 247.214 82.164 274.456 82.164 274.456L74.9062 270.343C79.8327 258.319 84.0093 245.888 87.4033 233.146C88.4495 229.191 88.7165 225.004 88.1839 220.902C87.6513 216.8 86.3331 212.889 84.3289 209.466C75.2886 194.396 61.2301 203.614 70.428 176.974L84.7121 176.793Z" fill="black"/>
<path opacity="0.4" d="M93.4861 193.293L90.9106 190.359C90.9136 190.595 96.2822 226.203 97.7892 236.21C98.5663 233.271 99.1519 230.267 99.5408 227.222C101.009 215.066 97.4615 202.714 93.4861 193.293Z" fill="black"/>
<path d="M92.5059 176.694C92.5059 176.694 113.942 208.928 114.785 228.406C115.484 244.699 92.5103 276.575 92.5103 276.575L85.6495 271.494C85.6495 271.494 99.0459 248.893 102.26 230.529C100.698 212.389 72.0922 176.953 72.0922 176.953L92.5059 176.694Z" fill="#4CAF4F"/>
<path opacity="0.6" d="M92.5059 176.694C92.5059 176.694 113.942 208.928 114.785 228.406C115.484 244.699 92.5103 276.575 92.5103 276.575L85.6495 271.494C85.6495 271.494 99.0459 248.893 102.26 230.529C100.698 212.389 72.0922 176.953 72.0922 176.953L92.5059 176.694Z" fill="black"/>
<path d="M66.0045 138.24C63.7658 138.896 61.7311 148.524 61.7311 148.524L70.6039 155.307C70.6039 155.307 73.4338 147.674 72.3654 144.362C71.2605 140.912 68.8166 137.414 66.0045 138.24Z" fill="#4CAF4F"/>
<path opacity="0.2" d="M67.8027 144.404L67.2986 152.781L70.5972 155.315C71.4687 152.917 72.1047 150.41 72.4928 147.841L67.8027 144.404Z" fill="black"/>
<path d="M94.6168 138.065C94.6168 138.065 97.2236 139.099 92.5058 176.686L70.414 176.966C70.6541 166.367 70.5784 159.847 66.0046 138.24C69.0884 137.452 72.2177 136.927 75.3679 136.67C78.7046 136.347 82.0577 136.304 85.4015 136.543C89.7203 136.953 94.6168 138.065 94.6168 138.065Z" fill="#4CAF4F"/>
<path d="M96.9394 144.034C97.4593 145.658 98.0085 147.403 98.5846 149.083C99.1607 150.763 99.7097 152.492 100.293 154.197L102.057 159.293L102.503 160.567L102.733 161.2L102.841 161.516C102.842 161.573 102.842 161.573 102.842 161.565C102.712 161.357 102.544 161.186 102.35 161.066C102.073 160.88 101.762 160.775 101.444 160.76C101.18 160.753 100.918 160.815 100.677 160.941C100.36 161.116 100.361 161.189 100.368 161.181C100.425 161.126 100.475 161.062 100.518 160.992C100.894 160.394 101.218 159.754 101.485 159.08C101.802 158.326 102.104 157.524 102.406 156.713C102.995 155.075 103.535 153.381 104.075 151.671C104.615 149.96 105.128 148.234 105.626 146.492L107.141 141.272L109.821 142.053C109.341 145.776 108.707 149.403 107.936 153.097C107.564 154.936 107.122 156.759 106.618 158.599C106.366 159.524 106.087 160.44 105.766 161.382C105.432 162.403 105.017 163.385 104.527 164.315C104.347 164.628 104.146 164.925 103.928 165.203C103.58 165.657 103.154 166.021 102.679 166.27C102.258 166.49 101.799 166.596 101.338 166.581C100.821 166.565 100.315 166.395 99.8682 166.086C99.341 165.71 98.9007 165.186 98.5867 164.562C98.48 164.351 98.3872 164.14 98.3228 163.986L98.1872 163.678L97.9156 163.046L97.3726 161.79C96.6577 160.103 95.9426 158.401 95.3175 156.689C94.6925 154.977 94.0324 153.241 93.4139 151.496C92.7953 149.752 92.2392 148.006 91.709 146.122L96.9394 144.034Z" fill="#E58A7B"/>
<path d="M94.6168 138.065C97.2819 138.773 100.387 147.96 100.387 147.96L92.5898 155.957C92.5898 155.957 87.3519 145.965 88.343 142.635C89.3739 139.166 91.1375 137.139 94.6168 138.065Z" fill="#4CAF4F"/>
<path d="M108.359 138.339L111.098 135.582L113.07 139.086L111.686 142.046C111.686 142.046 109.456 144.519 107.444 143.298C107.116 142.465 107.028 141.53 107.193 140.635C107.358 139.74 107.768 138.934 108.359 138.339Z" fill="#E58A7B"/>
<path d="M116.104 135.526L115.908 136.417L111.529 137.337L111.077 135.582L116.104 135.526Z" fill="#E58A7B"/>
<path d="M93.0564 276.984L85.0614 271.07L86.4461 268.15L95.424 274.468L93.0564 276.984Z" fill="#4CAF4F"/>
<path d="M79.6652 281.946C78.9692 281.855 78.298 281.586 77.6995 281.156C77.6749 281.146 77.6534 281.128 77.6381 281.103C77.6228 281.079 77.6143 281.049 77.6139 281.019C77.6135 280.988 77.6212 280.958 77.6359 280.933C77.6506 280.908 77.6716 280.889 77.696 280.879C77.9099 280.795 79.7666 280.095 80.314 280.609C80.3756 280.668 80.4227 280.745 80.4507 280.832C80.4786 280.919 80.4863 281.013 80.4729 281.105C80.4651 281.252 80.4255 281.393 80.3579 281.517C80.2903 281.641 80.1969 281.742 80.0865 281.811C79.9577 281.895 79.8131 281.942 79.6652 281.946ZM78.0937 281.07C78.967 281.58 79.6628 281.759 79.9932 281.559C80.0651 281.511 80.1252 281.442 80.1678 281.359C80.2105 281.275 80.2342 281.181 80.2368 281.083C80.2352 280.953 80.2344 280.896 80.1716 280.864C79.8769 280.591 78.8395 280.816 78.0798 281.07L78.0937 281.07Z" fill="#263238"/>
<path d="M77.7488 281.212C77.7122 281.212 77.6771 281.195 77.6511 281.165C77.6405 281.142 77.6347 281.117 77.6344 281.092C77.6341 281.066 77.6392 281.041 77.6492 281.018C77.6483 280.945 78.0766 279.171 78.7788 278.762C78.8685 278.713 78.9663 278.686 79.0656 278.685C79.1649 278.684 79.2633 278.708 79.3543 278.755C79.4521 278.79 79.5373 278.862 79.5964 278.96C79.6555 279.059 79.6849 279.177 79.6802 279.297C79.6409 280.031 78.3848 281.058 77.8045 281.236L77.7488 281.212ZM79.0657 278.97C78.9983 278.974 78.9324 278.994 78.8723 279.03C78.4455 279.28 78.104 280.238 77.9379 280.819C78.5443 280.509 79.3732 279.7 79.3953 279.252C79.3943 279.178 79.3932 279.089 79.2327 279.009C79.1804 278.977 79.1238 278.956 79.0654 278.946L79.0657 278.97Z" fill="#263238"/>
<path d="M89.6047 285.341C88.8211 285.351 87.7175 284.183 87.112 283.466C87.0964 283.441 87.0878 283.411 87.0874 283.38C87.0871 283.35 87.0949 283.32 87.1098 283.295C87.1232 283.268 87.1423 283.246 87.1654 283.232C87.1884 283.217 87.2143 283.21 87.2405 283.211C87.5179 283.208 89.9293 283.601 90.2792 284.395C90.3161 284.467 90.3362 284.548 90.3372 284.631C90.3383 284.714 90.3203 284.796 90.2852 284.868C90.2359 284.993 90.1602 285.101 90.0654 285.182C89.9706 285.263 89.8598 285.315 89.7432 285.331L89.6047 285.341ZM87.5711 283.574C88.4573 284.557 89.2341 285.102 89.6701 285.031C89.7464 285.018 89.8189 284.984 89.8811 284.93C89.9433 284.877 89.9933 284.806 90.0268 284.725C90.042 284.697 90.0498 284.664 90.0494 284.631C90.049 284.597 90.0403 284.565 90.0244 284.537C89.8386 284.099 88.551 283.741 87.5711 283.574Z" fill="#263238"/>
<path d="M87.6468 283.532C87.4912 283.539 87.3353 283.528 87.1817 283.497C87.1602 283.494 87.1399 283.484 87.1227 283.468C87.1055 283.453 87.0919 283.432 87.0835 283.409C87.0728 283.385 87.0671 283.359 87.0667 283.332C87.0664 283.305 87.0714 283.278 87.0815 283.254C87.1224 283.197 88.0416 281.856 88.928 281.755C89.179 281.729 89.4291 281.82 89.6248 282.007C89.8987 282.281 89.8879 282.526 89.8206 282.681C89.6542 283.238 88.4581 283.522 87.6468 283.532ZM87.4627 283.233C88.2399 283.272 89.4773 282.955 89.6317 282.553C89.6317 282.553 89.6855 282.422 89.5029 282.245C89.4303 282.173 89.3458 282.119 89.2547 282.086C89.1636 282.054 89.0679 282.044 88.9735 282.056C88.3781 282.26 87.8509 282.674 87.4628 283.241L87.4627 283.233Z" fill="#263238"/>
<path d="M77.9248 280.33L72.0199 278.449C71.9181 278.414 71.8091 278.424 71.7138 278.478C71.6185 278.532 71.5436 278.625 71.5035 278.74L69.5868 284.006C69.5419 284.141 69.5219 284.285 69.528 284.43C69.5341 284.575 69.5662 284.716 69.6223 284.846C69.6783 284.975 69.7569 285.089 69.853 285.181C69.9491 285.272 70.0605 285.339 70.1798 285.376C72.2681 285.985 73.2688 286.152 75.8663 286.991C77.4677 287.492 79.7544 288.433 81.9618 289.139C84.1692 289.844 84.8722 287.317 84.0125 286.79C80.1268 284.443 79.8004 282.768 78.7237 280.988C78.5309 280.666 78.2481 280.433 77.9248 280.33Z" fill="#4CAF4F"/>
<path d="M87.2594 282.51L82.1875 278.499C82.1014 278.427 81.9961 278.395 81.8914 278.408C81.7868 278.422 81.6901 278.48 81.6197 278.571L78.3447 282.819C78.265 282.928 78.2061 283.057 78.172 283.196C78.1379 283.334 78.1293 283.48 78.1469 283.623C78.1645 283.767 78.2077 283.904 78.2738 284.026C78.34 284.148 78.4274 284.253 78.5304 284.332C80.3162 285.704 81.2386 286.254 83.4734 288.027C84.8743 289.118 87.589 291.545 89.4806 293.054C91.3722 294.562 92.7393 292.442 92.063 291.619C89.034 287.916 88.3524 285.577 87.8331 283.456C87.7428 283.072 87.5395 282.736 87.2594 282.51Z" fill="#4CAF4F"/>
<path d="M83.093 274.983L73.977 269.808L74.8765 266.911L84.6132 272.363L83.093 274.983Z" fill="#4CAF4F"/>
<path d="M70.0619 175.446L69.3289 177.803C69.2549 177.983 69.4376 178.168 69.6941 178.165L92.6319 177.874C92.833 177.872 92.9979 177.756 93.0099 177.609L93.1745 175.275C93.1726 175.121 93.0113 174.984 92.7964 174.987L70.4203 175.271C70.3528 175.264 70.2851 175.276 70.2227 175.307C70.1603 175.338 70.1052 175.385 70.0619 175.446Z" fill="#4CAF4F"/>
<path opacity="0.4" d="M70.0619 175.446L69.3289 177.803C69.2549 177.983 69.4376 178.168 69.6941 178.165L92.6319 177.874C92.833 177.872 92.9979 177.756 93.0099 177.609L93.1745 175.275C93.1726 175.121 93.0113 174.984 92.7964 174.987L70.4203 175.271C70.3528 175.264 70.2851 175.276 70.2227 175.307C70.1603 175.338 70.1052 175.385 70.0619 175.446Z" fill="white"/>
<path d="M73.7118 178.343L73.1086 178.35C72.9907 178.352 72.8996 178.28 72.9054 178.19L73.1514 175.163C73.1503 175.081 73.2604 175.006 73.3782 175.005L73.9815 174.997C74.0994 174.996 74.1905 175.068 74.1846 175.15L73.9386 178.177C73.9328 178.266 73.8297 178.341 73.7118 178.343Z" fill="#4CAF4F"/>
<path d="M87.8573 178.163L87.2609 178.171C87.143 178.172 87.052 178.1 87.0578 178.01L87.2968 174.983C87.2958 174.902 87.4127 174.827 87.5306 174.825L88.1269 174.818C88.2448 174.816 88.3428 174.888 88.33 174.97L88.0909 177.997C88.0574 178.087 87.9821 178.162 87.8573 178.163Z" fill="#4CAF4F"/>
<g style="mix-blend-mode:multiply">
<path d="M74.9349 316.362C85.1943 316.232 93.5022 315.419 93.4911 314.545C93.4801 313.672 85.1542 313.07 74.8949 313.2C64.6355 313.33 56.3276 314.143 56.3387 315.017C56.3497 315.89 64.6756 316.492 74.9349 316.362Z" fill="#F5F5F5"/>
</g>
<path d="M86.2029 312.405C82.902 311.322 79.2364 309.925 77.0122 308.446C76.9492 308.398 76.8796 308.374 76.8166 308.334L76.5949 290.845L83.2446 290.761C83.7489 290.719 84.2199 290.453 84.5613 290.016C84.9026 289.579 85.0885 289.005 85.081 288.41C85.0735 287.816 84.873 287.247 84.5207 286.819C84.1684 286.391 83.6908 286.136 83.1856 286.107L76.5705 286.191L75.5596 206.472L71.5656 206.523L72.5765 286.242L65.9684 286.326C65.6983 286.31 65.4287 286.36 65.176 286.472C64.9233 286.583 64.6929 286.755 64.499 286.975C64.305 287.195 64.1516 287.46 64.0482 287.753C63.9448 288.046 63.8935 288.361 63.8976 288.679C63.9016 288.997 63.9608 289.31 64.0716 289.601C64.1825 289.891 64.3425 290.152 64.542 290.367C64.7414 290.583 64.9761 290.748 65.2315 290.853C65.487 290.958 65.7578 291.001 66.0274 290.979L72.6355 290.895L72.857 308.36C72.7946 308.361 72.733 308.427 72.6712 308.476C70.451 310.037 66.8497 311.525 63.5769 312.667C63.3559 312.749 63.1674 312.921 63.0456 313.152C62.9237 313.384 62.8766 313.659 62.9127 313.929C62.9488 314.198 63.0658 314.444 63.2424 314.621C63.419 314.799 63.6437 314.897 63.8757 314.897L85.9605 314.617C86.1819 314.596 86.3903 314.487 86.5509 314.307C86.7116 314.127 86.8146 313.888 86.843 313.629C86.8714 313.371 86.8233 313.108 86.7068 312.885C86.5903 312.662 86.4125 312.492 86.2029 312.405Z" fill="#E0E0E0"/>
<path d="M85.7745 198.224L61.1171 198.537C59.1334 198.562 57.5492 200.473 57.5788 202.804L57.688 211.418C57.7176 213.75 59.3497 215.619 61.3334 215.594L85.9908 215.281C87.9745 215.256 89.5586 213.346 89.5291 211.014L89.4198 202.4C89.3903 200.069 87.7582 198.199 85.7745 198.224Z" fill="#4CAF4F"/>
<path d="M61.1047 215.605L61.1235 217.088C61.139 218.311 62.2819 219.291 63.6687 219.273L83.7774 219.018C85.1642 219.001 86.2818 217.992 86.2663 216.769L86.2475 215.286L61.1047 215.605Z" fill="#4CAF4F"/>
<path opacity="0.3" d="M61.1047 215.605L61.1235 217.088C61.139 218.311 62.2819 219.291 63.6687 219.273L83.7774 219.018C85.1642 219.001 86.2818 217.992 86.2663 216.769L86.2475 215.286L61.1047 215.605Z" fill="white"/>
</svg>
