<svg width="35" height="20" viewBox="0 0 35 20" fill="none" xmlns="http://www.w3.org/2000/svg">
<path d="M17.3728 0.393433C14.8869 0.393433 12.8632 2.43562 12.8632 4.93204C12.8632 6.51131 13.6742 7.90573 14.8988 8.71853C13.4197 9.21308 12.1399 10.1374 11.2013 11.3466C10.6823 10.9474 10.1024 10.6263 9.47729 10.3963C10.4252 9.69254 11.0447 8.56205 11.0447 7.29147C11.0447 5.1742 9.33233 3.44095 7.22789 3.44095C5.12346 3.44095 3.41107 5.1742 3.41107 7.29147C3.41107 8.56277 4.03106 9.69379 4.97981 10.3976C2.46799 11.3244 0.674072 13.7512 0.674072 16.6072V18.6133C0.674329 18.7663 0.735505 18.9128 0.843975 19.0205C0.952444 19.1285 1.09922 19.1886 1.25216 19.1881H10.0539C10.0753 19.1904 10.0966 19.1917 10.1179 19.1914H24.6281C24.6494 19.1917 24.671 19.1904 24.6921 19.1881H33.4945C33.8109 19.1868 34.0672 18.93 34.068 18.6133V16.6072C34.068 13.7512 32.2772 11.3244 29.7667 10.3973C30.7154 9.69379 31.3354 8.56251 31.3354 7.2912C31.3354 5.17393 29.623 3.44069 27.5186 3.44069C25.4142 3.44069 23.7017 5.17393 23.7017 7.2912C23.7017 8.56179 24.3215 9.69248 25.2694 10.396C24.643 10.6266 24.0629 10.9487 23.5432 11.3489C22.605 10.1389 21.3269 9.21337 19.8479 8.71853C21.0722 7.90573 21.8835 6.51131 21.8835 4.93204C21.8835 2.43562 19.8587 0.393433 17.3729 0.393433H17.3728ZM17.3728 1.54498C19.232 1.54498 20.7307 3.05384 20.7307 4.93204C20.7307 6.79558 19.2553 8.28976 17.4167 8.31371C17.4021 8.31371 17.3877 8.31165 17.3728 8.31165C17.3579 8.31165 17.3437 8.31371 17.3288 8.31371C15.4902 8.29006 14.0158 6.79564 14.0158 4.93204C14.0158 3.05357 15.5133 1.54498 17.3725 1.54498H17.3728ZM7.22796 4.59244C8.70312 4.59244 9.89323 5.78972 9.89323 7.2914C9.89323 8.78302 8.71852 9.97517 7.25724 9.99135C7.24747 9.99135 7.23796 9.99032 7.22794 9.99032C7.21817 9.99032 7.20866 9.99135 7.19864 9.99135C5.73735 9.97516 4.56264 8.78275 4.56264 7.2914C4.56264 5.78978 5.75275 4.59244 7.22792 4.59244H7.22796ZM27.5182 4.59244C28.9934 4.59244 30.1835 5.78972 30.1835 7.2914C30.1835 8.78302 29.0088 9.97517 27.5475 9.99135C27.5377 9.99135 27.5282 9.99032 27.5182 9.99032C27.5084 9.99032 27.4989 9.99135 27.4889 9.99135C26.0276 9.97516 24.8529 8.78275 24.8529 7.2914C24.8529 5.78978 26.043 4.59244 27.5182 4.59244H27.5182ZM17.3287 9.46519C17.3433 9.46545 17.3577 9.46725 17.3726 9.46725C17.3873 9.46725 17.4017 9.46519 17.4166 9.46519C21.1038 9.48884 24.0548 12.4651 24.0548 16.1909L24.0545 18.0396H10.6913V16.1909C10.6913 12.4648 13.6414 9.48888 17.3282 9.46519H17.3287ZM7.18387 11.1442C7.19852 11.1445 7.21292 11.1463 7.22782 11.1463C7.24273 11.1463 7.25687 11.1442 7.27178 11.1442C8.51894 11.1542 9.65713 11.5843 10.5634 12.3037C9.91491 13.4512 9.53987 14.7757 9.53987 16.1912V18.0355H1.82516V16.6071C1.82516 13.5791 4.2059 11.1678 7.18373 11.144L7.18387 11.1442ZM27.4741 11.1442C27.489 11.1445 27.5032 11.1463 27.5181 11.1463C27.533 11.1463 27.5471 11.1442 27.562 11.1442C30.5399 11.1679 32.9206 13.5794 32.9206 16.6074V18.0355H25.202L25.2017 16.1912C25.2017 14.7765 24.8277 13.453 24.1805 12.3058C25.087 11.5853 26.226 11.1542 27.4742 11.1442H27.4741Z" fill="#103E13"/>
</svg>
