<svg width="24" height="22" viewBox="0 0 24 22" fill="none" xmlns="http://www.w3.org/2000/svg">
<path d="M15.1282 10.891C14.9605 10.891 14.8049 10.8449 14.6667 10.7708V10.7728C14.6667 11.0365 14.5642 11.2841 14.3782 11.4696C14.1923 11.6556 13.9448 11.7581 13.6814 11.7581C13.5113 11.7581 13.3537 11.7108 13.214 11.6347C13.1999 11.876 13.1035 12.1015 12.9315 12.2737C12.7455 12.4596 12.498 12.5621 12.2345 12.5621C11.7108 12.5621 11.2856 12.1505 11.2549 11.6346C11.0929 11.7222 10.9097 11.7681 10.7208 11.7559C10.2057 11.7222 9.80228 11.2771 9.80228 10.7424V6.31082L9.29766 7.18505C9.10546 7.51943 8.74567 7.72704 8.35831 7.72704C8.16955 7.72704 7.98309 7.67752 7.81795 7.58289C7.61231 7.46367 7.46521 7.27229 7.40404 7.04334C7.34254 6.81424 7.37435 6.57465 7.49325 6.36932C7.49341 6.36932 9.14432 3.51042 9.24503 3.33481C9.25701 3.3084 9.29112 3.23182 9.32015 3.16655C9.34786 3.10423 9.37164 3.04028 9.39443 2.97599C9.8923 1.57043 11.1251 0.69733 12.6118 0.69733C14.5425 0.69733 16.1132 2.40054 16.1132 4.49411L16.1134 9.9056C16.1134 10.169 16.011 10.4164 15.8252 10.6026C15.6393 10.7886 15.3918 10.891 15.1281 10.891L15.1282 10.891ZM12.6118 1.22087C11.3343 1.22087 10.3161 1.94246 9.88791 3.15108C9.86052 3.22783 9.83199 3.30458 9.79869 3.37936C9.7021 3.596 9.7021 3.596 9.67488 3.62715L9.67127 3.62404C9.53647 3.87839 9.136 4.57191 7.94657 6.63134C7.89769 6.71579 7.88474 6.81386 7.90967 6.90766C7.93492 7.00147 7.99544 7.08051 8.07924 7.12889C8.33933 7.27829 8.69553 7.18186 8.84377 6.92357L9.8374 5.20327C9.89677 5.10078 10.0168 5.05043 10.1319 5.08159C10.2464 5.11226 10.3259 5.21606 10.3259 5.33447V10.7426C10.3259 10.9978 10.5185 11.218 10.7551 11.2336C10.8916 11.2408 11.0188 11.195 11.1144 11.0996C11.2013 11.0127 11.2492 10.8969 11.2492 10.7731V7.2361C11.2492 7.09146 11.3665 6.9742 11.5111 6.9742C11.6558 6.9742 11.773 7.09129 11.773 7.2361L11.7729 11.577C11.7729 11.8316 11.98 12.0387 12.2345 12.0387C12.3581 12.0387 12.4742 11.9908 12.5613 11.9039C12.6482 11.8168 12.6961 11.7007 12.6961 11.577V7.23609C12.6961 7.09145 12.8132 6.9742 12.958 6.9742C13.1027 6.9742 13.2199 7.09129 13.2199 7.23609L13.2198 10.7324V10.7731C13.2198 11.0274 13.4269 11.2345 13.6816 11.2345C13.8051 11.2345 13.9208 11.1865 14.0084 11.0992C14.0953 11.0125 14.1432 10.8967 14.1432 10.7729V7.23591C14.1432 7.09127 14.2603 6.97402 14.4051 6.97402C14.5497 6.97402 14.667 7.09111 14.667 7.23591L14.6667 9.90572C14.6667 10.1604 14.8738 10.3675 15.1281 10.3675C15.2519 10.3675 15.3677 10.3195 15.4546 10.2327C15.5419 10.1455 15.5896 10.0294 15.5896 9.90572L15.5898 4.49423C15.5898 2.6895 14.2539 1.22093 12.6118 1.22093L12.6118 1.22087Z" fill="#103E13"/>
<path d="M4.83847 14.6522L8.63881 12.3724C9.097 12.0972 9.68655 12.2141 9.98043 12.6387C10.0877 12.7933 10.1425 12.9736 10.151 13.1571C10.2927 13.0831 10.4468 13.0429 10.6038 13.0429C10.6841 13.0429 10.7648 13.0529 10.8445 13.0728C11.0998 13.1366 11.315 13.2961 11.4503 13.5218C11.5858 13.7478 11.6253 14.0126 11.5615 14.2676C11.5026 14.5036 11.3591 14.7022 11.1595 14.8385C11.2991 14.9208 11.4195 15.0332 11.5051 15.1762C11.6405 15.4021 11.6801 15.6669 11.6164 15.9222C11.5526 16.1772 11.3931 16.3923 11.1671 16.528L11.1658 16.5288C11.3029 16.611 11.4211 16.7222 11.5057 16.863C11.6414 17.089 11.6809 17.3538 11.6171 17.6092C11.5531 17.8643 11.3936 18.0795 11.1679 18.215L6.52764 20.9988C5.66159 21.5181 4.66041 21.6974 3.70892 21.5031C2.74892 21.3069 1.95386 20.7551 1.47044 19.9492C0.7054 18.6742 0.820053 17.1677 1.76907 16.018C1.81253 15.9655 1.85533 15.912 1.8942 15.8566C1.93536 15.7981 1.98341 15.7292 1.99981 15.7056C2.09804 15.5301 3.70092 12.6422 3.70075 12.6425C3.86262 12.3504 4.166 12.1851 4.47889 12.1853C4.62485 12.1853 4.77293 12.2212 4.90954 12.297C5.07452 12.3891 5.2131 12.5234 5.31001 12.6853C5.50927 13.0174 5.51632 13.433 5.32871 13.7693L4.83847 14.6522ZM4.86126 12.9545C4.81042 12.8697 4.74056 12.8022 4.65512 12.7543C4.4785 12.6565 4.25613 12.7202 4.15889 12.8961C3.01194 14.9625 2.62096 15.6666 2.47008 15.9172L2.47352 15.918C2.4609 15.96 2.4609 15.96 2.32282 16.1573C2.27591 16.224 2.22491 16.2882 2.17293 16.3513C1.35688 17.34 1.26213 18.5842 1.91923 19.6798C2.32626 20.3584 2.99897 20.8237 3.8135 20.99C4.6369 21.1574 5.50475 21.0016 6.25799 20.5497L10.8987 17.7658C11.0046 17.7023 11.0794 17.6014 11.1093 17.4819C11.1391 17.3625 11.1206 17.2384 11.0569 17.1324C10.9261 16.9143 10.6419 16.8426 10.4238 16.974L8.13444 18.3475C8.01047 18.4219 7.84942 18.3819 7.77514 18.2577C7.70069 18.1338 7.74086 17.9729 7.86484 17.8984L10.1543 16.525L10.8979 16.0789C11.0038 16.0153 11.0788 15.9145 11.1086 15.7952C11.1385 15.6757 11.1199 15.5514 11.0563 15.4456C10.9253 15.2273 10.6411 15.1563 10.4231 15.2872L7.39008 17.1067C7.26578 17.1813 7.10522 17.141 7.03077 17.017C6.95632 16.893 6.99666 16.7321 7.12048 16.6577L10.8429 14.4246C10.9489 14.361 11.0237 14.2603 11.0535 14.1407C11.0834 14.0213 11.0648 13.8972 11.0014 13.7913C10.9379 13.6855 10.837 13.6107 10.7175 13.5809C10.5973 13.551 10.4736 13.5696 10.368 13.6329L9.67893 14.0463C9.67876 14.0463 9.67876 14.0464 9.6786 14.0464H9.67844L6.64557 15.866C6.52126 15.9407 6.36055 15.9004 6.28626 15.7762C6.21181 15.6523 6.25215 15.4914 6.37596 15.4169L9.409 13.5974C9.51494 13.5338 9.58988 13.433 9.61973 13.3137C9.65253 13.1829 9.6276 13.049 9.54986 12.9369C9.41506 12.7419 9.12677 12.6901 8.90817 12.8214L4.27083 15.6034C4.16932 15.6641 4.03927 15.6493 3.95416 15.5672C3.86889 15.4848 3.8497 15.3554 3.90709 15.252L4.87138 13.5146C4.96814 13.341 4.96436 13.1265 4.86121 12.9546L4.86126 12.9545Z" fill="#103E13"/>
<path d="M22.9982 19.9491C22.5149 20.7551 21.7201 21.3068 20.7599 21.5029C19.8082 21.697 18.8074 21.518 17.9412 20.9987L13.3005 18.2147C13.0747 18.0793 12.9149 17.8641 12.851 17.6086C12.7875 17.3536 12.8272 17.0887 12.9625 16.8631C13.0469 16.7221 13.1654 16.6109 13.3026 16.5287L13.3013 16.5279C13.0755 16.3924 12.9158 16.1773 12.8521 15.9221C12.7882 15.6669 12.8279 15.4019 12.9633 15.1759C13.0506 15.0308 13.1701 14.9173 13.3066 14.8368C13.1085 14.7005 12.9658 14.5026 12.9071 14.2677C12.8431 14.0124 12.8828 13.7475 13.0183 13.5219C13.1536 13.2961 13.3689 13.1365 13.6241 13.0727C13.7038 13.0527 13.7846 13.0429 13.8646 13.0429C14.0217 13.043 14.1759 13.0829 14.3176 13.157C14.3263 12.9735 14.3809 12.7933 14.4881 12.6386C14.7822 12.2144 15.3712 12.097 15.8301 12.3723L19.6303 14.6518L19.1405 13.7695C18.9525 13.4327 18.9594 13.0171 19.1587 12.6848C19.2558 12.5231 19.3945 12.3888 19.5603 12.2959C19.6966 12.2204 19.8442 12.1847 19.9898 12.1847C20.3025 12.1848 20.6062 12.3498 20.7679 12.6419C21.3314 13.6572 22.3947 15.572 22.4695 15.7056C22.4854 15.7288 22.5334 15.7976 22.5746 15.8562C22.6138 15.9118 22.6561 15.9649 22.6999 16.0177C23.6488 17.1679 23.7632 18.6742 22.9982 19.9491L22.9982 19.9491ZM22.2959 16.3515C22.2437 16.2883 22.1925 16.2239 22.146 16.1574C22.0043 15.9564 22.0007 15.9511 21.99 15.8985C21.8244 15.6245 21.4203 14.897 20.3096 12.8959C20.2122 12.7203 19.9908 12.6562 19.8145 12.7536C19.7277 12.8021 19.6581 12.8699 19.6072 12.9547C19.5042 13.1264 19.5003 13.3409 19.5975 13.515L20.5615 15.2519C20.6191 15.3555 20.5999 15.4847 20.5148 15.5671C20.4298 15.6496 20.2999 15.664 20.1979 15.6033L15.5606 12.8213C15.342 12.6903 15.0539 12.7416 14.9187 12.9368C14.841 13.0489 14.8162 13.1828 14.8487 13.3135C14.8785 13.4329 14.9535 13.5335 15.0596 13.5972C15.0599 13.5973 15.0601 13.5977 15.0604 13.5978L18.0925 15.4168C18.2164 15.4913 18.2566 15.652 18.1822 15.7761C18.1077 15.9 17.9472 15.9405 17.8229 15.8658L14.1004 13.6328C13.9948 13.5695 13.8705 13.5508 13.7511 13.5808C13.6314 13.6106 13.5307 13.6854 13.4672 13.7915C13.4036 13.8973 13.3852 14.0214 13.4147 14.1408C13.4446 14.2602 13.5195 14.3611 13.6255 14.4247L14.3498 14.8591L17.3478 16.6578C17.4718 16.7323 17.5119 16.893 17.4375 17.0171C17.363 17.1409 17.2025 17.1813 17.0782 17.1068L14.0455 15.2873C13.8274 15.1561 13.5433 15.2273 13.4121 15.4457C13.3485 15.5517 13.3301 15.6758 13.3597 15.7952C13.3895 15.9146 13.4644 16.0153 13.5705 16.0791L14.3141 16.5251L16.6032 17.8986C16.7272 17.973 16.7674 18.1337 16.6929 18.2579C16.6185 18.3817 16.4579 18.4224 16.3336 18.3476L14.0445 16.9741C13.9389 16.9108 13.8151 16.8921 13.695 16.9221C13.5756 16.952 13.4746 17.0268 13.4111 17.1325C13.3477 17.2385 13.3292 17.3628 13.3587 17.482C13.3885 17.6014 13.4635 17.7021 13.5696 17.7659L18.2103 20.5498C18.9633 21.0016 19.8318 21.158 20.6547 20.9901C21.4691 20.8238 22.1418 20.3586 22.5489 19.68C23.2066 18.5842 23.112 17.3398 22.2961 16.3514L22.2959 16.3515Z" fill="#103E13"/>
</svg>
