<svg width="24" height="22" viewBox="0 0 24 22" fill="none" xmlns="http://www.w3.org/2000/svg">
<mask id="path-1-inside-1_211_2339" fill="white">
<path d="M15.0112 10.7393C14.8436 10.7393 14.688 10.6932 14.5497 10.6191V10.6211C14.5497 10.8848 14.4472 11.1324 14.2613 11.3179C14.0753 11.5038 13.8279 11.6063 13.5645 11.6063C13.3944 11.6063 13.2368 11.5591 13.0971 11.483C13.083 11.7242 12.9865 11.9497 12.8145 12.1219C12.6285 12.3079 12.3811 12.4104 12.1175 12.4104C11.5939 12.4104 11.1686 11.9988 11.138 11.4828C10.976 11.5704 10.7928 11.6163 10.6039 11.6042C10.0887 11.5704 9.68534 11.1254 9.68534 10.5907V6.15908L9.18071 7.03332C8.98851 7.3677 8.62873 7.57531 8.24136 7.57531C8.05261 7.57531 7.86615 7.52578 7.70101 7.43116C7.49537 7.31194 7.34827 7.12056 7.28709 6.8916C7.2256 6.66251 7.25741 6.42292 7.3763 6.21758C7.37647 6.21758 9.02738 3.35869 9.12809 3.18307C9.14006 3.15667 9.17418 3.08009 9.2032 3.01482C9.23092 2.9525 9.2547 2.88855 9.27749 2.82426C9.77535 1.4187 11.0081 0.545597 12.4949 0.545597C14.4255 0.545597 15.9963 2.24881 15.9963 4.34237L15.9964 9.75386C15.9964 10.0172 15.8941 10.2647 15.7083 10.4508C15.5223 10.6368 15.2749 10.7393 15.0112 10.7393L15.0112 10.7393ZM12.4949 1.06914C11.2174 1.06914 10.1991 1.79073 9.77096 2.99935C9.74358 3.0761 9.71504 3.15285 9.68175 3.22763C9.58516 3.44426 9.58516 3.44426 9.55794 3.47542L9.55433 3.4723C9.41953 3.72666 9.01906 4.42017 7.82962 6.4796C7.78075 6.56406 7.76779 6.66213 7.79272 6.75593C7.81798 6.84974 7.87849 6.92878 7.96229 6.97716C8.22238 7.12655 8.57859 7.03012 8.72683 6.77184L9.72046 5.05154C9.77983 4.94904 9.89987 4.8987 10.015 4.92986C10.1295 4.96052 10.209 5.06433 10.209 5.18273V10.5909C10.209 10.846 10.4015 11.0663 10.6382 11.0818C10.7746 11.0891 10.9019 11.0433 10.9975 10.9479C11.0844 10.8609 11.1323 10.7452 11.1323 10.6214V7.08437C11.1323 6.93972 11.2495 6.82247 11.3942 6.82247C11.5388 6.82247 11.6561 6.93956 11.6561 7.08437L11.6559 11.4253C11.6559 11.6798 11.863 11.8869 12.1175 11.8869C12.2412 11.8869 12.3573 11.8391 12.4444 11.7521C12.5313 11.6651 12.5792 11.549 12.5792 11.4253V7.08436C12.5792 6.93972 12.6963 6.82246 12.8411 6.82246C12.9857 6.82246 13.103 6.93956 13.103 7.08436L13.1028 10.5807V10.6213C13.1028 10.8757 13.3099 11.0828 13.5646 11.0828C13.6881 11.0828 13.8039 11.0348 13.8915 10.9475C13.9784 10.8608 14.0263 10.745 14.0263 10.6212V7.08418C14.0263 6.93954 14.1434 6.82228 14.2882 6.82228C14.4328 6.82228 14.5501 6.93937 14.5501 7.08418L14.5497 9.75399C14.5497 10.0087 14.7568 10.2158 15.0112 10.2158C15.135 10.2158 15.2508 10.1677 15.3377 10.081C15.4249 9.99375 15.4727 9.87764 15.4727 9.75399L15.4728 4.3425C15.4728 2.53777 14.137 1.06919 12.4949 1.06919L12.4949 1.06914Z"/>
</mask>
<path d="M15.0112 10.7393C14.8436 10.7393 14.688 10.6932 14.5497 10.6191V10.6211C14.5497 10.8848 14.4472 11.1324 14.2613 11.3179C14.0753 11.5038 13.8279 11.6063 13.5645 11.6063C13.3944 11.6063 13.2368 11.5591 13.0971 11.483C13.083 11.7242 12.9865 11.9497 12.8145 12.1219C12.6285 12.3079 12.3811 12.4104 12.1175 12.4104C11.5939 12.4104 11.1686 11.9988 11.138 11.4828C10.976 11.5704 10.7928 11.6163 10.6039 11.6042C10.0887 11.5704 9.68534 11.1254 9.68534 10.5907V6.15908L9.18071 7.03332C8.98851 7.3677 8.62873 7.57531 8.24136 7.57531C8.05261 7.57531 7.86615 7.52578 7.70101 7.43116C7.49537 7.31194 7.34827 7.12056 7.28709 6.8916C7.2256 6.66251 7.25741 6.42292 7.3763 6.21758C7.37647 6.21758 9.02738 3.35869 9.12809 3.18307C9.14006 3.15667 9.17418 3.08009 9.2032 3.01482C9.23092 2.9525 9.2547 2.88855 9.27749 2.82426C9.77535 1.4187 11.0081 0.545597 12.4949 0.545597C14.4255 0.545597 15.9963 2.24881 15.9963 4.34237L15.9964 9.75386C15.9964 10.0172 15.8941 10.2647 15.7083 10.4508C15.5223 10.6368 15.2749 10.7393 15.0112 10.7393L15.0112 10.7393ZM12.4949 1.06914C11.2174 1.06914 10.1991 1.79073 9.77096 2.99935C9.74358 3.0761 9.71504 3.15285 9.68175 3.22763C9.58516 3.44426 9.58516 3.44426 9.55794 3.47542L9.55433 3.4723C9.41953 3.72666 9.01906 4.42017 7.82962 6.4796C7.78075 6.56406 7.76779 6.66213 7.79272 6.75593C7.81798 6.84974 7.87849 6.92878 7.96229 6.97716C8.22238 7.12655 8.57859 7.03012 8.72683 6.77184L9.72046 5.05154C9.77983 4.94904 9.89987 4.8987 10.015 4.92986C10.1295 4.96052 10.209 5.06433 10.209 5.18273V10.5909C10.209 10.846 10.4015 11.0663 10.6382 11.0818C10.7746 11.0891 10.9019 11.0433 10.9975 10.9479C11.0844 10.8609 11.1323 10.7452 11.1323 10.6214V7.08437C11.1323 6.93972 11.2495 6.82247 11.3942 6.82247C11.5388 6.82247 11.6561 6.93956 11.6561 7.08437L11.6559 11.4253C11.6559 11.6798 11.863 11.8869 12.1175 11.8869C12.2412 11.8869 12.3573 11.8391 12.4444 11.7521C12.5313 11.6651 12.5792 11.549 12.5792 11.4253V7.08436C12.5792 6.93972 12.6963 6.82246 12.8411 6.82246C12.9857 6.82246 13.103 6.93956 13.103 7.08436L13.1028 10.5807V10.6213C13.1028 10.8757 13.3099 11.0828 13.5646 11.0828C13.6881 11.0828 13.8039 11.0348 13.8915 10.9475C13.9784 10.8608 14.0263 10.745 14.0263 10.6212V7.08418C14.0263 6.93954 14.1434 6.82228 14.2882 6.82228C14.4328 6.82228 14.5501 6.93937 14.5501 7.08418L14.5497 9.75399C14.5497 10.0087 14.7568 10.2158 15.0112 10.2158C15.135 10.2158 15.2508 10.1677 15.3377 10.081C15.4249 9.99375 15.4727 9.87764 15.4727 9.75399L15.4728 4.3425C15.4728 2.53777 14.137 1.06919 12.4949 1.06919L12.4949 1.06914Z" fill="#4CAF4F"/>
<path d="M15.0112 10.7393V9.8112H18.2902L15.4976 11.5297L15.0112 10.7393ZM14.5497 10.6191H13.6216V9.06835L14.9883 9.80116L14.5497 10.6191ZM14.2613 11.3179L13.605 10.6616L13.6059 10.6607L14.2613 11.3179ZM13.0971 11.483L12.1706 11.4288L12.256 9.96818L13.5409 10.6679L13.0971 11.483ZM12.8145 12.1219L13.4711 12.7779L13.4708 12.7782L12.8145 12.1219ZM11.138 11.4828L10.6967 10.6664L11.9781 9.97383L12.0645 11.4278L11.138 11.4828ZM10.6039 11.6042L10.5444 12.5304L10.5431 12.5303L10.6039 11.6042ZM9.68534 6.15908L8.88154 5.69512L10.6134 2.69471V6.15908H9.68534ZM9.18071 7.03332L8.37607 6.57082L8.37691 6.56935L9.18071 7.03332ZM7.70101 7.43116L7.23959 8.23643L7.23553 8.23408L7.70101 7.43116ZM7.28709 6.8916L8.18346 6.651L8.18373 6.65204L7.28709 6.8916ZM7.3763 6.21758L6.57314 5.75252L6.84125 5.28949H7.3763V6.21758ZM9.12809 3.18307L9.97335 3.56633L9.95513 3.60652L9.93318 3.6448L9.12809 3.18307ZM9.2032 3.01482L8.35519 2.63769L8.35519 2.63768L9.2032 3.01482ZM9.27749 2.82426L10.1523 3.13414L10.1522 3.13439L9.27749 2.82426ZM15.9963 4.34237L15.0682 4.3424V4.34237H15.9963ZM15.9964 9.75386L16.9245 9.75384V9.75386H15.9964ZM15.7083 10.4508L16.3652 11.1065L16.3645 11.1071L15.7083 10.4508ZM15.0112 10.7393V11.6674H11.7322L14.5248 9.94889L15.0112 10.7393ZM12.4949 1.06914V0.141047H13.7253L13.3873 1.32411L12.4949 1.06914ZM9.77096 2.99935L10.6458 3.30927L10.6451 3.31127L9.77096 2.99935ZM9.68175 3.22763L10.5296 3.60508L10.5294 3.60557L9.68175 3.22763ZM9.55794 3.47542L10.2568 4.08607L9.64969 4.78096L8.95132 4.17782L9.55794 3.47542ZM9.55433 3.4723L8.73428 3.0377L9.2796 2.00874L10.1609 2.7699L9.55433 3.4723ZM7.82962 6.4796L8.6333 6.94377L8.63292 6.94444L7.82962 6.4796ZM7.79272 6.75593L6.89654 6.99721L6.89577 6.99431L7.79272 6.75593ZM7.96229 6.97716L7.50003 7.78193L7.49829 7.78093L7.96229 6.97716ZM8.72683 6.77184L7.92188 6.30985L7.92316 6.30765L8.72683 6.77184ZM9.72046 5.05154L8.91679 4.58735L8.91736 4.58637L9.72046 5.05154ZM10.015 4.92986L9.77482 5.82634L9.77252 5.82572L10.015 4.92986ZM10.6382 11.0818L10.5892 12.0087L10.5772 12.0079L10.6382 11.0818ZM10.9975 10.9479L11.6537 11.6041L11.6532 11.6047L10.9975 10.9479ZM11.6561 7.08437H12.5842V7.0844L11.6561 7.08437ZM11.6559 11.4253H10.7278V11.4253L11.6559 11.4253ZM12.4444 11.7521L13.1013 12.4078L13.1 12.409L12.4444 11.7521ZM13.103 7.08436H14.0311V7.0844L13.103 7.08436ZM13.1028 10.5807H12.1747V10.5806L13.1028 10.5807ZM13.8915 10.9475L14.5471 11.6044L14.5465 11.605L13.8915 10.9475ZM14.5501 7.08418H15.4781V7.08429L14.5501 7.08418ZM14.5497 9.75399H13.6216V9.75387L14.5497 9.75399ZM15.3377 10.081L15.994 10.7373L15.9933 10.7379L15.3377 10.081ZM15.4727 9.75399H14.5446V9.75396L15.4727 9.75399ZM15.4728 4.3425H16.4009V4.34252L15.4728 4.3425ZM12.4949 1.06919V1.99729H11.2645L11.6025 0.814227L12.4949 1.06919ZM15.0112 11.6674C14.6695 11.6674 14.3644 11.5728 14.1112 11.437L14.9883 9.80116C15.0003 9.80758 15.0079 9.81004 15.0109 9.81086C15.0135 9.81156 15.0132 9.8112 15.0112 9.8112V11.6674ZM15.4778 10.6191V10.6211H13.6216V10.6191H15.4778ZM15.4778 10.6211C15.4778 11.1301 15.2781 11.6146 14.9167 11.975L13.6059 10.6607C13.6125 10.6541 13.6158 10.6485 13.6177 10.6438C13.6196 10.6392 13.6216 10.632 13.6216 10.6211H15.4778ZM14.9175 11.9741C14.5574 12.3343 14.0738 12.5344 13.5645 12.5344V10.6782C13.5751 10.6782 13.5821 10.6763 13.5869 10.6743C13.5916 10.6724 13.5978 10.6689 13.605 10.6616L14.9175 11.9741ZM13.5645 12.5344C13.2183 12.5344 12.9093 12.4376 12.6532 12.2981L13.5409 10.6679C13.553 10.6745 13.5607 10.677 13.5637 10.6779C13.5663 10.6786 13.5661 10.6782 13.5645 10.6782V12.5344ZM14.0236 11.5372C13.9969 11.994 13.8116 12.4371 13.4711 12.7779L12.1579 11.466C12.1614 11.4626 12.1633 11.4595 12.165 11.4557C12.1669 11.4515 12.1697 11.443 12.1706 11.4288L14.0236 11.5372ZM13.4708 12.7782C13.1105 13.1384 12.6269 13.3385 12.1175 13.3385V11.4823C12.1283 11.4823 12.1354 11.4803 12.1401 11.4784C12.1449 11.4764 12.151 11.4729 12.1583 11.4657L13.4708 12.7782ZM12.1175 13.3385C11.0929 13.3385 10.2707 12.5343 10.2115 11.5379L12.0645 11.4278C12.0654 11.4436 12.0719 11.4575 12.0833 11.4683C12.0889 11.4737 12.0945 11.4771 12.0994 11.4791C12.1037 11.4809 12.1092 11.4823 12.1175 11.4823V13.3385ZM11.5793 12.2993C11.2795 12.4613 10.9241 12.5548 10.5444 12.5304L10.6634 10.678C10.6634 10.678 10.6654 10.6782 10.6703 10.6771C10.6755 10.6759 10.6846 10.6729 10.6967 10.6664L11.5793 12.2993ZM10.5431 12.5303C9.51264 12.4627 8.75724 11.5864 8.75724 10.5907H10.6134C10.6134 10.6221 10.6248 10.6463 10.6391 10.662C10.653 10.6774 10.6625 10.678 10.6646 10.6781L10.5431 12.5303ZM8.75724 10.5907V6.15908H10.6134V10.5907H8.75724ZM10.4891 6.62305L9.98451 7.49729L8.37691 6.56935L8.88154 5.69512L10.4891 6.62305ZM9.98535 7.49582C9.62673 8.11974 8.95919 8.5034 8.24136 8.5034V6.64721C8.29827 6.64721 8.3503 6.61566 8.37607 6.57082L9.98535 7.49582ZM8.24136 8.5034C7.89039 8.5034 7.54491 8.41137 7.23959 8.23642L8.16243 6.62589C8.18739 6.6402 8.21482 6.64721 8.24136 6.64721V8.5034ZM7.23553 8.23408C6.81884 7.99251 6.51555 7.59939 6.39045 7.13117L8.18373 6.65204C8.18289 6.64887 8.18057 6.64327 8.1761 6.63745C8.17167 6.63166 8.16756 6.62886 8.1665 6.62824L7.23553 8.23408ZM6.39073 7.13221C6.26514 6.66435 6.33089 6.17089 6.57314 5.75252L8.17947 6.68264C8.18079 6.68036 8.18311 6.67506 8.18411 6.66756C8.1851 6.66004 8.18427 6.65404 8.18345 6.651L6.39073 7.13221ZM7.3763 5.28949C6.92104 5.40882 6.58028 5.74041 6.57773 5.74469C6.57688 5.74612 6.57562 5.74827 6.57522 5.74895C6.57499 5.74935 6.57459 5.75002 6.57446 5.75025C6.57438 5.7504 6.57421 5.75069 6.57416 5.75076C6.57403 5.75098 6.57407 5.75091 6.57442 5.75031C6.57506 5.74922 6.57611 5.74739 6.57765 5.74473C6.5807 5.73946 6.58528 5.73153 6.59133 5.72106C6.60342 5.70016 6.62117 5.66942 6.64384 5.63017C6.68918 5.5517 6.75405 5.43937 6.83223 5.30399C6.98858 5.03326 7.19809 4.67043 7.41075 4.30212C7.83677 3.56426 8.27353 2.80761 8.323 2.72135L9.93318 3.6448C9.88193 3.73415 9.44289 4.49476 9.01823 5.23024C8.80555 5.59861 8.59601 5.96148 8.43962 6.23228C8.36143 6.36767 8.29652 6.48006 8.25114 6.55862C8.22846 6.59789 8.21063 6.62874 8.19846 6.6498C8.19239 6.66031 8.18768 6.66846 8.18446 6.67402C8.18287 6.67677 8.18156 6.67905 8.18059 6.68071C8.18015 6.68148 8.17959 6.68245 8.17905 6.68336C8.17886 6.6837 8.17826 6.68473 8.17755 6.68595C8.17709 6.68672 8.17579 6.68894 8.17492 6.69041C8.17235 6.69473 7.83157 7.02634 7.3763 7.14567V5.28949ZM8.28283 2.79982C8.29304 2.77728 8.32541 2.70464 8.35519 2.63769L10.0512 3.39195C10.0229 3.45554 9.98708 3.53606 9.97335 3.56633L8.28283 2.79982ZM8.35519 2.63768C8.36809 2.60868 8.38236 2.57162 8.40275 2.51413L10.1522 3.13439C10.127 3.20548 10.0937 3.29632 10.0512 3.39196L8.35519 2.63768ZM8.40266 2.51438C9.03125 0.739768 10.6134 -0.382496 12.4949 -0.382496V1.47369C11.4028 1.47369 10.5195 2.09763 10.1523 3.13414L8.40266 2.51438ZM12.4949 -0.382496C15.0075 -0.382496 16.9244 1.80844 16.9244 4.34237H15.0682C15.0682 2.68918 13.8436 1.47369 12.4949 1.47369V-0.382496ZM16.9244 4.34234L16.9245 9.75384L15.0683 9.75389L15.0682 4.3424L16.9244 4.34234ZM16.9245 9.75386C16.9245 10.2628 16.7248 10.7462 16.3652 11.1065L15.0514 9.7952C15.0588 9.78785 15.0623 9.7816 15.0643 9.77672C15.0664 9.77185 15.0683 9.76468 15.0683 9.75386H16.9245ZM16.3645 11.1071C16.0043 11.4674 15.5207 11.6674 15.0112 11.6674V9.81122C15.0221 9.81122 15.0292 9.80924 15.0339 9.80728C15.0387 9.80532 15.0448 9.80183 15.052 9.79459L16.3645 11.1071ZM14.5248 9.94889L14.5248 9.94887L15.4976 11.5297L15.4976 11.5297L14.5248 9.94889ZM12.4949 1.99723C11.6125 1.99723 10.9434 2.46927 10.6458 3.30927L8.89615 2.68943C9.45491 1.11218 10.8223 0.141047 12.4949 0.141047V1.99723ZM10.6451 3.31127C10.6158 3.39337 10.5777 3.49705 10.5296 3.60508L8.83388 2.85017C8.85237 2.80864 8.87138 2.75883 8.89686 2.68743L10.6451 3.31127ZM10.5294 3.60557C10.4869 3.7009 10.4513 3.78139 10.424 3.83592C10.4071 3.86977 10.3798 3.92192 10.3401 3.97969C10.2998 4.03822 10.2601 4.08237 10.2568 4.08607L8.85904 2.86477C8.86122 2.86227 8.8605 2.86308 8.8594 2.86436C8.85799 2.86601 8.85438 2.87021 8.84965 2.87598C8.84475 2.88196 8.83857 2.88968 8.83162 2.89885C8.82459 2.90811 8.81745 2.91796 8.81031 2.92835C8.79577 2.94951 8.78457 2.96804 8.77661 2.98206C8.76918 2.99514 8.76463 3.0042 8.76361 3.00624C8.76256 3.00834 8.76322 3.0071 8.76637 3.00035C8.76943 2.99381 8.77375 2.98439 8.77996 2.97067C8.78612 2.95708 8.79349 2.94066 8.80256 2.92036C8.81162 2.9001 8.82197 2.87689 8.8341 2.84968L10.5294 3.60557ZM8.95132 4.17782L8.94771 4.1747L10.1609 2.7699L10.1646 2.77302L8.95132 4.17782ZM10.3744 3.90691C10.2291 4.18098 9.81444 4.89871 8.6333 6.94377L7.02594 6.01543C8.22368 3.94164 8.60994 3.27233 8.73428 3.0377L10.3744 3.90691ZM8.63292 6.94444C8.70718 6.81611 8.72788 6.66127 8.68968 6.51755L6.89577 6.99431C6.80771 6.66299 6.85432 6.31201 7.02633 6.01477L8.63292 6.94444ZM8.6889 6.51465C8.65071 6.3728 8.55685 6.24874 8.42629 6.17338L7.49829 7.78093C7.20014 7.60881 6.98524 7.32667 6.89654 6.99721L8.6889 6.51465ZM8.42456 6.17238C8.31892 6.1117 8.21617 6.1121 8.14522 6.1312C8.07454 6.15023 7.98392 6.20177 7.92189 6.30986L9.53177 7.23382C9.12729 7.93858 8.20289 8.18566 7.50003 7.78193L8.42456 6.17238ZM7.92316 6.30765L8.91679 4.58735L10.5241 5.51573L9.5305 7.23603L7.92316 6.30765ZM8.91736 4.58637C9.18543 4.12356 9.73259 3.89194 10.2575 4.034L9.77252 5.82572C10.0671 5.90546 10.3742 5.77453 10.5236 5.51671L8.91736 4.58637ZM10.2552 4.03338C10.7758 4.17287 11.1371 4.64471 11.1371 5.18273H9.2809C9.2809 5.48395 9.48308 5.74818 9.77482 5.82634L10.2552 4.03338ZM11.1371 5.18273V10.5909H9.2809V5.18273H11.1371ZM11.1371 10.5909C11.1371 10.4851 11.0979 10.389 11.0336 10.3154C10.9694 10.2419 10.8561 10.1661 10.6991 10.1558L10.5772 12.0079C9.79595 11.9565 9.2809 11.2759 9.2809 10.5909H11.1371ZM10.6872 10.155C10.5775 10.1492 10.4436 10.1894 10.3418 10.291L11.6532 11.6047C11.3602 11.8972 10.9717 12.0289 10.5892 12.0086L10.6872 10.155ZM10.3412 10.2916C10.2531 10.3797 10.2042 10.5004 10.2042 10.6214H12.0604C12.0604 10.99 11.9157 11.3422 11.6537 11.6041L10.3412 10.2916ZM10.2042 10.6214V7.08437H12.0604V10.6214H10.2042ZM10.2042 7.08437C10.2042 6.42715 10.737 5.89438 11.3942 5.89438V7.75056C11.7621 7.75056 12.0604 7.4523 12.0604 7.08437H10.2042ZM11.3942 5.89438C12.051 5.89438 12.5842 6.42662 12.5842 7.08437H10.728C10.728 7.4525 11.0266 7.75056 11.3942 7.75056V5.89438ZM12.5842 7.0844L12.584 11.4253L10.7278 11.4253L10.728 7.08433L12.5842 7.0844ZM12.584 11.4253C12.584 11.1673 12.3756 10.9589 12.1175 10.9589V12.815C11.3505 12.815 10.7278 12.1924 10.7278 11.4253H12.584ZM12.1175 10.9589C11.9968 10.9589 11.8767 11.0075 11.7888 11.0953L13.1 12.409C12.8379 12.6706 12.4856 12.815 12.1175 12.815V10.9589ZM11.7875 11.0965C11.6998 11.1844 11.6511 11.3045 11.6511 11.4253H13.5073C13.5073 11.7934 13.3628 12.1457 13.1013 12.4078L11.7875 11.0965ZM11.6511 11.4253V7.08436H13.5073V11.4253H11.6511ZM11.6511 7.08436C11.6511 6.42753 12.1833 5.89437 12.8411 5.89437V7.75056C13.2092 7.75056 13.5073 7.45191 13.5073 7.08436H11.6511ZM12.8411 5.89437C13.4979 5.89437 14.0311 6.42661 14.0311 7.08436H12.1749C12.1749 7.45251 12.4735 7.75056 12.8411 7.75056V5.89437ZM14.0311 7.0844L14.0309 10.5807L12.1747 10.5806L12.1749 7.08432L14.0311 7.0844ZM14.0309 10.5807V10.6213H12.1747V10.5807H14.0309ZM14.0309 10.6213C14.0309 10.3627 13.8221 10.1547 13.5646 10.1547V12.0109C12.7978 12.0109 12.1747 11.3887 12.1747 10.6213H14.0309ZM13.5646 10.1547C13.4413 10.1547 13.3219 10.2049 13.2364 10.29L14.5465 11.605C14.2859 11.8647 13.9349 12.0109 13.5646 12.0109V10.1547ZM13.2358 10.2906C13.147 10.3792 13.0982 10.5003 13.0982 10.6212H14.9544C14.9544 10.9896 14.8097 11.3423 14.5471 11.6044L13.2358 10.2906ZM13.0982 10.6212V7.08418H14.9544V10.6212H13.0982ZM13.0982 7.08418C13.0982 6.42734 13.6304 5.89419 14.2882 5.89419V7.75037C14.6563 7.75037 14.9544 7.45174 14.9544 7.08418H13.0982ZM14.2882 5.89419C14.945 5.89419 15.4781 6.42642 15.4781 7.08418H13.622C13.622 7.45232 13.9206 7.75037 14.2882 7.75037V5.89419ZM15.4781 7.08429L15.4778 9.7541L13.6216 9.75387L13.622 7.08406L15.4781 7.08429ZM15.4778 9.75399C15.4778 9.49653 15.2699 9.2877 15.0112 9.2877V11.1439C14.2438 11.1439 13.6216 10.5208 13.6216 9.75399H15.4778ZM15.0112 9.2877C14.8894 9.2877 14.7693 9.33699 14.6821 9.42411L15.9933 10.7379C15.7322 10.9985 15.3806 11.1439 15.0112 11.1439V9.2877ZM14.6814 9.42473C14.5931 9.51311 14.5446 9.63372 14.5446 9.75399H16.4008C16.4008 10.1216 16.2568 10.4744 15.994 10.7373L14.6814 9.42473ZM14.5446 9.75396L14.5447 4.34247L16.4009 4.34252L16.4008 9.75401L14.5446 9.75396ZM14.5447 4.3425C14.5447 2.96576 13.5437 1.99729 12.4949 1.99729V0.141101C14.7302 0.141101 16.4009 2.10978 16.4009 4.3425H14.5447ZM11.6025 0.814227L11.6025 0.814174L13.3873 1.32411L13.3873 1.32416L11.6025 0.814227Z" fill="#4CAF4F" mask="url(#path-1-inside-1_211_2339)"/>
<path d="M6.52862 15.7141C6.40432 15.7889 6.2436 15.7485 6.16932 15.6244C6.09486 15.5004 6.1352 15.3395 6.25902 15.2651M6.52862 15.7141L8.79123 12.6696C9.00983 12.5382 9.29812 12.59 9.43292 12.785M6.52862 15.7141L9.56149 13.8946H9.56166L9.56198 13.8944M6.52862 15.7141L10.726 14.2728C10.8319 14.2091 10.9067 14.1084 10.9366 13.9889M6.25902 15.2651L9.29206 13.4456C9.39799 13.382 9.47294 13.2811 9.50278 13.1619M6.25902 15.2651L6.28972 15.3163L6.39372 15.4896L6.39393 15.49L6.44079 15.5681L6.49774 15.663L6.49785 15.6629L6.49792 15.6629L6.49815 15.6628M6.25902 15.2651L6.28978 15.3162M9.50278 13.1619C9.53558 13.031 9.51066 12.8972 9.43292 12.785M9.50278 13.1619L9.57764 13.1806L9.57049 13.0268C9.56557 12.9208 9.53458 12.8269 9.48217 12.7513L9.48202 12.7511L9.43292 12.785M9.50278 13.1619L9.57764 13.1806L9.58502 13.3394L9.43318 13.4305H9.43297L9.32276 13.4967L9.32274 13.4967L9.32272 13.4967L6.28989 15.3162M9.43292 12.785L9.48199 12.751L7.24267 16.9035C7.3379 16.8462 7.36939 16.7224 7.31165 16.6262C7.2544 16.5309 7.13013 16.4995 7.03442 16.5569L10.0673 14.7375C10.137 14.6956 10.21 14.6641 10.2846 14.6423L10.755 14.3211L10.755 14.3211L10.7809 14.3034C10.8913 14.2281 10.9643 14.1237 10.9943 14.0035L10.9943 14.0033L10.9366 13.9889M6.28989 15.3162C6.38534 15.2591 6.50957 15.29 6.56714 15.3855C6.56726 15.3857 6.56739 15.3859 6.56751 15.3861C6.62474 15.4822 6.59318 15.6056 6.49815 15.6628M6.28989 15.3162C6.28986 15.3162 6.28982 15.3162 6.28978 15.3162M6.28989 15.3162L6.28978 15.3162M6.49815 15.6628L9.53077 13.8435L9.53083 13.8435L9.53099 13.8434C9.53108 13.8433 9.53117 13.8433 9.53126 13.8432L9.56149 13.8936L9.56166 13.8939L9.56198 13.8944M6.49815 15.6628L6.39417 15.4898L6.39396 15.4895L6.35878 15.431L6.28978 15.3162M9.56198 13.8944V13.8239C9.62051 13.7856 9.67406 13.7412 9.72188 13.6916L10.2211 13.431L10.2211 13.431L10.2488 13.4166C10.329 13.3747 10.4099 13.3551 10.4868 13.3551C10.5284 13.3551 10.5713 13.3603 10.6149 13.3711C10.615 13.3711 10.615 13.3711 10.615 13.3711C10.6152 13.3712 10.6153 13.3712 10.6154 13.3712L10.7131 12.9788M9.56198 13.8944L10.2511 13.481C10.3567 13.4177 10.4803 13.3992 10.6005 13.429C10.7201 13.4589 10.821 13.5336 10.8844 13.6394C10.9479 13.7454 10.9664 13.8695 10.9366 13.9889M10.7131 12.9788C10.7131 12.9788 10.7131 12.9788 10.7131 12.9788M10.7131 12.9788C10.9523 13.0386 11.1556 13.1895 11.2823 13.4006L11.3334 13.3699M10.7131 12.9788L10.7276 12.9209M10.7131 12.9788L10.6151 13.3711C10.7508 13.4051 10.8633 13.4884 10.9354 13.6086C10.9354 13.6086 10.9355 13.6087 10.9355 13.6088C10.9355 13.6088 10.9355 13.6088 10.9355 13.6088C11.0078 13.7295 11.0282 13.868 10.9944 14.0032L10.9943 14.0033L10.9366 13.9889M10.7131 12.9788C10.713 12.9788 10.713 12.9788 10.7129 12.9788L10.7124 12.9786C10.6407 12.9608 10.568 12.9517 10.4957 12.9511M10.7131 12.9788L10.7276 12.9209M10.2755 15.0842L10.5371 14.9272L10.8068 15.0863C10.8876 15.134 10.9487 15.1937 10.99 15.2627L10.9901 15.2629C10.9902 15.263 10.9902 15.263 10.9903 15.2631L10.9393 15.2937M10.2755 15.0842L11.0493 15.6578C11.083 15.5221 11.0625 15.3837 10.9903 15.2632L10.9393 15.2937M10.2755 15.0842L10.3062 15.1353M10.2755 15.0842L10.2755 15.0842L10.3062 15.1353M10.9393 15.2937C10.8083 15.0755 10.5241 15.0045 10.3062 15.1353M10.9393 15.2937C11.003 15.3995 11.0215 15.5238 10.9917 15.6434L10.3062 15.1353M11.3815 15.0135C11.3838 15.0171 11.386 15.0207 11.3881 15.0243L11.3815 15.0135ZM11.3815 15.0135C11.3659 15.0257 11.3499 15.0376 11.3338 15.0492C11.3348 15.051 11.3359 15.0528 11.337 15.0545L11.3815 15.0135ZM11.3093 14.3057C11.3427 14.2416 11.3688 14.1732 11.3868 14.1014L11.3093 14.3057ZM11.3093 14.3057C11.326 14.316 11.3425 14.3268 11.3588 14.3378C11.3961 14.2685 11.425 14.1942 11.4445 14.1158C11.5083 13.8607 11.4688 13.5959 11.3334 13.3699M11.3093 14.3057L11.3868 14.1013C11.4465 13.8622 11.4089 13.6119 11.2825 13.4009L11.2823 13.4007C11.2823 13.4006 11.2823 13.4006 11.2823 13.4006L11.3334 13.3699M11.3334 13.3699C11.1981 13.1443 10.9829 12.9847 10.7276 12.9209M10.7276 12.9209L10.4905 12.8911M10.4905 12.8911C10.4926 12.9111 10.4944 12.9311 10.4957 12.9511M10.4905 12.8911C10.4893 12.8911 10.488 12.8911 10.4868 12.8911C10.3299 12.8911 10.1757 12.9313 10.034 13.0052M10.4905 12.8911L10.034 13.0052M10.4957 12.9511C10.4965 12.962 10.4971 12.9728 10.4976 12.9837L10.4868 12.9842L10.1987 12.9976M10.4957 12.9511C10.4928 12.9511 10.4898 12.951 10.4868 12.951C10.3889 12.9511 10.2918 12.9668 10.1987 12.9976M10.1987 12.9976L10.034 13.0052M10.1987 12.9976C10.1515 13.0132 10.1053 13.0327 10.0606 13.0561C10.0443 13.0645 10.0283 13.0735 10.0125 13.083L10.0123 13.0831L9.97934 13.1029M10.034 13.0052L9.76956 13.2287L9.76965 13.2287L9.95294 13.2746C9.95293 13.2746 9.95292 13.2746 9.95291 13.2747C9.96722 13.2176 9.97597 13.1601 9.97934 13.1029M10.034 13.0052L9.96319 12.8695M10.034 13.0052C10.0267 12.8471 9.98501 12.6914 9.90502 12.5525C9.88683 12.5605 9.86881 12.569 9.85097 12.5778M9.97934 13.1029C9.98122 13.0711 9.98143 13.0393 9.98001 13.0077C9.97792 12.9612 9.97229 12.915 9.96319 12.8695M9.97934 13.1029L9.96319 12.8695M9.96319 12.8695L9.81931 12.5938C9.8298 12.5884 9.84035 12.583 9.85097 12.5778M9.96319 12.8695L9.81443 12.5208C9.82734 12.5395 9.83952 12.5585 9.85097 12.5778M9.96319 12.8695C9.9428 12.7675 9.90503 12.669 9.85097 12.5778M11.0426 14.6867L11.1219 14.5522C11.0876 14.5843 11.0506 14.614 11.0113 14.6408C10.9962 14.6512 10.9807 14.6611 10.9649 14.6706L10.9647 14.6707L10.9312 14.6908L11.0426 14.6867ZM3.63179 12.527L3.57903 12.4993C3.56934 12.5167 3.54519 12.5602 3.50952 12.6245C3.50069 12.6404 3.49115 12.6576 3.48095 12.6759C3.49914 12.685 3.51748 12.693 3.53585 12.6999C3.56722 12.6434 3.5992 12.5858 3.63179 12.527ZM7.77877 17.7977C7.77872 17.7977 7.77867 17.7977 7.77863 17.7978L7.77877 17.7977Z" fill="#4CAF4F" stroke="#4CAF4F" stroke-width="0.928093"/>
<path d="M19.4805 13.3632L19.4805 13.3632L19.4805 13.3632ZM19.4805 13.3632C19.3833 13.189 19.3872 12.9745 19.4902 12.8028L19.4805 13.3632ZM13.7389 12.9509C13.6664 12.9515 13.5935 12.9607 13.5216 12.9787L13.7389 12.9509ZM13.7389 12.9509C13.7403 12.931 13.742 12.911 13.7442 12.891L13.7389 12.9509ZM19.0629 13.6886L19.0235 13.6176L19.0629 13.6886ZM17.9447 15.3161C17.9446 15.3161 17.9445 15.316 17.9444 15.316L17.9446 15.3161L17.9447 15.3161ZM16.4559 17.7981C16.4557 17.798 16.4556 17.798 16.4555 17.7979L16.4559 17.7981ZM16.4554 17.7978L16.4555 17.7979L16.4554 17.7978Z" fill="#4CAF4F" stroke="#4CAF4F" stroke-width="0.928093"/>
</svg>
