<svg width="26" height="22" viewBox="0 0 26 22" fill="none" xmlns="http://www.w3.org/2000/svg">
<path d="M0.724451 21.3339C0.724451 21.551 0.90073 21.7276 1.1182 21.7276H25.0962C25.3134 21.7276 25.49 21.5513 25.49 21.3339C25.49 21.1167 25.3137 20.9401 25.0962 20.9401H24.3684V9.63504C24.3684 9.41785 24.1921 9.24129 23.9746 9.24129L17.5459 9.24156V1.0912C17.5459 0.953362 17.474 0.825958 17.3564 0.754562C17.2392 0.682899 17.0926 0.678506 16.9707 0.741931L9.66169 4.54733C9.53127 4.61515 9.45 4.7497 9.45 4.8966V12.0158H2.3765C2.15932 12.0158 1.98276 12.1921 1.98276 12.4095V20.9402H1.11732C0.900133 20.9399 0.724121 21.1162 0.724121 21.3336L0.724451 21.3339ZM17.546 15.205H23.5813V20.9404L17.546 20.9402V15.205ZM17.546 12.4688H23.5813V14.4178L17.546 14.4175V12.4688ZM17.546 10.0286H23.5813V11.6819H17.546V10.0286ZM10.2371 5.13568L16.7583 1.74023V20.9398H10.2371V5.13568ZM4.71669 17.7953C4.71669 16.9781 5.36414 16.3131 6.16014 16.3131C6.95613 16.3131 7.60387 16.9779 7.60387 17.7953V20.9403H4.71669V17.7953ZM2.77023 12.8031H9.44988V20.9402H8.39135V17.7951C8.39135 16.5439 7.39081 15.5258 6.16014 15.5258C4.93003 15.5258 3.92949 16.5436 3.92949 17.7951V20.9402H2.77023V12.8031Z" fill="#103E13"/>
</svg>
